<svg xmlns:svg="http://www.w3.org/2000/svg" version="1.1" width="520px" height="540px" preserveAspectRatio="none" viewBox="134 206 104 108"><defs><clipPath id="clippath11" transform=""><rect x="0" y="0" width="841.89" height="595.276" clip-rule="nonzero"></rect></clipPath><clipPath id="clippath12" transform="" clip-path="url(#clippath11)"><path d="M 678.537 548.212 L 805.89 548.212 L 805.89 557.276 L 678.537 557.276 Z" fill="none" clip-rule="nonzero"></path></clipPath><clipPath id="clippath13" transform=""><path d="M 101.007 232.36 L 247.088 232.36 L 247.088 391.054 L 101.007 391.054 Z" fill="none" clip-rule="nonzero"></path></clipPath><clipPath id="clippath14" transform=""><path d="M 101.007 376.676 C 101.007 368.736 107.443 362.299 115.385 362.299 L 115.385 362.299 C 123.324 362.299 129.762 368.736 129.762 376.676 L 129.762 376.676 C 129.762 384.617 123.324 391.055 115.385 391.055 L 115.385 391.055 C 107.443 391.055 101.007 384.617 101.007 376.676" fill="none" clip-rule="nonzero"></path></clipPath><linearGradient id="shading5" gradientUnits="userSpaceOnUse" x1="0" y1="0" x2="1" y2="0"><stop offset="0" stop-color="#b12a44"></stop><stop offset="0.1" stop-color="#b12a44"></stop><stop offset="0.2" stop-color="#af2944"></stop><stop offset="0.3" stop-color="#a82844"></stop><stop offset="0.4" stop-color="#9e2645"></stop><stop offset="0.5" stop-color="#912444"></stop><stop offset="0.6" stop-color="#842144"></stop><stop offset="0.7" stop-color="#842144"></stop><stop offset="0.8" stop-color="#842144"></stop><stop offset="0.9" stop-color="#842144"></stop><stop offset="1" stop-color="#842144"></stop></linearGradient><clipPath id="clippath15" transform=""><path d="M 101.007 232.36 L 247.088 232.36 L 247.088 391.054 L 101.007 391.054 Z" fill="none" clip-rule="nonzero"></path></clipPath><clipPath id="clippath16" transform=""><path d="M 121.167 333.544 C 121.167 301.781 146.915 276.034 178.676 276.034 L 178.676 276.034 C 210.438 276.034 236.187 301.781 236.187 333.544 L 236.187 333.544 C 236.187 365.306 210.438 391.055 178.676 391.055 L 178.676 391.055 C 146.915 391.055 121.167 365.306 121.167 333.544" fill="none" clip-rule="nonzero"></path></clipPath><radialGradient id="shading6" gradientUnits="userSpaceOnUse" cx="0" cy="0" r="1" fx="0" fy="0" fr="0"><stop offset="0" stop-color="#621741"></stop><stop offset="0.1" stop-color="#621741"></stop><stop offset="0.2" stop-color="#621741"></stop><stop offset="0.3" stop-color="#621741"></stop><stop offset="0.4" stop-color="#621741"></stop><stop offset="0.5" stop-color="#621741"></stop><stop offset="0.6" stop-color="#691942"></stop><stop offset="0.7" stop-color="#7d1e46"></stop><stop offset="0.8" stop-color="#922346"></stop><stop offset="0.9" stop-color="#a82845"></stop><stop offset="1" stop-color="#b12a44"></stop></radialGradient><clipPath id="clippath17" transform=""><path d="M 101.007 232.36 L 247.088 232.36 L 247.088 391.054 L 101.007 391.054 Z" fill="none" clip-rule="nonzero"></path></clipPath><clipPath id="clippath18" transform=""><path d="M 179.092 359.574 C 177.462 359.689 178.747 361.95 178.991 364.969 L 178.991 364.969 C 179.241 367.987 173.153 368.385 174.144 364.423 L 174.144 364.423 C 174.746 362.007 176.368 359.723 173.697 359.104 L 173.697 359.104 C 169.551 358.149 168.857 366.48 171.025 371.259 L 171.025 371.259 C 163.522 366.913 169.142 355.842 166.274 355.666 L 166.274 355.666 C 164.083 355.53 165.509 358.711 164.022 361.139 L 164.022 361.139 C 161.511 365.238 157.567 361.373 159.991 359.18 L 159.991 359.18 C 161.859 357.492 163.173 354.024 161.268 352.395 L 161.268 352.395 C 160.155 351.444 158.949 353.334 156.981 355.224 L 156.981 355.224 C 155.228 356.908 152.871 358.591 149.435 358.267 L 149.435 358.267 C 156.448 353.397 157.639 346.276 155.755 345.392 L 155.755 345.392 C 154.857 344.974 154.154 347.452 151.559 348.387 L 151.559 348.387 C 149.303 349.203 147.994 347.662 148.021 346.121 L 148.021 346.121 C 148.043 344.851 148.972 343.581 151.024 343.63 L 151.024 343.63 C 153.243 343.684 154.597 342.85 153.575 341.55 L 153.575 341.55 C 152.152 339.739 145.195 340.69 141.635 344 L 141.635 344 C 143.398 335.283 153.105 338.08 152.91 334.732 L 152.91 334.732 C 152.829 333.319 151.178 333.597 149.455 333.875 L 149.455 333.875 C 147.752 334.148 145.977 334.422 145.576 333.066 L 145.576 333.066 C 144.763 330.333 147.716 328.193 150.004 329.594 L 150.004 329.594 C 152.054 330.85 153.193 330.799 153.315 329.885 L 153.315 329.885 C 153.634 327.38 146.656 322.825 141.169 324.972 L 141.169 324.972 C 141.589 323.222 151.618 318.171 155.967 323.939 L 155.967 323.939 C 156.629 324.814 157.485 326.556 158.105 328.692 L 158.105 328.692 C 160.553 338.363 171.535 343.292 179.423 340.915 L 179.423 340.915 C 182.634 339.951 183.846 339.034 184.568 338.593 L 184.568 338.593 C 184.568 338.593 185.916 340.676 188.092 341.839 L 188.092 341.839 C 190.553 343.156 193.785 343.565 196.762 341.66 L 196.762 341.66 C 197.039 341.483 193.035 341.225 190.473 339.819 L 190.473 339.819 C 187.831 338.368 186.649 335.009 187.296 333.822 L 187.296 333.822 C 187.722 333.04 187.844 333.301 188.207 333.561 L 188.207 333.561 C 188.394 333.696 188.645 333.831 189.034 333.822 L 189.034 333.822 C 190.183 333.797 191.744 333.266 192.018 330.993 L 192.018 330.993 C 192.171 329.712 190.275 325.807 188.392 327.83 L 188.392 327.83 C 186.975 329.352 185.101 333.398 179.27 334.904 L 179.27 334.904 C 173.928 336.285 170.745 334.061 170.086 331.181 L 170.086 331.181 C 169.682 329.411 171.077 325.088 171.705 320.314 L 171.705 320.314 C 172.383 315.176 170.031 311.78 169.339 310.724 L 169.339 310.724 C 167.566 308.016 167.44 307.758 166.829 305.238 L 166.829 305.238 C 166.051 302.02 166.849 297.031 166.849 297.031 L 166.849 297.031 C 167.794 299.159 170.457 308.417 174.049 307.767 L 174.049 307.767 C 176.429 307.336 173.522 297.372 181.219 295.034 L 181.219 295.034 C 178.391 299.834 178.708 308.032 181.167 308.094 L 181.167 308.094 C 182.803 308.136 181.737 305.762 181.779 302.735 L 181.779 302.735 C 181.815 299.706 187.915 299.886 186.553 303.736 L 186.553 303.736 C 185.724 306.086 183.892 308.204 186.493 309.071 L 186.493 309.071 C 190.53 310.417 191.904 301.86 190.201 296.897 L 190.201 296.897 C 197.255 301.936 191.145 311.77 193.554 313.206 L 193.554 313.206 C 195.056 314.099 194.392 309.683 196.105 307.408 L 196.105 307.408 C 198.994 303.567 203.165 308.525 200.539 310.478 L 200.539 310.478 C 198.519 311.981 196.772 315.216 197.285 315.975 L 197.285 315.975 C 197.595 316.439 198.096 316.65 198.634 316.675 L 198.634 316.675 C 199.172 316.698 199.602 316.408 200.232 315.913 L 200.232 315.913 C 200.943 315.352 202.431 313.707 203.001 313.042 L 203.001 313.042 C 203.574 312.377 207.166 307.741 207.166 307.741 L 207.166 307.741 C 207.166 307.741 206.748 312.818 204.826 316.013 L 204.826 316.013 C 203.627 318.137 202.052 319.425 201.378 320.196 L 201.378 320.196 C 201.098 320.521 201.029 320.882 201.029 320.882 L 201.029 320.882 C 201.029 320.882 200.975 321.146 201.11 321.393 L 201.11 321.393 C 201.197 321.547 201.358 321.803 201.568 321.932 L 201.568 321.932 C 201.774 322.061 201.966 321.968 201.966 321.968 L 201.966 321.968 C 203.24 321.569 204.697 316.733 207.146 320.143 L 207.146 320.143 C 208.709 322.32 204.995 324.703 202.344 326.631 L 202.344 326.631 C 200.612 327.891 197.272 330.094 195.412 331.23 L 195.412 331.23 C 194.059 332.057 191.048 333.434 189.338 335.642 L 189.338 335.642 C 187.65 337.82 195.484 340.69 196.039 339.836 L 196.039 339.836 C 196.621 338.942 196.04 338.451 196.689 338.16 L 196.689 338.16 C 196.974 338.03 197.455 338.412 198.02 338.793 L 198.02 338.793 C 198.726 339.272 199.561 339.75 200.302 339.221 L 200.302 339.221 C 201.802 338.15 202.174 336.286 201.1 335.232 L 201.1 335.232 C 200.405 334.55 199.592 334.749 199.017 334.948 L 199.017 334.948 C 198.524 335.119 198.206 335.29 198.285 334.906 L 198.285 334.906 C 198.387 334.427 201.242 331.453 203.107 330.227 L 203.107 330.227 C 208.41 326.739 211.777 327.164 216.413 326.303 L 216.413 326.303 C 214.294 329.316 212.098 330.344 210.159 331.041 L 210.159 331.041 C 207.13 332.124 204.535 333.309 204.658 334.7 L 204.658 334.7 C 204.712 335.307 205.834 335.124 207.173 334.941 L 207.173 334.941 C 208.991 334.693 211.208 334.445 211.686 336.176 L 211.686 336.176 C 212.982 340.884 209.793 340.154 208.097 339.723 L 208.097 339.723 C 205.768 339.131 204.065 338.618 203.814 339.696 L 203.814 339.696 C 203.368 341.722 214.02 341.836 212.82 351.119 L 212.82 351.119 C 208.766 346.048 201.649 345.559 201.134 347.107 L 201.134 347.107 C 200.542 348.881 202.558 348.639 204.772 349.893 L 204.772 349.893 C 207.645 351.52 204.201 356.975 201.652 354.464 L 201.652 354.464 C 199.769 352.607 198.643 351.926 197.756 352.52 L 197.756 352.52 C 196.872 353.107 196.366 354.653 199.024 357.975 L 199.024 357.975 C 200.533 359.865 201.787 362.145 203.683 362.544 L 203.683 362.544 C 199.254 363.854 196.736 361.769 194.986 359.685 L 194.986 359.685 C 193.452 357.86 192.508 356.034 191.385 356.489 L 191.385 356.489 C 188.835 357.523 192.264 359.368 192.511 361.793 L 192.511 361.793 C 192.785 364.436 189.436 365.858 188.297 363.832 L 188.297 363.832 C 187.159 361.802 189.724 358.233 186.207 359.225 L 186.207 359.225 C 183.881 359.877 187.512 368.939 180.074 371.995 L 180.074 371.995 C 182.432 366.949 181.547 359.403 179.092 359.574 M 168.452 352.327 C 168.452 352.327 177.926 356.107 184.118 350.418 L 184.118 350.418 C 187.891 346.945 189.915 343.772 189.915 343.772 L 189.915 343.772 C 189.915 343.772 186.011 342.999 184.043 340.591 L 184.043 340.591 C 182.466 341.598 179.986 343.084 176.27 343.487 L 176.27 343.487 C 170.745 344.088 161.401 339.774 158.738 335.625 L 158.738 335.625 C 157.568 338.827 160.055 341.682 160.24 341.866 L 160.24 341.866 C 160.24 341.866 166.679 348.342 176.801 347.388 L 176.801 347.388 C 180.89 347.004 182.794 345.605 182.794 345.605 L 182.794 345.605 C 182.794 345.605 181.843 349.433 175.963 349.965 L 175.963 349.965 C 169.26 350.575 164.197 346.768 164.197 346.768 L 164.197 346.768 C 164.396 349.498 168.452 352.327 168.452 352.327 M 161.44 325.236 C 161.021 322.259 159.799 320.485 158.531 319.334 L 158.531 319.334 C 153.296 314.581 148.732 313.646 145.959 313.197 L 145.959 313.197 C 146.981 311.648 157.216 312.119 159.858 315.251 L 159.858 315.251 C 160.856 316.429 161.572 315.539 160.831 314.35 L 160.831 314.35 C 160.088 313.163 155.616 311.728 158.63 309.229 L 158.63 309.229 C 160.21 307.917 163.418 310.036 165.366 312.791 L 165.366 312.791 C 165.945 313.61 168.452 317.825 166.498 323.329 L 166.498 323.329 C 165.659 325.699 164.724 329.846 165.224 332.2 L 165.224 332.2 C 163.702 331.586 161.755 327.478 161.44 325.236" fill="none" clip-rule="nonzero"></path></clipPath><radialGradient id="shading7" gradientUnits="userSpaceOnUse" cx="0" cy="0" r="1" fx="0" fy="0" fr="0"><stop offset="0" stop-color="#44102c"></stop><stop offset="0.1" stop-color="#44102c"></stop><stop offset="0.2" stop-color="#44102c"></stop><stop offset="0.3" stop-color="#44102c"></stop><stop offset="0.4" stop-color="#44102c"></stop><stop offset="0.5" stop-color="#44102c"></stop><stop offset="0.6" stop-color="#48112d"></stop><stop offset="0.7" stop-color="#80203e"></stop><stop offset="0.8" stop-color="#b42a46"></stop><stop offset="0.9" stop-color="#be2a50"></stop><stop offset="1" stop-color="#c92b5a"></stop></radialGradient><clipPath id="clippath19" transform=""><path d="M 154.027 333.543 C 154.027 319.93 165.06 308.893 178.676 308.893 L 178.676 308.893 C 192.293 308.893 203.328 319.93 203.328 333.543 L 203.328 333.543 C 203.328 347.158 192.293 358.195 178.676 358.195 L 178.676 358.195 C 165.06 358.195 154.027 347.158 154.027 333.543" fill="none" clip-rule="nonzero"></path></clipPath><radialGradient id="shading8" gradientUnits="userSpaceOnUse" cx="0" cy="0" r="1" fx="0" fy="0" fr="0"><stop offset="0" stop-color="#b12a44"></stop><stop offset="0.1" stop-color="#b12a44"></stop><stop offset="0.2" stop-color="#b12a44"></stop><stop offset="0.3" stop-color="#b12a44"></stop><stop offset="0.4" stop-color="#b12a44"></stop><stop offset="0.5" stop-color="#b12a44"></stop><stop offset="0.6" stop-color="#972446"></stop><stop offset="0.7" stop-color="#7d1e45"></stop><stop offset="0.8" stop-color="#641741"></stop><stop offset="0.9" stop-color="#862146"></stop><stop offset="1" stop-color="#b12a44"></stop></radialGradient><clipPath id="clippath20" transform=""><path d="M 168.452 352.327 C 168.452 352.327 164.396 349.498 164.197 346.768 L 164.197 346.768 C 164.197 346.768 169.26 350.575 175.963 349.965 L 175.963 349.965 C 181.843 349.433 182.794 345.605 182.794 345.605 L 182.794 345.605 C 182.794 345.605 180.89 347.004 176.801 347.388 L 176.801 347.388 C 166.679 348.342 160.24 341.866 160.24 341.866 L 160.24 341.866 C 160.055 341.682 157.568 338.827 158.738 335.625 L 158.738 335.625 C 161.401 339.774 170.745 344.088 176.27 343.487 L 176.27 343.487 C 179.986 343.084 182.466 341.598 184.043 340.591 L 184.043 340.591 C 186.011 342.999 189.915 343.772 189.915 343.772 L 189.915 343.772 C 189.915 343.772 187.891 346.945 184.118 350.418 L 184.118 350.418 C 181.459 352.861 178.195 353.559 175.335 353.559 L 175.335 353.559 C 171.536 353.559 168.452 352.327 168.452 352.327 M 188.092 341.839 C 185.916 340.676 184.568 338.593 184.568 338.593 L 184.568 338.593 C 183.846 339.034 182.634 339.951 179.423 340.915 L 179.423 340.915 C 171.535 343.292 160.553 338.363 158.105 328.692 L 158.105 328.692 C 157.485 326.556 156.629 324.814 155.967 323.939 L 155.967 323.939 C 156.658 322.307 157.521 320.764 158.531 319.335 L 158.531 319.335 C 159.799 320.485 161.021 322.259 161.44 325.236 L 161.44 325.236 C 161.755 327.478 163.702 331.586 165.224 332.2 L 165.224 332.2 C 164.724 329.846 165.659 325.699 166.498 323.329 L 166.498 323.329 C 168.452 317.825 165.945 313.61 165.366 312.791 L 165.366 312.791 C 166.618 311.988 167.947 311.295 169.339 310.724 L 169.339 310.724 C 170.032 311.78 172.383 315.177 171.705 320.314 L 171.705 320.314 C 171.077 325.088 169.682 329.411 170.086 331.181 L 170.086 331.181 C 170.745 334.061 173.928 336.285 179.27 334.904 L 179.27 334.904 C 185.101 333.398 186.975 329.352 188.392 327.83 L 188.392 327.83 C 190.275 325.807 192.171 329.712 192.018 330.993 L 192.018 330.993 C 191.744 333.266 190.183 333.797 189.034 333.822 L 189.034 333.822 C 188.645 333.831 188.394 333.696 188.207 333.561 L 188.207 333.561 C 187.844 333.301 187.722 333.04 187.296 333.822 L 187.296 333.822 C 186.649 335.009 187.831 338.368 190.473 339.819 L 190.473 339.819 C 193.035 341.225 197.039 341.483 196.762 341.66 L 196.762 341.66 C 195.327 342.579 193.832 342.959 192.393 342.959 L 192.393 342.959 C 190.848 342.959 189.366 342.52 188.092 341.839 M 189.338 335.642 C 191.048 333.434 194.059 332.057 195.412 331.23 L 195.412 331.23 C 197.272 330.094 200.611 327.892 202.344 326.631 L 202.344 326.631 C 202.684 327.797 202.94 328.998 203.105 330.228 L 203.105 330.228 C 201.241 331.455 198.387 334.427 198.285 334.906 L 198.285 334.906 C 198.206 335.29 198.525 335.119 199.017 334.948 L 199.017 334.948 C 199.592 334.749 200.405 334.55 201.1 335.232 L 201.1 335.232 C 202.174 336.286 201.802 338.15 200.302 339.221 L 200.302 339.221 C 199.561 339.75 198.726 339.272 198.02 338.793 L 198.02 338.793 C 197.455 338.412 196.974 338.03 196.689 338.16 L 196.689 338.16 C 196.04 338.451 196.621 338.942 196.039 339.836 L 196.039 339.836 C 195.971 339.942 195.79 339.99 195.529 339.99 L 195.529 339.99 C 193.69 339.99 187.859 337.551 189.338 335.642" fill="none" clip-rule="nonzero"></path></clipPath><radialGradient id="shading9" gradientUnits="userSpaceOnUse" cx="0" cy="0" r="1" fx="0" fy="0" fr="0"><stop offset="0" stop-color="#ffffff"></stop><stop offset="0.1" stop-color="#ffffff"></stop><stop offset="0.2" stop-color="#ffffff"></stop><stop offset="0.3" stop-color="#ffffff"></stop><stop offset="0.4" stop-color="#ffffff"></stop><stop offset="0.5" stop-color="#f9f8f5"></stop><stop offset="0.6" stop-color="#e8e5da"></stop><stop offset="0.7" stop-color="#d2cebc"></stop><stop offset="0.8" stop-color="#b4af97"></stop><stop offset="0.9" stop-color="#c9c4b1"></stop><stop offset="1" stop-color="#ffffff"></stop></radialGradient><clipPath id="clippath21" transform=""><path d="M 0 0 L 841.89 0 L 841.89 595.276 L 0 595.276 Z" fill="none" clip-rule="nonzero"></path></clipPath></defs><g transform="matrix(1 0 0 -1 0 595.276)"><g transform=""><text transform="matrix(10 0 0 10 745.4095 37.6882) scale(1, -1)" xml:space="preserve"><tspan font-family="g_d0_f1" font-size="1px" y="0" x="0 0.386 0.778 1.156 1.51 1.916 2.096 2.592 3.134 3.349 3.875 4.281" fill="#2c2e35"></tspan><tspan y="0" x="4.461 4.641 4.821 5.001 5.181 5.361 5.681" font-family="g_d0_f2" font-size="1px" fill="#2c2e35"></tspan></text></g><g clip-path="url(#clippath11)"><g transform=""><path d="M 678.537 548.212 L 805.89 548.212 L 805.89 557.276 L 678.537 557.276 Z" fill="none"></path></g></g><g clip-path="url(#clippath12)"><g transform="translate(722.4628 557.1514)"><path d="M 0 0 L -0.788 0 L -2.166 -6.22 L -2.34 -7.183 L -2.389 -7.183 L -2.613 -6.283 L -4.038 -0.274 C -4.038 -0.272 -4.039 -0.271 -4.039 -0.27 C -4.071 -0.116 -4.208 0 -4.371 0 C -4.373 0 -4.376 0 -4.378 0 L -5.357 0 L -4.786 -2.21 L -5.94 -6.245 L -6.214 -7.183 L -6.263 -7.183 L -6.425 -6.245 L -7.47 -0.27 C -7.502 -0.116 -7.638 0 -7.802 0 C -7.804 0 -7.807 0 -7.809 0 L -8.784 0 L -7.108 -8.778 L -5.829 -8.778 C -5.828 -8.778 -5.828 -8.778 -5.827 -8.778 C -5.669 -8.778 -5.536 -8.671 -5.498 -8.525 L -4.488 -4.867 L -4.277 -4.13 L -4.239 -4.13 L -4.066 -4.892 L -3.134 -8.778 L -1.878 -8.778 C -1.878 -8.778 -1.877 -8.778 -1.877 -8.778 C -1.726 -8.778 -1.597 -8.68 -1.553 -8.544 L 0.338 -0.34 C 0.339 -0.339 0.339 -0.339 0.339 -0.339 C 0.381 -0.152 0.187 0 0 0 M 9.971 -4.408 L 9.337 -4.408 L 9.337 -1.105 L 10.182 -1.105 C 11.001 -1.105 11.374 -1.664 11.374 -2.781 C 11.374 -3.886 10.852 -4.408 9.971 -4.408 M 12.417 -6.63 L 11.535 -5.029 C 12.28 -4.569 12.665 -3.688 12.665 -2.719 C 12.665 -0.869 11.721 0 10.368 0 L 8.434 0 C 8.248 0 8.098 -0.15 8.096 -0.335 L 8.096 -8.778 L 8.997 -8.778 C 8.997 -8.778 8.998 -8.778 8.999 -8.778 C 9.185 -8.778 9.337 -8.627 9.337 -8.44 C 9.337 -8.437 9.337 -8.434 9.337 -8.432 L 9.337 -5.451 L 9.809 -5.451 C 10.033 -5.451 10.256 -5.451 10.405 -5.414 L 11.374 -7.35 C 11.881 -8.366 12.681 -8.831 13.377 -8.917 L 13.741 -7.932 C 13.061 -7.572 12.702 -7.138 12.417 -6.63 M 15.668 -7.648 L 15.668 0 L 14.765 0 C 14.58 0 14.43 -0.148 14.426 -0.333 L 14.426 -8.778 L 17.957 -8.778 L 18.374 -7.648 Z M 21.168 -7.673 L 20.274 -7.673 L 20.274 -1.105 L 20.995 -1.105 C 22.509 -1.105 23.44 -2.247 23.44 -4.495 C 23.44 -6.556 22.621 -7.673 21.168 -7.673 M 21.019 0 L 19.384 0 C 19.197 0 19.045 -0.152 19.045 -0.339 L 19.045 -8.442 C 19.046 -8.628 19.197 -8.778 19.382 -8.778 L 21.069 -8.778 C 23.292 -8.778 24.682 -7.4 24.682 -4.358 C 24.682 -1.465 23.155 0 21.019 0 M 3.788 -0.944 C 2.409 -0.944 1.751 -2.409 1.751 -4.358 C 1.751 -6.32 2.459 -7.835 3.813 -7.835 C 5.265 -7.835 5.874 -6.37 5.874 -4.383 C 5.874 -2.334 5.129 -0.944 3.788 -0.944 M 3.738 -8.927 C 1.615 -8.927 0.497 -7.152 0.497 -4.371 C 0.497 -1.564 1.826 0.124 3.912 0.124 C 6.122 0.124 7.153 -1.813 7.153 -4.395 C 7.153 -7.164 5.911 -8.927 3.738 -8.927 M -15.118 -7.673 L -16.012 -7.673 L -16.012 -1.105 L -15.292 -1.105 C -13.777 -1.105 -12.846 -2.247 -12.846 -4.495 C -12.846 -6.556 -13.666 -7.673 -15.118 -7.673 M -15.267 0 L -16.903 0 C -17.09 0 -17.241 -0.152 -17.241 -0.339 L -17.241 -8.442 C -17.24 -8.628 -17.09 -8.778 -16.904 -8.778 L -15.218 -8.778 C -12.995 -8.778 -11.604 -7.4 -11.604 -4.358 C -11.604 -1.465 -13.132 0 -15.267 0 M -18.126 -7.674 L -18.126 -7.673 L -21.032 -7.673 L -21.032 -4.892 L -18.897 -4.892 L -18.512 -3.849 L -21.032 -3.849 L -21.032 -1.093 L -18.732 -1.093 L -18.328 0 L -22.274 0 L -22.274 -8.778 L -18.534 -8.778 Z M -25.472 -8.778 C -25.301 -8.762 -25.168 -8.619 -25.167 -8.444 L -25.167 -1.117 L -23.417 -1.117 C -23.237 -1.11 -23.093 -0.962 -23.093 -0.78 C -23.093 -0.777 -23.093 -0.775 -23.093 -0.773 L -23.093 0 L -28.072 0 L -28.482 -1.11 L -28.482 -1.117 L -26.408 -1.117 L -26.408 -8.778 Z M -39.298 0 C -39.481 -0.004 -39.629 -0.153 -39.63 -0.338 L -39.63 -5.401 C -39.63 -7.239 -40.313 -7.835 -41.157 -7.835 C -41.989 -7.835 -42.672 -7.313 -42.672 -5.687 L -42.672 0 L -43.599 0 C -43.78 -0.006 -43.926 -0.155 -43.926 -0.338 C -43.926 -0.338 -43.926 -0.339 -43.926 -0.339 L -43.926 -5.649 C -43.926 -8.294 -42.51 -8.94 -41.157 -8.94 C -39.878 -8.94 -38.425 -8.22 -38.425 -5.339 L -38.425 0 Z M -32.145 -8.778 C -31.96 -8.778 -31.811 -8.631 -31.806 -8.448 L -31.806 0 L -32.694 0 L -32.697 0 C -32.883 0 -33.035 -0.152 -33.035 -0.339 C -33.035 -0.342 -33.035 -0.345 -33.036 -0.348 L -33.036 -5.016 L -33.011 -6.506 L -35.842 0 L -36.893 0 L -36.895 0 C -37.076 0 -37.223 -0.142 -37.232 -0.321 L -37.232 -8.778 L -36.331 -8.778 C -36.331 -8.778 -36.33 -8.778 -36.329 -8.778 C -36.143 -8.778 -35.991 -8.627 -35.991 -8.44 L -35.991 -3.737 L -36.028 -2.297 L -33.16 -8.778 L -32.147 -8.778 C -32.146 -8.778 -32.145 -8.778 -32.145 -8.778 M -29.591 -8.778 C -29.415 -8.778 -29.271 -8.645 -29.254 -8.474 L -29.254 0 L -30.158 0 C -30.344 -0.001 -30.494 -0.15 -30.496 -0.335 L -30.496 -8.778 L -29.592 -8.778 C -29.592 -8.778 -29.591 -8.778 -29.591 -8.778 M 49.093 -7.144 L 49.093 -7.132 L 46.297 -7.132 L 46.297 -5.144 L 47.978 -5.144 L 48.548 -3.604 L 46.297 -3.604 L 46.297 -1.653 L 48.394 -1.653 L 49.004 0 L 44.765 0 C 44.762 -0.001 44.759 -0.001 44.756 -0.001 C 44.581 -0.001 44.438 -0.135 44.421 -0.305 L 44.421 -8.784 L 48.486 -8.784 Z M 39.889 -4.274 L 39.566 -4.274 L 39.566 -1.665 L 40.1 -1.665 C 40.771 -1.665 40.957 -2.224 40.957 -2.982 C 40.957 -3.678 40.684 -4.274 39.889 -4.274 M 44.076 -7.46 C 43.264 -6.966 42.857 -6.521 42.535 -6.088 L 41.839 -5.157 C 42.448 -4.697 42.896 -3.864 42.896 -2.933 C 42.896 -0.945 41.79 0 40.286 0 L 38.023 0 C 38.02 -0.001 38.017 -0.001 38.014 -0.001 C 37.828 -0.001 37.678 -0.151 37.677 -0.337 L 37.677 -8.784 L 39.226 -8.784 C 39.227 -8.784 39.227 -8.784 39.229 -8.784 C 39.414 -8.784 39.565 -8.634 39.565 -8.448 C 39.565 -8.445 39.566 -8.443 39.566 -8.441 L 39.566 -5.753 L 40.175 -5.753 L 40.796 -6.896 C 41.353 -7.913 42.264 -8.824 43.53 -8.939 Z M 54.823 0 L 54.212 -1.653 L 56.049 -1.653 L 56.049 -8.784 L 57.597 -8.784 C 57.598 -8.784 57.599 -8.784 57.6 -8.784 C 57.786 -8.784 57.936 -8.634 57.936 -8.448 C 57.936 -8.442 57.937 -8.437 57.938 -8.432 L 57.938 -1.653 L 59.535 -1.653 C 59.54 -1.652 59.545 -1.651 59.551 -1.651 C 59.737 -1.651 59.888 -1.501 59.888 -1.315 C 59.888 -1.312 59.888 -1.31 59.888 -1.307 L 59.888 0 Z M 65.073 -7.12 L 62.303 -7.12 L 62.303 0 L 60.772 0 C 60.769 -0.001 60.766 -0.001 60.763 -0.001 C 60.577 -0.001 60.427 -0.151 60.427 -0.337 L 60.427 -8.784 L 64.458 -8.784 Z M 67.171 -8.784 C 67.357 -8.784 67.507 -8.634 67.508 -8.449 L 67.508 0 L 65.975 0 C 65.972 -0.001 65.97 -0.001 65.967 -0.001 C 65.791 -0.001 65.647 -0.136 65.632 -0.308 L 65.632 -8.784 L 67.168 -8.784 C 67.169 -8.784 67.17 -8.784 67.171 -8.784 M 51.25 -2.39 C 51.25 -2.017 51.436 -1.57 52.007 -1.57 C 52.513 -1.57 52.795 -1.632 53.279 -1.78 C 53.442 -1.82 53.611 -1.732 53.672 -1.573 L 54.095 -0.452 C 53.138 0.045 52.616 0.107 51.871 0.107 C 50.852 0.107 49.386 -0.688 49.386 -2.353 C 49.386 -5.036 52.43 -4.925 52.43 -6.155 C 52.43 -6.515 52.219 -7.149 51.498 -7.149 C 50.953 -7.149 50.575 -7.069 50.038 -6.842 C 50.035 -6.841 50.033 -6.841 50.03 -6.84 C 49.855 -6.776 49.662 -6.867 49.599 -7.041 C 49.596 -7.048 49.593 -7.053 49.591 -7.057 L 49.187 -8.155 C 49.808 -8.602 50.467 -8.888 51.523 -8.888 C 52.79 -8.888 54.343 -8.055 54.343 -6.13 C 54.343 -3.67 51.25 -3.384 51.25 -2.39 M 35.471 -8.449 C 35.471 -8.448 35.471 -8.447 35.472 -8.446 L 37.136 -0.333 C 37.134 -0.149 36.984 0 36.799 0 L 35.402 0 L 34.471 -5.343 L 34.26 -6.734 L 34.27 -6.67 L 34.036 -5.467 L 32.906 -0.345 C 32.906 -0.342 32.904 -0.34 32.904 -0.337 C 32.863 -0.156 32.753 0 32.567 0 L 30.942 0 L 31.539 -2.224 L 30.346 -6.67 L 30.184 -5.43 L 29.534 -0.354 C 29.532 -0.349 29.531 -0.344 29.531 -0.337 C 29.531 -0.336 29.531 -0.335 29.531 -0.335 L 29.521 -0.256 C 29.485 -0.109 29.353 0 29.195 0 L 27.625 0 L 29.029 -8.784 L 31.03 -8.784 C 31.207 -8.777 31.317 -8.624 31.361 -8.449 C 31.361 -8.448 31.362 -8.448 31.362 -8.448 L 32.073 -5.604 L 32.284 -4.623 L 32.246 -4.797 L 32.599 -6.21 L 33.197 -8.784 L 35.139 -8.784 C 35.317 -8.777 35.427 -8.624 35.471 -8.449 M 81.266 -8.12 C 81.266 -8.116 81.266 -8.112 81.267 -8.109 L 81.267 -4.709 L 79.453 -4.709 L 79.453 -7.169 L 79.217 -7.169 C 77.962 -7.169 77.328 -6.076 77.328 -4.324 C 77.328 -2.634 77.9 -1.603 79.03 -1.603 C 79.603 -1.603 79.923 -1.667 80.483 -1.855 C 80.647 -1.896 80.819 -1.806 80.879 -1.643 C 80.88 -1.641 80.881 -1.64 80.882 -1.638 L 81.192 -0.473 C 80.546 -0.15 79.95 0.099 79.03 0.099 C 76.881 0.099 75.415 -1.765 75.415 -4.448 C 75.415 -7.293 76.645 -8.909 79.055 -8.909 C 79.765 -8.909 80.312 -8.782 80.936 -8.513 C 81.105 -8.428 81.266 -8.369 81.266 -8.12 M 74.252 -8.784 C 74.253 -8.784 74.253 -8.784 74.255 -8.784 C 74.436 -8.784 74.583 -8.641 74.59 -8.462 L 74.59 0 L 73.06 0 C 73.057 -0.001 73.055 -0.001 73.052 -0.001 C 72.866 -0.001 72.715 -0.152 72.715 -0.338 C 72.715 -0.341 72.715 -0.343 72.714 -0.345 L 72.714 -3.516 L 72.739 -5.057 L 70.59 0 L 68.91 0 C 68.907 -0.001 68.905 -0.001 68.902 -0.001 C 68.716 -0.001 68.565 -0.152 68.565 -0.338 C 68.565 -0.34 68.565 -0.341 68.565 -0.343 L 68.565 -8.784 L 70.103 -8.784 C 70.104 -8.784 70.104 -8.784 70.106 -8.784 C 70.282 -8.784 70.426 -8.649 70.441 -8.477 L 70.441 -5.082 L 70.416 -3.541 L 72.739 -8.784 Z M 83.278 -1.868 L 83.278 -1.268 L 83.288 -1.084 L 83.281 -1.084 L 83.083 -1.868 L 82.919 -1.868 L 82.733 -1.085 L 82.727 -1.085 L 82.739 -1.282 L 82.739 -1.868 L 82.59 -1.868 L 82.59 -0.815 L 82.791 -0.815 L 83.003 -1.701 L 83.007 -1.701 L 83.235 -0.815 L 83.427 -0.815 L 83.427 -1.868 Z M 82.243 -0.949 L 82.243 -1.868 L 82.094 -1.868 L 82.094 -0.949 L 81.845 -0.949 L 81.845 -0.815 L 82.492 -0.815 L 82.492 -0.949 Z" fill="#090b2e" fill-opacity="1"></path></g></g><g transform=""><path d="M 101.007 232.36 L 247.088 232.36 L 247.088 391.054 L 101.007 391.054 Z" fill="none"></path></g><g clip-path="url(#clippath13)"><g transform="translate(142.6069 233.8043)"><path d="M 0 0 L 0 0 C -0.06 0.159 -0.214 0.272 -0.393 0.272 C -0.423 0.272 -0.451 0.268 -0.478 0.263 C -0.961 0.132 -1.467 0.057 -1.987 0.057 C -3.659 0.057 -4.881 1.434 -4.881 4.296 C -4.881 7.065 -3.721 8.38 -2.221 8.38 C -1.609 8.38 -1.142 8.284 -0.553 8.074 C -0.511 8.061 -0.467 8.053 -0.42 8.053 C -0.248 8.053 -0.1 8.157 -0.034 8.305 L 0.276 9.146 L 0.287 9.185 C -0.363 9.587 -1.059 9.788 -2.174 9.788 C -4.773 9.788 -6.459 7.544 -6.459 4.141 C -6.459 0.831 -4.974 -1.413 -2.188 -1.413 C -0.936 -1.413 -0.287 -1.181 0.317 -0.872 L 0.31 -0.837 Z M 56.571 6.942 C 56.571 7.808 57.019 8.364 57.855 8.364 C 58.326 8.364 58.694 8.299 59.143 8.144 C 59.147 8.144 59.149 8.143 59.153 8.141 C 59.198 8.125 59.247 8.116 59.298 8.116 C 59.469 8.116 59.619 8.217 59.685 8.364 L 59.704 8.413 L 60.006 9.185 C 59.232 9.603 58.612 9.757 57.777 9.757 C 56.416 9.757 55.024 8.752 55.024 6.942 C 55.024 3.77 58.798 3.692 58.798 1.651 C 58.798 0.629 58.164 0.011 57.205 0.011 C 56.648 0.011 56.19 0.129 55.658 0.39 L 55.658 0.39 C 55.601 0.418 55.538 0.433 55.47 0.433 C 55.29 0.433 55.136 0.32 55.076 0.162 L 54.775 -0.65 C 55.433 -1.125 56.133 -1.398 57.22 -1.398 C 58.767 -1.398 60.377 -0.423 60.377 1.728 C 60.377 4.729 56.571 5.054 56.571 6.942 M 76.991 6.013 C 76.991 7.437 76.419 8.302 75.413 8.302 L 74.454 8.302 L 74.454 3.816 L 75.165 3.816 C 76.248 3.816 76.991 4.605 76.991 6.013 M 78.6 6.06 C 78.6 4.048 77.392 2.439 75.088 2.439 L 74.454 2.439 L 74.454 -0.838 C 74.453 -1.07 74.264 -1.259 74.031 -1.259 L 74.027 -1.259 L 72.907 -1.259 L 72.907 9.287 C 72.922 9.506 73.104 9.679 73.327 9.679 C 73.331 9.679 73.334 9.679 73.337 9.68 L 75.567 9.68 C 77.423 9.68 78.6 8.35 78.6 6.06 M 68.053 -1.259 L 68.064 -1.259 C 68.297 -1.259 68.486 -1.069 68.486 -0.835 C 68.486 -0.835 68.486 -0.833 68.487 -0.832 L 68.487 9.68 L 67.371 9.68 C 67.369 9.679 67.365 9.679 67.361 9.679 C 67.128 9.679 66.939 9.49 66.939 9.258 L 66.939 9.252 L 66.939 4.915 L 63.319 4.915 L 63.319 9.68 L 62.204 9.68 C 62.201 9.679 62.197 9.679 62.194 9.679 C 61.961 9.679 61.772 9.49 61.772 9.258 L 61.772 9.255 L 61.772 -1.259 L 62.886 -1.259 L 62.898 -1.259 C 63.125 -1.259 63.309 -1.078 63.319 -0.855 L 63.319 3.553 L 66.939 3.553 L 66.939 -1.259 Z M 24.657 -1.259 L 25.781 -1.259 L 25.782 -1.259 C 26.014 -1.259 26.203 -1.071 26.204 -0.84 L 26.204 9.68 L 24.536 9.68 C 24.536 9.68 24.535 9.679 24.535 9.679 C 24.348 9.679 24.19 9.559 24.134 9.392 L 21.841 0.474 L 21.794 0.474 L 19.598 9.68 L 17.934 9.68 C 17.934 9.68 17.932 9.679 17.931 9.679 C 17.699 9.679 17.51 9.491 17.51 9.258 L 17.51 9.255 L 17.51 -1.259 L 18.634 -1.259 L 18.634 -1.259 C 18.865 -1.259 19.053 -1.072 19.057 -0.842 L 19.057 4.837 L 19.054 6.621 L 20.929 -1.259 L 22.305 -1.259 C 22.5 -1.257 22.665 -1.124 22.711 -0.943 L 24.663 6.621 L 24.657 4.976 Z M 13.815 3.877 L 13.088 7.065 L 12.887 7.875 L 12.793 7.875 L 12.592 7.065 L 11.773 3.877 Z M 14.974 -0.937 L 14.109 2.579 L 11.433 2.579 L 10.464 -0.954 C 10.413 -1.129 10.251 -1.257 10.061 -1.259 L 8.833 -1.259 L 11.839 9.367 C 11.885 9.543 12.044 9.673 12.233 9.68 L 13.892 9.68 L 16.678 -1.259 L 15.381 -1.259 C 15.186 -1.257 15.019 -1.121 14.974 -0.938 Z M 44.037 4.219 C 44.037 1.743 43.279 -0.083 41.469 -0.083 C 39.782 -0.083 38.901 1.805 38.901 4.25 C 38.901 6.678 39.72 8.504 41.437 8.504 C 43.109 8.504 44.037 6.771 44.037 4.219 M 45.631 4.203 C 45.631 7.421 44.347 9.834 41.593 9.834 C 38.993 9.834 37.338 7.731 37.338 4.234 C 37.338 0.768 38.73 -1.444 41.376 -1.444 C 44.084 -1.444 45.631 0.752 45.631 4.203 M 53.287 -1.27 C 53.517 -1.27 53.704 -1.087 53.709 -0.858 L 53.709 9.686 L 52.601 9.686 L 52.598 9.686 C 52.365 9.686 52.176 9.496 52.176 9.263 C 52.176 9.259 52.176 9.255 52.175 9.252 L 52.175 3.424 L 52.206 1.565 L 48.672 9.686 L 47.361 9.686 L 47.358 9.686 C 47.132 9.686 46.949 9.508 46.937 9.284 L 46.937 -1.27 L 48.062 -1.27 L 48.063 -1.27 C 48.297 -1.27 48.486 -1.082 48.487 -0.848 L 48.487 5.021 L 48.44 6.818 L 52.02 -1.27 L 53.284 -1.27 Z M 35.658 -1.27 C 35.877 -1.27 36.057 -1.104 36.078 -0.891 L 36.078 9.686 L 34.949 9.686 C 34.718 9.685 34.532 9.498 34.529 9.267 L 34.529 -1.27 L 35.657 -1.27 Z M 71.089 -1.27 C 71.308 -1.27 71.488 -1.104 71.509 -0.891 L 71.509 9.686 L 70.38 9.686 C 70.15 9.685 69.962 9.498 69.96 9.267 L 69.96 -1.27 L 71.087 -1.27 Z M 31.745 6.013 C 31.745 7.437 31.173 8.302 30.166 8.302 L 29.208 8.302 L 29.208 3.816 L 29.92 3.816 C 31.003 3.816 31.745 4.605 31.745 6.013 M 33.355 6.06 C 33.355 4.048 32.148 2.439 29.843 2.439 L 29.208 2.439 L 29.208 -0.838 C 29.207 -1.07 29.019 -1.259 28.786 -1.259 L 28.782 -1.259 L 27.661 -1.259 L 27.661 9.287 C 27.677 9.506 27.858 9.679 28.081 9.679 C 28.085 9.679 28.088 9.679 28.092 9.68 L 30.323 9.68 C 32.179 9.68 33.355 8.35 33.355 6.06 M 7.568 -1.259 L 7.579 -1.259 C 7.812 -1.259 8.001 -1.069 8.001 -0.835 C 8.001 -0.835 8.001 -0.833 8.002 -0.832 L 8.002 9.68 L 6.887 9.68 C 6.883 9.679 6.88 9.679 6.877 9.679 C 6.643 9.679 6.454 9.49 6.454 9.258 L 6.454 9.252 L 6.454 4.915 L 2.834 4.915 L 2.834 9.68 L 1.719 9.68 C 1.716 9.679 1.712 9.679 1.709 9.679 C 1.476 9.679 1.287 9.49 1.287 9.258 L 1.287 9.255 L 1.287 -1.259 L 2.402 -1.259 L 2.412 -1.259 C 2.639 -1.259 2.823 -1.078 2.834 -0.855 L 2.834 3.553 L 6.454 3.553 L 6.454 -1.259 Z M -21.475 16.947 L -21.475 16.948 C -21.593 17.296 -22.012 17.461 -22.369 17.37 C -22.373 17.368 -22.378 17.367 -22.383 17.366 C -23.147 17.191 -23.82 17.132 -24.619 17.132 C -27.168 17.132 -28.454 19.353 -28.454 22.911 C -28.454 26.342 -27.294 28.462 -24.998 28.462 C -23.934 28.462 -23.3 28.339 -22.329 28.021 C -22.326 28.02 -22.322 28.019 -22.318 28.017 C -21.969 27.899 -21.56 28.106 -21.443 28.467 C -21.439 28.478 -21.435 28.488 -21.43 28.496 L -20.619 30.69 L -20.607 30.733 C -21.592 31.465 -22.929 31.893 -24.796 31.893 C -29.236 31.893 -32.34 28.462 -32.34 22.659 C -32.34 16.88 -29.842 13.6 -24.947 13.6 C -23.257 13.6 -22.171 13.827 -20.607 14.584 L -20.613 14.614 Z M 87.84 22.205 L 87.21 25.737 L 86.806 27.78 L 86.554 27.78 L 86.175 25.737 L 85.443 22.205 Z M 89.522 14.374 L 88.522 19.126 L 84.661 19.126 L 83.48 14.378 L 83.479 14.377 C 83.405 14.076 83.132 13.854 82.809 13.854 C 82.8 13.854 82.792 13.853 82.785 13.851 L 79.488 13.851 L 84.249 31.203 C 84.333 31.471 84.584 31.671 84.874 31.692 L 89.354 31.692 L 93.593 13.851 L 90.215 13.851 C 90.208 13.853 90.201 13.854 90.192 13.854 C 89.87 13.854 89.597 14.075 89.522 14.374 M -9.711 22.785 C -9.711 19.353 -10.418 16.88 -12.891 16.88 C -15.086 16.88 -16.348 19.302 -16.348 22.835 C -16.348 26.166 -15.439 28.74 -13.118 28.74 C -10.873 28.74 -9.711 26.494 -9.711 22.785 M -5.826 22.759 C -5.826 28.235 -7.895 31.97 -12.79 31.97 C -17.357 31.97 -20.158 28.764 -20.158 22.81 C -20.158 16.957 -17.887 13.55 -13.143 13.55 C -8.374 13.55 -5.826 16.754 -5.826 22.759 M 53.768 17.172 L 53.768 17.196 L 48.091 17.196 L 48.091 21.232 L 51.505 21.232 L 52.661 24.361 L 48.091 24.361 L 48.091 28.322 L 52.348 28.322 L 53.588 31.678 L 44.979 31.678 C 44.973 31.677 44.968 31.676 44.961 31.676 C 44.606 31.676 44.314 31.405 44.281 31.058 L 44.281 13.84 L 52.537 13.84 Z M 11.057 31.678 L 9.816 28.322 L 13.547 28.322 L 13.547 13.84 L 16.69 13.84 C 16.692 13.84 16.693 13.841 16.696 13.841 C 17.073 13.841 17.379 14.147 17.379 14.524 C 17.379 14.536 17.38 14.547 17.382 14.556 L 17.382 28.322 L 20.626 28.322 C 20.635 28.324 20.646 28.326 20.658 28.326 C 21.036 28.326 21.342 28.631 21.342 29.009 C 21.342 29.014 21.343 29.019 21.344 29.024 L 21.344 31.678 Z M 71.004 31.678 L 69.765 28.322 L 73.495 28.322 L 73.495 13.84 L 76.638 13.84 C 76.641 13.84 76.642 13.841 76.644 13.841 C 77.022 13.841 77.328 14.147 77.328 14.524 C 77.328 14.536 77.329 14.547 77.331 14.556 L 77.331 28.322 L 80.574 28.322 C 80.584 28.324 80.594 28.326 80.607 28.326 C 80.984 28.326 81.29 28.631 81.29 29.009 C 81.29 29.014 81.291 29.019 81.292 29.024 L 81.292 31.678 Z M 104.481 17.221 L 98.855 17.221 L 98.855 31.678 L 95.746 31.678 C 95.741 31.677 95.736 31.676 95.729 31.676 C 95.351 31.676 95.046 31.371 95.045 30.994 L 95.045 13.84 L 103.232 13.84 Z M 25.708 13.841 C 26.085 13.841 26.39 14.146 26.391 14.521 L 26.391 31.678 L 23.279 31.678 C 23.274 31.677 23.268 31.676 23.262 31.676 C 22.905 31.676 22.612 31.401 22.582 31.052 L 22.582 13.84 L 25.702 13.84 C 25.704 13.84 25.706 13.841 25.708 13.841 M 40.766 13.84 C 40.768 13.84 40.77 13.841 40.772 13.841 C 41.14 13.841 41.44 14.131 41.455 14.496 L 41.455 31.678 L 38.347 31.678 C 38.341 31.677 38.336 31.676 38.33 31.676 C 37.952 31.676 37.646 31.371 37.646 30.993 C 37.646 30.987 37.645 30.982 37.645 30.977 L 37.645 24.537 L 37.695 21.408 L 33.33 31.678 L 29.919 31.678 C 29.914 31.677 29.909 31.676 29.902 31.676 C 29.525 31.676 29.218 31.371 29.218 30.993 C 29.218 30.988 29.218 30.987 29.218 30.982 L 29.218 13.84 L 32.341 13.84 C 32.343 13.84 32.345 13.841 32.347 13.841 C 32.705 13.841 32.998 14.115 33.028 14.466 L 33.028 21.358 L 32.977 24.487 L 37.695 13.84 Z M 7.919 13.84 C 7.92 13.84 7.923 13.841 7.925 13.841 C 8.293 13.841 8.592 14.131 8.607 14.496 L 8.607 31.678 L 5.499 31.678 C 5.493 31.677 5.488 31.676 5.482 31.676 C 5.104 31.676 4.798 31.371 4.798 30.993 C 4.798 30.987 4.797 30.982 4.797 30.977 L 4.797 24.537 L 4.847 21.408 L 0.482 31.678 L -2.928 31.678 C -2.933 31.677 -2.939 31.676 -2.946 31.676 C -3.323 31.676 -3.629 31.371 -3.629 30.993 C -3.629 30.988 -3.63 30.987 -3.63 30.982 L -3.63 13.84 L -0.507 13.84 C -0.505 13.84 -0.503 13.841 -0.501 13.841 C -0.143 13.841 0.15 14.115 0.179 14.466 L 0.179 21.358 L 0.129 24.487 L 4.847 13.84 Z M 64.421 13.84 L 59.703 24.487 L 59.753 21.358 L 59.753 14.466 C 59.723 14.115 59.43 13.841 59.073 13.841 C 59.071 13.841 59.069 13.84 59.067 13.84 L 55.944 13.84 L 55.944 30.982 C 55.944 30.987 55.945 30.988 55.945 30.993 C 55.945 31.371 56.251 31.676 56.628 31.676 C 56.635 31.676 56.64 31.677 56.646 31.678 L 60.056 31.678 L 64.421 21.408 L 64.371 24.537 L 64.371 30.977 C 64.371 30.982 64.372 30.987 64.372 30.993 C 64.372 31.371 64.678 31.676 65.055 31.676 C 65.062 31.676 65.067 31.677 65.073 31.678 L 68.18 31.678 L 68.18 14.496 C 68.165 14.131 67.866 13.841 67.498 13.841 C 67.496 13.841 67.494 13.84 67.492 13.84 Z" fill="#44102c" fill-opacity="1"></path></g></g><g transform=""><path d="M 101.007 376.676 C 101.007 368.736 107.443 362.299 115.385 362.299 L 115.385 362.299 C 123.324 362.299 129.762 368.736 129.762 376.676 L 129.762 376.676 C 129.762 384.617 123.324 391.055 115.385 391.055 L 115.385 391.055 C 107.443 391.055 101.007 384.617 101.007 376.676" fill="none"></path></g><g clip-path="url(#clippath14)"><g transform="matrix(28.7554174 0 0 -28.7554174 101.0064531 376.6770003)"><rect x="-3.5126060489735758" y="-7.602011010975623" width="29.27761361586078" height="20.701351391268624" fill="url(#shading5)"></rect></g></g><g transform=""><path d="M 101.007 232.36 L 247.088 232.36 L 247.088 391.054 L 101.007 391.054 Z" fill="none"></path></g><g clip-path="url(#clippath15)"><g transform="translate(123.5332 373.8981)"><path d="M 0 0 L 0 -0.001 C -0.031 -0.123 -0.108 -0.23 -0.232 -0.235 L -1.577 -0.235 L -1.996 1.565 L -2.255 2.552 L -2.229 2.674 L -2.377 1.989 L -2.873 -0.001 L -2.874 -0.001 C -2.904 -0.123 -2.982 -0.23 -3.105 -0.235 L -4.506 -0.235 L -5.487 5.906 L -4.39 5.906 C -4.279 5.906 -4.186 5.831 -4.161 5.729 L -4.153 5.673 L -4.153 5.672 C -4.153 5.667 -4.153 5.662 -4.152 5.659 L -3.698 2.109 L -3.584 1.243 L -2.751 4.351 L -3.168 5.906 L -2.031 5.906 C -1.901 5.906 -1.824 5.798 -1.795 5.669 L -1.793 5.667 L -1.003 2.084 L -0.84 1.243 L -0.7 2.171 L -0.047 5.906 L 0.929 5.906 C 1.058 5.906 1.162 5.803 1.164 5.674 Z M -6.881 0 L -6.881 -0.001 C -6.911 -0.123 -6.988 -0.23 -7.113 -0.235 L -8.458 -0.235 L -8.875 1.565 L -9.135 2.55 L -9.257 1.989 L -9.754 -0.001 L -9.755 -0.001 C -9.785 -0.123 -9.862 -0.23 -9.987 -0.235 L -11.387 -0.235 L -12.367 5.906 L -11.27 5.906 C -11.16 5.906 -11.066 5.831 -11.041 5.729 L -11.034 5.673 L -11.034 5.672 C -11.034 5.667 -11.034 5.662 -11.033 5.659 L -10.579 2.109 L -10.465 1.243 L -9.63 4.351 L -10.048 5.906 L -8.911 5.906 C -8.782 5.906 -8.704 5.798 -8.675 5.669 C -8.675 5.669 -8.675 5.667 -8.673 5.667 L -7.885 2.084 L -7.72 1.246 L -7.58 2.171 L -6.928 5.906 L -5.952 5.906 C -5.823 5.906 -5.718 5.803 -5.716 5.674 Z M -12.689 2.319 C -12.689 0.173 -13.792 -0.349 -14.825 -0.349 C -15.886 -0.349 -16.989 0.121 -16.989 2.119 L -16.989 5.674 C -16.986 5.8 -16.888 5.9 -16.765 5.906 L -15.669 5.906 L -15.669 2.067 C -15.669 1.232 -15.416 0.798 -14.825 0.798 C -14.269 0.798 -13.991 1.241 -13.991 2.24 L -13.991 5.685 C -13.985 5.805 -13.888 5.9 -13.769 5.906 L -12.689 5.906 Z" fill="#ffffff" fill-opacity="1"></path></g></g><g transform=""><path d="M 121.167 333.544 C 121.167 301.781 146.915 276.034 178.676 276.034 L 178.676 276.034 C 210.438 276.034 236.187 301.781 236.187 333.544 L 236.187 333.544 C 236.187 365.306 210.438 391.055 178.676 391.055 L 178.676 391.055 C 146.915 391.055 121.167 365.306 121.167 333.544" fill="none"></path></g><g clip-path="url(#clippath16)"><g transform="matrix(57.510326 0 0 -57.510326 178.6770619 333.5442134)"><rect x="-3.106869223798175" y="-4.551039870648621" width="14.638936319018605" height="10.350767269168323" fill="url(#shading6)"></rect></g></g><g transform=""><path d="M 101.007 232.36 L 247.088 232.36 L 247.088 391.054 L 101.007 391.054 Z" fill="none"></path></g><g clip-path="url(#clippath17)"><g transform="translate(223.1602 333.5453)"><path d="M 0 0 C 0 -24.569 -19.915 -44.484 -44.484 -44.484 C -69.051 -44.484 -88.966 -24.569 -88.966 0 C -88.966 24.567 -69.051 44.482 -44.484 44.482 C -19.915 44.482 0 24.567 0 0" fill="#44102c" fill-opacity="1"></path></g></g><g transform=""><path d="M 179.092 359.574 C 177.462 359.689 178.747 361.95 178.991 364.969 L 178.991 364.969 C 179.241 367.987 173.153 368.385 174.144 364.423 L 174.144 364.423 C 174.746 362.007 176.368 359.723 173.697 359.104 L 173.697 359.104 C 169.551 358.149 168.857 366.48 171.025 371.259 L 171.025 371.259 C 163.522 366.913 169.142 355.842 166.274 355.666 L 166.274 355.666 C 164.083 355.53 165.509 358.711 164.022 361.139 L 164.022 361.139 C 161.511 365.238 157.567 361.373 159.991 359.18 L 159.991 359.18 C 161.859 357.492 163.173 354.024 161.268 352.395 L 161.268 352.395 C 160.155 351.444 158.949 353.334 156.981 355.224 L 156.981 355.224 C 155.228 356.908 152.871 358.591 149.435 358.267 L 149.435 358.267 C 156.448 353.397 157.639 346.276 155.755 345.392 L 155.755 345.392 C 154.857 344.974 154.154 347.452 151.559 348.387 L 151.559 348.387 C 149.303 349.203 147.994 347.662 148.021 346.121 L 148.021 346.121 C 148.043 344.851 148.972 343.581 151.024 343.63 L 151.024 343.63 C 153.243 343.684 154.597 342.85 153.575 341.55 L 153.575 341.55 C 152.152 339.739 145.195 340.69 141.635 344 L 141.635 344 C 143.398 335.283 153.105 338.08 152.91 334.732 L 152.91 334.732 C 152.829 333.319 151.178 333.597 149.455 333.875 L 149.455 333.875 C 147.752 334.148 145.977 334.422 145.576 333.066 L 145.576 333.066 C 144.763 330.333 147.716 328.193 150.004 329.594 L 150.004 329.594 C 152.054 330.85 153.193 330.799 153.315 329.885 L 153.315 329.885 C 153.634 327.38 146.656 322.825 141.169 324.972 L 141.169 324.972 C 141.589 323.222 151.618 318.171 155.967 323.939 L 155.967 323.939 C 156.629 324.814 157.485 326.556 158.105 328.692 L 158.105 328.692 C 160.553 338.363 171.535 343.292 179.423 340.915 L 179.423 340.915 C 182.634 339.951 183.846 339.034 184.568 338.593 L 184.568 338.593 C 184.568 338.593 185.916 340.676 188.092 341.839 L 188.092 341.839 C 190.553 343.156 193.785 343.565 196.762 341.66 L 196.762 341.66 C 197.039 341.483 193.035 341.225 190.473 339.819 L 190.473 339.819 C 187.831 338.368 186.649 335.009 187.296 333.822 L 187.296 333.822 C 187.722 333.04 187.844 333.301 188.207 333.561 L 188.207 333.561 C 188.394 333.696 188.645 333.831 189.034 333.822 L 189.034 333.822 C 190.183 333.797 191.744 333.266 192.018 330.993 L 192.018 330.993 C 192.171 329.712 190.275 325.807 188.392 327.83 L 188.392 327.83 C 186.975 329.352 185.101 333.398 179.27 334.904 L 179.27 334.904 C 173.928 336.285 170.745 334.061 170.086 331.181 L 170.086 331.181 C 169.682 329.411 171.077 325.088 171.705 320.314 L 171.705 320.314 C 172.383 315.176 170.031 311.78 169.339 310.724 L 169.339 310.724 C 167.566 308.016 167.44 307.758 166.829 305.238 L 166.829 305.238 C 166.051 302.02 166.849 297.031 166.849 297.031 L 166.849 297.031 C 167.794 299.159 170.457 308.417 174.049 307.767 L 174.049 307.767 C 176.429 307.336 173.522 297.372 181.219 295.034 L 181.219 295.034 C 178.391 299.834 178.708 308.032 181.167 308.094 L 181.167 308.094 C 182.803 308.136 181.737 305.762 181.779 302.735 L 181.779 302.735 C 181.815 299.706 187.915 299.886 186.553 303.736 L 186.553 303.736 C 185.724 306.086 183.892 308.204 186.493 309.071 L 186.493 309.071 C 190.53 310.417 191.904 301.86 190.201 296.897 L 190.201 296.897 C 197.255 301.936 191.145 311.77 193.554 313.206 L 193.554 313.206 C 195.056 314.099 194.392 309.683 196.105 307.408 L 196.105 307.408 C 198.994 303.567 203.165 308.525 200.539 310.478 L 200.539 310.478 C 198.519 311.981 196.772 315.216 197.285 315.975 L 197.285 315.975 C 197.595 316.439 198.096 316.65 198.634 316.675 L 198.634 316.675 C 199.172 316.698 199.602 316.408 200.232 315.913 L 200.232 315.913 C 200.943 315.352 202.431 313.707 203.001 313.042 L 203.001 313.042 C 203.574 312.377 207.166 307.741 207.166 307.741 L 207.166 307.741 C 207.166 307.741 206.748 312.818 204.826 316.013 L 204.826 316.013 C 203.627 318.137 202.052 319.425 201.378 320.196 L 201.378 320.196 C 201.098 320.521 201.029 320.882 201.029 320.882 L 201.029 320.882 C 201.029 320.882 200.975 321.146 201.11 321.393 L 201.11 321.393 C 201.197 321.547 201.358 321.803 201.568 321.932 L 201.568 321.932 C 201.774 322.061 201.966 321.968 201.966 321.968 L 201.966 321.968 C 203.24 321.569 204.697 316.733 207.146 320.143 L 207.146 320.143 C 208.709 322.32 204.995 324.703 202.344 326.631 L 202.344 326.631 C 200.612 327.891 197.272 330.094 195.412 331.23 L 195.412 331.23 C 194.059 332.057 191.048 333.434 189.338 335.642 L 189.338 335.642 C 187.65 337.82 195.484 340.69 196.039 339.836 L 196.039 339.836 C 196.621 338.942 196.04 338.451 196.689 338.16 L 196.689 338.16 C 196.974 338.03 197.455 338.412 198.02 338.793 L 198.02 338.793 C 198.726 339.272 199.561 339.75 200.302 339.221 L 200.302 339.221 C 201.802 338.15 202.174 336.286 201.1 335.232 L 201.1 335.232 C 200.405 334.55 199.592 334.749 199.017 334.948 L 199.017 334.948 C 198.524 335.119 198.206 335.29 198.285 334.906 L 198.285 334.906 C 198.387 334.427 201.242 331.453 203.107 330.227 L 203.107 330.227 C 208.41 326.739 211.777 327.164 216.413 326.303 L 216.413 326.303 C 214.294 329.316 212.098 330.344 210.159 331.041 L 210.159 331.041 C 207.13 332.124 204.535 333.309 204.658 334.7 L 204.658 334.7 C 204.712 335.307 205.834 335.124 207.173 334.941 L 207.173 334.941 C 208.991 334.693 211.208 334.445 211.686 336.176 L 211.686 336.176 C 212.982 340.884 209.793 340.154 208.097 339.723 L 208.097 339.723 C 205.768 339.131 204.065 338.618 203.814 339.696 L 203.814 339.696 C 203.368 341.722 214.02 341.836 212.82 351.119 L 212.82 351.119 C 208.766 346.048 201.649 345.559 201.134 347.107 L 201.134 347.107 C 200.542 348.881 202.558 348.639 204.772 349.893 L 204.772 349.893 C 207.645 351.52 204.201 356.975 201.652 354.464 L 201.652 354.464 C 199.769 352.607 198.643 351.926 197.756 352.52 L 197.756 352.52 C 196.872 353.107 196.366 354.653 199.024 357.975 L 199.024 357.975 C 200.533 359.865 201.787 362.145 203.683 362.544 L 203.683 362.544 C 199.254 363.854 196.736 361.769 194.986 359.685 L 194.986 359.685 C 193.452 357.86 192.508 356.034 191.385 356.489 L 191.385 356.489 C 188.835 357.523 192.264 359.368 192.511 361.793 L 192.511 361.793 C 192.785 364.436 189.436 365.858 188.297 363.832 L 188.297 363.832 C 187.159 361.802 189.724 358.233 186.207 359.225 L 186.207 359.225 C 183.881 359.877 187.512 368.939 180.074 371.995 L 180.074 371.995 C 182.432 366.949 181.547 359.403 179.092 359.574 M 168.452 352.327 C 168.452 352.327 177.926 356.107 184.118 350.418 L 184.118 350.418 C 187.891 346.945 189.915 343.772 189.915 343.772 L 189.915 343.772 C 189.915 343.772 186.011 342.999 184.043 340.591 L 184.043 340.591 C 182.466 341.598 179.986 343.084 176.27 343.487 L 176.27 343.487 C 170.745 344.088 161.401 339.774 158.738 335.625 L 158.738 335.625 C 157.568 338.827 160.055 341.682 160.24 341.866 L 160.24 341.866 C 160.24 341.866 166.679 348.342 176.801 347.388 L 176.801 347.388 C 180.89 347.004 182.794 345.605 182.794 345.605 L 182.794 345.605 C 182.794 345.605 181.843 349.433 175.963 349.965 L 175.963 349.965 C 169.26 350.575 164.197 346.768 164.197 346.768 L 164.197 346.768 C 164.396 349.498 168.452 352.327 168.452 352.327 M 161.44 325.236 C 161.021 322.259 159.799 320.485 158.531 319.334 L 158.531 319.334 C 153.296 314.581 148.732 313.646 145.959 313.197 L 145.959 313.197 C 146.981 311.648 157.216 312.119 159.858 315.251 L 159.858 315.251 C 160.856 316.429 161.572 315.539 160.831 314.35 L 160.831 314.35 C 160.088 313.163 155.616 311.728 158.63 309.229 L 158.63 309.229 C 160.21 307.917 163.418 310.036 165.366 312.791 L 165.366 312.791 C 165.945 313.61 168.452 317.825 166.498 323.329 L 166.498 323.329 C 165.659 325.699 164.724 329.846 165.224 332.2 L 165.224 332.2 C 163.702 331.586 161.755 327.478 161.44 325.236" fill="none"></path></g><g clip-path="url(#clippath18)"><g transform="matrix(38.0537098 0 0 -38.0537098 178.7909257 333.5150408)"><rect x="-4.69838359097383" y="-6.878723797909448" width="22.12372997073731" height="15.643047764031667" fill="url(#shading7)"></rect></g></g><g transform=""><path d="M 154.027 333.543 C 154.027 319.93 165.06 308.893 178.676 308.893 L 178.676 308.893 C 192.293 308.893 203.328 319.93 203.328 333.543 L 203.328 333.543 C 203.328 347.158 192.293 358.195 178.676 358.195 L 178.676 358.195 C 165.06 358.195 154.027 347.158 154.027 333.543" fill="none"></path></g><g clip-path="url(#clippath19)"><g transform="matrix(35.952049 0 0 -35.952049 188.2058344 341.001558)"><rect x="-5.23491260261689" y="-7.072599450451349" width="23.41702415904028" height="16.557498572612648" fill="url(#shading8)"></rect></g></g><g transform=""><path d="M 168.452 352.327 C 168.452 352.327 164.396 349.498 164.197 346.768 L 164.197 346.768 C 164.197 346.768 169.26 350.575 175.963 349.965 L 175.963 349.965 C 181.843 349.433 182.794 345.605 182.794 345.605 L 182.794 345.605 C 182.794 345.605 180.89 347.004 176.801 347.388 L 176.801 347.388 C 166.679 348.342 160.24 341.866 160.24 341.866 L 160.24 341.866 C 160.055 341.682 157.568 338.827 158.738 335.625 L 158.738 335.625 C 161.401 339.774 170.745 344.088 176.27 343.487 L 176.27 343.487 C 179.986 343.084 182.466 341.598 184.043 340.591 L 184.043 340.591 C 186.011 342.999 189.915 343.772 189.915 343.772 L 189.915 343.772 C 189.915 343.772 187.891 346.945 184.118 350.418 L 184.118 350.418 C 181.459 352.861 178.195 353.559 175.335 353.559 L 175.335 353.559 C 171.536 353.559 168.452 352.327 168.452 352.327 M 188.092 341.839 C 185.916 340.676 184.568 338.593 184.568 338.593 L 184.568 338.593 C 183.846 339.034 182.634 339.951 179.423 340.915 L 179.423 340.915 C 171.535 343.292 160.553 338.363 158.105 328.692 L 158.105 328.692 C 157.485 326.556 156.629 324.814 155.967 323.939 L 155.967 323.939 C 156.658 322.307 157.521 320.764 158.531 319.335 L 158.531 319.335 C 159.799 320.485 161.021 322.259 161.44 325.236 L 161.44 325.236 C 161.755 327.478 163.702 331.586 165.224 332.2 L 165.224 332.2 C 164.724 329.846 165.659 325.699 166.498 323.329 L 166.498 323.329 C 168.452 317.825 165.945 313.61 165.366 312.791 L 165.366 312.791 C 166.618 311.988 167.947 311.295 169.339 310.724 L 169.339 310.724 C 170.032 311.78 172.383 315.177 171.705 320.314 L 171.705 320.314 C 171.077 325.088 169.682 329.411 170.086 331.181 L 170.086 331.181 C 170.745 334.061 173.928 336.285 179.27 334.904 L 179.27 334.904 C 185.101 333.398 186.975 329.352 188.392 327.83 L 188.392 327.83 C 190.275 325.807 192.171 329.712 192.018 330.993 L 192.018 330.993 C 191.744 333.266 190.183 333.797 189.034 333.822 L 189.034 333.822 C 188.645 333.831 188.394 333.696 188.207 333.561 L 188.207 333.561 C 187.844 333.301 187.722 333.04 187.296 333.822 L 187.296 333.822 C 186.649 335.009 187.831 338.368 190.473 339.819 L 190.473 339.819 C 193.035 341.225 197.039 341.483 196.762 341.66 L 196.762 341.66 C 195.327 342.579 193.832 342.959 192.393 342.959 L 192.393 342.959 C 190.848 342.959 189.366 342.52 188.092 341.839 M 189.338 335.642 C 191.048 333.434 194.059 332.057 195.412 331.23 L 195.412 331.23 C 197.272 330.094 200.611 327.892 202.344 326.631 L 202.344 326.631 C 202.684 327.797 202.94 328.998 203.105 330.228 L 203.105 330.228 C 201.241 331.455 198.387 334.427 198.285 334.906 L 198.285 334.906 C 198.206 335.29 198.525 335.119 199.017 334.948 L 199.017 334.948 C 199.592 334.749 200.405 334.55 201.1 335.232 L 201.1 335.232 C 202.174 336.286 201.802 338.15 200.302 339.221 L 200.302 339.221 C 199.561 339.75 198.726 339.272 198.02 338.793 L 198.02 338.793 C 197.455 338.412 196.974 338.03 196.689 338.16 L 196.689 338.16 C 196.04 338.451 196.621 338.942 196.039 339.836 L 196.039 339.836 C 195.971 339.942 195.79 339.99 195.529 339.99 L 195.529 339.99 C 193.69 339.99 187.859 337.551 189.338 335.642" fill="none"></path></g><g clip-path="url(#clippath20)"><g transform="matrix(35.9522186 0 0 -35.9522186 188.2060606 341.001558)"><rect x="-5.23489419926925" y="-7.072566086366642" width="23.41691369221926" height="16.557420464727592" fill="url(#shading9)"></rect></g></g><g transform="translate(203.5813 299.3199)"><path d="M 0 0 L 0 1.64 L 0.028 2.144 L 0.008 2.144 L -0.533 0 L -0.979 0 L -1.488 2.139 L -1.506 2.139 L -1.472 1.604 L -1.472 0 L -1.879 0 L -1.879 2.877 L -1.331 2.877 L -0.751 0.456 L -0.74 0.456 L -0.117 2.877 L 0.406 2.877 L 0.406 0 Z M -2.827 2.51 L -2.827 0 L -3.233 0 L -3.233 2.51 L -3.913 2.51 L -3.913 2.877 L -2.147 2.877 L -2.147 2.51 Z" fill="#ffffff" fill-opacity="1"></path></g><g transform=""><text transform="matrix(10 0 0 10 36.0499 551.4756) scale(1, -1)" xml:space="preserve"><tspan font-family="g_d0_f3" font-size="1px" y="0" x="0 0.266" fill="#2c2e35"></tspan><tspan font-family="g_d0_f3" font-size="1px" y="0" x="0.491 0.649 1.059 1.618 2.037 2.217 2.554 3.144 3.652 4.242 4.422 4.889 5.479 5.8159 6.4059 6.9599 7.4659 7.6459 8.0459 8.4569 8.8569 9.2669 9.6859" fill="#2c2e35"></tspan></text><text transform="matrix(18 0 0 18 36 493.0781) scale(1, -1)" xml:space="preserve"><tspan font-family="g_d0_f2" font-size="1px" y="0" x="0 0.517 1.147 1.744 2.222 2.485 3.082 3.548 4.145 4.5719 5.1349 5.5729" fill="#2c2e35"></tspan><tspan font-family="g_d0_f2" font-size="1px" y="1.2" x="0 0.517 1.114 1.677 2.407 2.895 3.158 3.788 4.385 4.84 5.437 5.7" fill="#2c2e35"></tspan><tspan y="1.2" x="6.188" font-family="g_d0_f1" font-size="1px" fill="#2c2e35"></tspan><tspan font-family="g_d0_f1" font-size="1px" y="2.4" x="0 0.392 0.941 1.347 1.527 1.981 2.56 2.879 3.458 4" fill="#2c2e35"></tspan><tspan font-family="g_d0_f1" font-size="1px" y="3.6" x="0 0.353 0.819 1.173 1.579 1.943 2.335" fill="#2c2e35"></tspan></text><path d="M 0 0 L 841.89 0 L 841.89 595.276 L 0 595.276 Z" fill="none"></path></g><g clip-path="url(#clippath21)"><g transform="translate(770.5701 309.7532)"><path d="M 0 0 C 13.129 0 23.771 10.643 23.771 23.771 C 23.771 36.9 13.129 47.543 0 47.543 C -13.129 47.543 -23.771 36.9 -23.771 23.771 C -23.771 10.643 -13.129 0 0 0" fill="#41122b" fill-opacity="1"></path></g></g><g clip-path="url(#clippath21)"><g transform="translate(770.5701 309.7532)"><path d="M 0 0 C 13.129 0 23.771 10.643 23.771 23.771 C 23.771 36.9 13.129 47.543 0 47.543 C -13.129 47.543 -23.771 36.9 -23.771 23.771 C -23.771 10.643 -13.129 0 0 0 Z" fill="none" stroke="#d8d9da" stroke-opacity="1" stroke-miterlimit="4" stroke-linecap="" stroke-linejoin="" stroke-width="1.44px" stroke-dasharray="" stroke-dashoffset="0px"></path></g></g><g clip-path="url(#clippath21)"><g transform="translate(348.4913 309.7532)"><path d="M 0 0 C 13.129 0 23.771 10.643 23.771 23.771 C 23.771 36.9 13.129 47.543 0 47.543 C -13.129 47.543 -23.771 36.9 -23.771 23.771 C -23.771 10.643 -13.129 0 0 0" fill="#dedacb" fill-opacity="1"></path></g></g><g clip-path="url(#clippath21)"><g transform="translate(348.4913 309.7532)"><path d="M 0 0 C 13.129 0 23.771 10.643 23.771 23.771 C 23.771 36.9 13.129 47.543 0 47.543 C -13.129 47.543 -23.771 36.9 -23.771 23.771 C -23.771 10.643 -13.129 0 0 0 Z" fill="none" stroke="#d8d9da" stroke-opacity="1" stroke-miterlimit="4" stroke-linecap="" stroke-linejoin="" stroke-width="1.44px" stroke-dasharray="" stroke-dashoffset="0px"></path></g></g><g clip-path="url(#clippath21)"><g transform="translate(418.8378 309.7532)"><path d="M 0 0 C 13.129 0 23.771 10.643 23.771 23.771 C 23.771 36.9 13.129 47.543 0 47.543 C -13.129 47.543 -23.771 36.9 -23.771 23.771 C -23.771 10.643 -13.129 0 0 0" fill="#a7a287" fill-opacity="1"></path></g></g><g clip-path="url(#clippath21)"><g transform="translate(418.8378 309.7532)"><path d="M 0 0 C 13.129 0 23.771 10.643 23.771 23.771 C 23.771 36.9 13.129 47.543 0 47.543 C -13.129 47.543 -23.771 36.9 -23.771 23.771 C -23.771 10.643 -13.129 0 0 0 Z" fill="none" stroke="#d8d9da" stroke-opacity="1" stroke-miterlimit="4" stroke-linecap="" stroke-linejoin="" stroke-width="1.44px" stroke-dasharray="" stroke-dashoffset="0px"></path></g></g><g clip-path="url(#clippath21)"><g transform="translate(489.1843 309.7532)"><path d="M 0 0 C 13.129 0 23.771 10.643 23.771 23.771 C 23.771 36.9 13.129 47.543 0 47.543 C -13.129 47.543 -23.771 36.9 -23.771 23.771 C -23.771 10.643 -13.129 0 0 0" fill="#c92b5a" fill-opacity="1"></path></g></g><g clip-path="url(#clippath21)"><g transform="translate(489.1843 309.7532)"><path d="M 0 0 C 13.129 0 23.771 10.643 23.771 23.771 C 23.771 36.9 13.129 47.543 0 47.543 C -13.129 47.543 -23.771 36.9 -23.771 23.771 C -23.771 10.643 -13.129 0 0 0 Z" fill="none" stroke="#d8d9da" stroke-opacity="1" stroke-miterlimit="4" stroke-linecap="" stroke-linejoin="" stroke-width="1.44px" stroke-dasharray="" stroke-dashoffset="0px"></path></g></g><g clip-path="url(#clippath21)"><g transform="translate(559.5307 309.7532)"><path d="M 0 0 C 13.129 0 23.771 10.643 23.771 23.771 C 23.771 36.9 13.129 47.543 0 47.543 C -13.129 47.543 -23.771 36.9 -23.771 23.771 C -23.771 10.643 -13.129 0 0 0" fill="#b62c4a" fill-opacity="1"></path></g></g><g clip-path="url(#clippath21)"><g transform="translate(559.5307 309.7532)"><path d="M 0 0 C 13.129 0 23.771 10.643 23.771 23.771 C 23.771 36.9 13.129 47.543 0 47.543 C -13.129 47.543 -23.771 36.9 -23.771 23.771 C -23.771 10.643 -13.129 0 0 0 Z" fill="none" stroke="#d8d9da" stroke-opacity="1" stroke-miterlimit="4" stroke-linecap="" stroke-linejoin="" stroke-width="1.44px" stroke-dasharray="" stroke-dashoffset="0px"></path></g></g><g clip-path="url(#clippath21)"><g transform="translate(629.8772 309.7532)"><path d="M 0 0 C 13.129 0 23.771 10.643 23.771 23.771 C 23.771 36.9 13.129 47.543 0 47.543 C -13.129 47.543 -23.771 36.9 -23.771 23.771 C -23.771 10.643 -13.129 0 0 0" fill="#842144" fill-opacity="1"></path></g></g><g clip-path="url(#clippath21)"><g transform="translate(629.8772 309.7532)"><path d="M 0 0 C 13.129 0 23.771 10.643 23.771 23.771 C 23.771 36.9 13.129 47.543 0 47.543 C -13.129 47.543 -23.771 36.9 -23.771 23.771 C -23.771 10.643 -13.129 0 0 0 Z" fill="none" stroke="#d8d9da" stroke-opacity="1" stroke-miterlimit="4" stroke-linecap="" stroke-linejoin="" stroke-width="1.44px" stroke-dasharray="" stroke-dashoffset="0px"></path></g></g><g clip-path="url(#clippath21)"><g transform="translate(700.2236 309.7532)"><path d="M 0 0 C 13.129 0 23.771 10.643 23.771 23.771 C 23.771 36.9 13.129 47.543 0 47.543 C -13.129 47.543 -23.771 36.9 -23.771 23.771 C -23.771 10.643 -13.129 0 0 0" fill="#631741" fill-opacity="1"></path></g></g><g clip-path="url(#clippath21)"><g transform="translate(700.2236 309.7532)"><path d="M 0 0 C 13.129 0 23.771 10.643 23.771 23.771 C 23.771 36.9 13.129 47.543 0 47.543 C -13.129 47.543 -23.771 36.9 -23.771 23.771 C -23.771 10.643 -13.129 0 0 0 Z" fill="none" stroke="#d8d9da" stroke-opacity="1" stroke-miterlimit="4" stroke-linecap="" stroke-linejoin="" stroke-width="1.44px" stroke-dasharray="" stroke-dashoffset="0px"></path></g></g><g transform=""><text transform="matrix(10 0 0 10 540.1917 284.452) scale(1, -1)" xml:space="preserve"><tspan font-family="g_d0_f2" font-size="1px" y="0" x="0 0.527 1.267 1.81 2.365" fill="#2c2e35"></tspan><tspan font-family="g_d0_f2" font-size="1px" y="1.2" x="0 0.419 0.76 1.019 1.204 1.547 2.072 2.597 2.856 3.041 3.433 3.958 4.217 4.402" fill="#2c2e35"></tspan><tspan font-family="g_d0_f2" font-size="1px" y="3.6" x="0 0.555 1.117 1.635" fill="#2c2e35"></tspan><tspan font-family="g_d0_f2" font-size="1px" y="4.8" x="0 0.343 0.754 1.078 1.337 1.522 1.995 2.428 2.687 2.872 3.264" fill="#2c2e35"></tspan><tspan font-family="g_d0_f2" font-size="1px" y="0" x="7.035 7.562 8.302 8.845 9.4" fill="#2c2e35"></tspan><tspan font-family="g_d0_f2" font-size="1px" y="1.2" x="7.035 7.508 7.965 8.224 8.409 8.752 9.277 9.802 10.061 10.246 10.736 11.261 11.52 11.705 12.138" fill="#2c2e35"></tspan><tspan font-family="g_d0_f2" font-size="1px" y="3.6" x="7.035 7.59 8.152 8.67" fill="#2c2e35"></tspan><tspan font-family="g_d0_f2" font-size="1px" y="4.8" x="7.035 7.378 7.797 8.121 8.38 8.565 8.984 9.417 9.676 9.861 10.2719" fill="#2c2e35"></tspan><tspan font-family="g_d0_f2" font-size="1px" y="0" x="14.07 14.597 15.337 15.88 16.435" fill="#2c2e35"></tspan><tspan font-family="g_d0_f2" font-size="1px" y="1.2" x="14.07 14.543 15.028 15.287 15.472 15.815 16.34 16.865 17.124 17.309 17.782 18.239 18.498 18.683 19.102" fill="#2c2e35"></tspan><tspan font-family="g_d0_f2" font-size="1px" y="3.6" x="14.07 14.625 15.187 15.705" fill="#2c2e35"></tspan><tspan font-family="g_d0_f2" font-size="1px" y="4.8" x="14.07 14.413 14.938 15.262 15.521 15.706 16.049 16.39 16.649 16.834 17.324" fill="#2c2e35"></tspan><tspan font-family="g_d0_f2" font-size="1px" y="0" x="21.105 21.632 22.372 22.915 23.47" fill="#2c2e35"></tspan><tspan font-family="g_d0_f2" font-size="1px" y="1.2" x="21.105 21.562 22.05 22.309 22.494 22.837 23.362 23.887 24.146 24.331 24.788 25.129 25.388 25.573 26.03" fill="#2c2e35"></tspan><tspan font-family="g_d0_f2" font-size="1px" y="3.6" x="21.105 21.66 22.222 22.74" fill="#2c2e35"></tspan><tspan font-family="g_d0_f2" font-size="1px" y="4.8" x="21.105 21.497 21.93 22.189 22.374 22.864 23.123 23.308 23.781" fill="#2c2e35"></tspan><tspan font-family="g_d0_f2" font-size="1px" y="0" x="-7.034 -6.507 -5.767 -5.224 -4.669" fill="#2c2e35"></tspan><tspan font-family="g_d0_f2" font-size="1px" y="1.2" x="-7.034 -6.601 -6.144 -5.885 -5.7 -5.357 -4.832 -4.307 -4.048 -3.863 -3.406 -2.881 -2.622 -2.437" fill="#2c2e35"></tspan><tspan font-family="g_d0_f2" font-size="1px" y="3.6" x="-7.034 -6.479 -5.917 -5.399" fill="#2c2e35"></tspan><tspan font-family="g_d0_f2" font-size="1px" y="4.8" x="-7.034 -6.691 -6.206 -5.882 -5.623 -5.438 -5.019 -4.529 -4.27 -4.085 -3.6" fill="#2c2e35"></tspan><tspan font-family="g_d0_f2" font-size="1px" y="0" x="-14.069 -13.542 -12.802 -12.259 -11.704" fill="#2c2e35"></tspan><tspan font-family="g_d0_f2" font-size="1px" y="1.2" x="-14.069 -13.544 -13.285 -13.1 -12.575 -12.316 -12.131 -11.698 -11.225 -10.966 -10.781 -10.308" fill="#2c2e35"></tspan><tspan font-family="g_d0_f2" font-size="1px" y="3.6" x="-14.069 -13.514 -12.952 -12.434" fill="#2c2e35"></tspan><tspan font-family="g_d0_f2" font-size="1px" y="4.8" x="-14.069 -13.726 -13.269 -12.784 -12.525 -12.34 -11.997 -11.54 -11.1991 -10.9401 -10.7551 -10.4121 -9.9931" fill="#2c2e35"></tspan><tspan font-family="g_d0_f2" font-size="1px" y="0" x="-21.104 -20.577 -19.837 -19.294 -18.739" fill="#2c2e35"></tspan><tspan font-family="g_d0_f2" font-size="1px" y="1.2" x="-21.104 -20.579 -20.32 -20.135 -19.61 -19.351 -19.166 -18.823 -18.499 -18.24 -18.055 -17.712" fill="#2c2e35"></tspan><tspan font-family="g_d0_f2" font-size="1px" y="3.6" x="-21.104 -20.549 -19.987 -19.469" fill="#2c2e35"></tspan><tspan font-family="g_d0_f2" font-size="1px" y="4.8" x="-21.104 -20.671 -20.328 -19.871 -19.612 -19.427 -18.994 -18.651 -18.178 -17.919 -17.734 -17.391 -16.906" fill="#2c2e35"></tspan></text></g></g></svg>