<svg xmlns="http://www.w3.org/2000/svg" xmlns:xlink="http://www.w3.org/1999/xlink" xmlns:svg="http://www.w3.org/2000/svg" version="1.1" width="572px" height="576px" preserveAspectRatio="none" viewBox="180.5 222 143 144"><defs><clipPath id="clippath0" transform=""><rect x="0" y="0" width="841.89" height="595.276" clip-rule="nonzero"></rect></clipPath><clipPath id="clippath1" transform="" clip-path="url(#clippath0)"><path d="M 678.537 548.212 L 805.89 548.212 L 805.89 557.276 L 678.537 557.276 Z" fill="none" clip-rule="nonzero"></path></clipPath><clipPath id="clippath2" transform=""><path d="M 174.047 171.289 L 320.128 171.289 L 320.128 372.756 L 174.047 372.756 Z" fill="none" clip-rule="nonzero"></path></clipPath><clipPath id="clippath3" transform=""><path d="M 0 0 L 841.89 0 L 841.89 595.276 L 0 595.276 Z" fill="none" clip-rule="nonzero"></path></clipPath><clipPath id="clippath4" transform=""><path d="M 0 0 L 841.89 0 L 841.89 595.276 L 0 595.276 Z" fill="none" clip-rule="nonzero"></path></clipPath><clipPath id="clippath5" transform=""><path d="M 0 0 L 841.89 0 L 841.89 595.276 L 0 595.276 Z" fill="none" clip-rule="nonzero"></path></clipPath></defs><g transform="matrix(1 0 0 -1 0 595.276)"><g transform=""></g><g clip-path="url(#clippath0)"><g transform=""><path d="M 678.537 548.212 L 805.89 548.212 L 805.89 557.276 L 678.537 557.276 Z" fill="none"></path></g></g><g clip-path="url(#clippath1)"><g transform="translate(722.4628 557.1514)"><path d="M 0 0 L -0.788 0 L -2.166 -6.22 L -2.34 -7.183 L -2.389 -7.183 L -2.613 -6.283 L -4.038 -0.274 C -4.038 -0.272 -4.039 -0.271 -4.039 -0.27 C -4.071 -0.116 -4.208 0 -4.371 0 C -4.373 0 -4.376 0 -4.378 0 L -5.357 0 L -4.786 -2.21 L -5.94 -6.245 L -6.214 -7.183 L -6.263 -7.183 L -6.425 -6.245 L -7.47 -0.27 C -7.502 -0.116 -7.638 0 -7.802 0 C -7.804 0 -7.807 0 -7.809 0 L -8.784 0 L -7.108 -8.778 L -5.829 -8.778 C -5.828 -8.778 -5.828 -8.778 -5.827 -8.778 C -5.669 -8.778 -5.536 -8.671 -5.498 -8.525 L -4.488 -4.867 L -4.277 -4.13 L -4.239 -4.13 L -4.066 -4.892 L -3.134 -8.778 L -1.878 -8.778 C -1.878 -8.778 -1.877 -8.778 -1.877 -8.778 C -1.726 -8.778 -1.597 -8.68 -1.553 -8.544 L 0.338 -0.34 C 0.339 -0.339 0.339 -0.339 0.339 -0.339 C 0.381 -0.152 0.187 0 0 0 M 9.971 -4.408 L 9.337 -4.408 L 9.337 -1.105 L 10.182 -1.105 C 11.001 -1.105 11.374 -1.664 11.374 -2.781 C 11.374 -3.886 10.852 -4.408 9.971 -4.408 M 12.417 -6.63 L 11.535 -5.029 C 12.28 -4.569 12.665 -3.688 12.665 -2.719 C 12.665 -0.869 11.721 0 10.368 0 L 8.434 0 C 8.248 0 8.098 -0.15 8.096 -0.335 L 8.096 -8.778 L 8.997 -8.778 C 8.997 -8.778 8.998 -8.778 8.999 -8.778 C 9.185 -8.778 9.337 -8.627 9.337 -8.44 C 9.337 -8.437 9.337 -8.434 9.337 -8.432 L 9.337 -5.451 L 9.809 -5.451 C 10.033 -5.451 10.256 -5.451 10.405 -5.414 L 11.374 -7.35 C 11.881 -8.366 12.681 -8.831 13.377 -8.917 L 13.741 -7.932 C 13.061 -7.572 12.702 -7.138 12.417 -6.63 M 15.668 -7.648 L 15.668 0 L 14.765 0 C 14.58 0 14.43 -0.148 14.426 -0.333 L 14.426 -8.778 L 17.957 -8.778 L 18.374 -7.648 Z M 21.168 -7.673 L 20.274 -7.673 L 20.274 -1.105 L 20.995 -1.105 C 22.509 -1.105 23.44 -2.247 23.44 -4.495 C 23.44 -6.556 22.621 -7.673 21.168 -7.673 M 21.019 0 L 19.384 0 C 19.197 0 19.045 -0.152 19.045 -0.339 L 19.045 -8.442 C 19.046 -8.628 19.197 -8.778 19.382 -8.778 L 21.069 -8.778 C 23.292 -8.778 24.682 -7.4 24.682 -4.358 C 24.682 -1.465 23.155 0 21.019 0 M 3.788 -0.944 C 2.409 -0.944 1.751 -2.409 1.751 -4.358 C 1.751 -6.32 2.459 -7.835 3.813 -7.835 C 5.265 -7.835 5.874 -6.37 5.874 -4.383 C 5.874 -2.334 5.129 -0.944 3.788 -0.944 M 3.738 -8.927 C 1.615 -8.927 0.497 -7.152 0.497 -4.371 C 0.497 -1.564 1.826 0.124 3.912 0.124 C 6.122 0.124 7.153 -1.813 7.153 -4.395 C 7.153 -7.164 5.911 -8.927 3.738 -8.927 M -15.118 -7.673 L -16.012 -7.673 L -16.012 -1.105 L -15.292 -1.105 C -13.777 -1.105 -12.846 -2.247 -12.846 -4.495 C -12.846 -6.556 -13.666 -7.673 -15.118 -7.673 M -15.267 0 L -16.903 0 C -17.09 0 -17.241 -0.152 -17.241 -0.339 L -17.241 -8.442 C -17.24 -8.628 -17.09 -8.778 -16.904 -8.778 L -15.218 -8.778 C -12.995 -8.778 -11.604 -7.4 -11.604 -4.358 C -11.604 -1.465 -13.132 0 -15.267 0 M -18.126 -7.674 L -18.126 -7.673 L -21.032 -7.673 L -21.032 -4.892 L -18.897 -4.892 L -18.512 -3.849 L -21.032 -3.849 L -21.032 -1.093 L -18.732 -1.093 L -18.328 0 L -22.274 0 L -22.274 -8.778 L -18.534 -8.778 Z M -25.472 -8.778 C -25.301 -8.762 -25.168 -8.619 -25.167 -8.444 L -25.167 -1.117 L -23.417 -1.117 C -23.237 -1.11 -23.093 -0.962 -23.093 -0.78 C -23.093 -0.777 -23.093 -0.775 -23.093 -0.773 L -23.093 0 L -28.072 0 L -28.482 -1.11 L -28.482 -1.117 L -26.408 -1.117 L -26.408 -8.778 Z M -39.298 0 C -39.481 -0.004 -39.629 -0.153 -39.63 -0.338 L -39.63 -5.401 C -39.63 -7.239 -40.313 -7.835 -41.157 -7.835 C -41.989 -7.835 -42.672 -7.313 -42.672 -5.687 L -42.672 0 L -43.599 0 C -43.78 -0.006 -43.926 -0.155 -43.926 -0.338 C -43.926 -0.338 -43.926 -0.339 -43.926 -0.339 L -43.926 -5.649 C -43.926 -8.294 -42.51 -8.94 -41.157 -8.94 C -39.878 -8.94 -38.425 -8.22 -38.425 -5.339 L -38.425 0 Z M -32.145 -8.778 C -31.96 -8.778 -31.811 -8.631 -31.806 -8.448 L -31.806 0 L -32.694 0 L -32.697 0 C -32.883 0 -33.035 -0.152 -33.035 -0.339 C -33.035 -0.342 -33.035 -0.345 -33.036 -0.348 L -33.036 -5.016 L -33.011 -6.506 L -35.842 0 L -36.893 0 L -36.895 0 C -37.076 0 -37.223 -0.142 -37.232 -0.321 L -37.232 -8.778 L -36.331 -8.778 C -36.331 -8.778 -36.33 -8.778 -36.329 -8.778 C -36.143 -8.778 -35.991 -8.627 -35.991 -8.44 L -35.991 -3.737 L -36.028 -2.297 L -33.16 -8.778 L -32.147 -8.778 C -32.146 -8.778 -32.145 -8.778 -32.145 -8.778 M -29.591 -8.778 C -29.415 -8.778 -29.271 -8.645 -29.254 -8.474 L -29.254 0 L -30.158 0 C -30.344 -0.001 -30.494 -0.15 -30.496 -0.335 L -30.496 -8.778 L -29.592 -8.778 C -29.592 -8.778 -29.591 -8.778 -29.591 -8.778 M 49.093 -7.144 L 49.093 -7.132 L 46.297 -7.132 L 46.297 -5.144 L 47.978 -5.144 L 48.548 -3.604 L 46.297 -3.604 L 46.297 -1.653 L 48.394 -1.653 L 49.004 0 L 44.765 0 C 44.762 -0.001 44.759 -0.001 44.756 -0.001 C 44.581 -0.001 44.438 -0.135 44.421 -0.305 L 44.421 -8.784 L 48.486 -8.784 Z M 39.889 -4.274 L 39.566 -4.274 L 39.566 -1.665 L 40.1 -1.665 C 40.771 -1.665 40.957 -2.224 40.957 -2.982 C 40.957 -3.678 40.684 -4.274 39.889 -4.274 M 44.076 -7.46 C 43.264 -6.966 42.857 -6.521 42.535 -6.088 L 41.839 -5.157 C 42.448 -4.697 42.896 -3.864 42.896 -2.933 C 42.896 -0.945 41.79 0 40.286 0 L 38.023 0 C 38.02 -0.001 38.017 -0.001 38.014 -0.001 C 37.828 -0.001 37.678 -0.151 37.677 -0.337 L 37.677 -8.784 L 39.226 -8.784 C 39.227 -8.784 39.227 -8.784 39.229 -8.784 C 39.414 -8.784 39.565 -8.634 39.565 -8.448 C 39.565 -8.445 39.566 -8.443 39.566 -8.441 L 39.566 -5.753 L 40.175 -5.753 L 40.796 -6.896 C 41.353 -7.913 42.264 -8.824 43.53 -8.939 Z M 54.823 0 L 54.212 -1.653 L 56.049 -1.653 L 56.049 -8.784 L 57.597 -8.784 C 57.598 -8.784 57.599 -8.784 57.6 -8.784 C 57.786 -8.784 57.936 -8.634 57.936 -8.448 C 57.936 -8.442 57.937 -8.437 57.938 -8.432 L 57.938 -1.653 L 59.535 -1.653 C 59.54 -1.652 59.545 -1.651 59.551 -1.651 C 59.737 -1.651 59.888 -1.501 59.888 -1.315 C 59.888 -1.312 59.888 -1.31 59.888 -1.307 L 59.888 0 Z M 65.073 -7.12 L 62.303 -7.12 L 62.303 0 L 60.772 0 C 60.769 -0.001 60.766 -0.001 60.763 -0.001 C 60.577 -0.001 60.427 -0.151 60.427 -0.337 L 60.427 -8.784 L 64.458 -8.784 Z M 67.171 -8.784 C 67.357 -8.784 67.507 -8.634 67.508 -8.449 L 67.508 0 L 65.975 0 C 65.972 -0.001 65.97 -0.001 65.967 -0.001 C 65.791 -0.001 65.647 -0.136 65.632 -0.308 L 65.632 -8.784 L 67.168 -8.784 C 67.169 -8.784 67.17 -8.784 67.171 -8.784 M 51.25 -2.39 C 51.25 -2.017 51.436 -1.57 52.007 -1.57 C 52.513 -1.57 52.795 -1.632 53.279 -1.78 C 53.442 -1.82 53.611 -1.732 53.672 -1.573 L 54.095 -0.452 C 53.138 0.045 52.616 0.107 51.871 0.107 C 50.852 0.107 49.386 -0.688 49.386 -2.353 C 49.386 -5.036 52.43 -4.925 52.43 -6.155 C 52.43 -6.515 52.219 -7.149 51.498 -7.149 C 50.953 -7.149 50.575 -7.069 50.038 -6.842 C 50.035 -6.841 50.033 -6.841 50.03 -6.84 C 49.855 -6.776 49.662 -6.867 49.599 -7.041 C 49.596 -7.048 49.593 -7.053 49.591 -7.057 L 49.187 -8.155 C 49.808 -8.602 50.467 -8.888 51.523 -8.888 C 52.79 -8.888 54.343 -8.055 54.343 -6.13 C 54.343 -3.67 51.25 -3.384 51.25 -2.39 M 35.471 -8.449 C 35.471 -8.448 35.471 -8.447 35.472 -8.446 L 37.136 -0.333 C 37.134 -0.149 36.984 0 36.799 0 L 35.402 0 L 34.471 -5.343 L 34.26 -6.734 L 34.27 -6.67 L 34.036 -5.467 L 32.906 -0.345 C 32.906 -0.342 32.904 -0.34 32.904 -0.337 C 32.863 -0.156 32.753 0 32.567 0 L 30.942 0 L 31.539 -2.224 L 30.346 -6.67 L 30.184 -5.43 L 29.534 -0.354 C 29.532 -0.349 29.531 -0.344 29.531 -0.337 C 29.531 -0.336 29.531 -0.335 29.531 -0.335 L 29.521 -0.256 C 29.485 -0.109 29.353 0 29.195 0 L 27.625 0 L 29.029 -8.784 L 31.03 -8.784 C 31.207 -8.777 31.317 -8.624 31.361 -8.449 C 31.361 -8.448 31.362 -8.448 31.362 -8.448 L 32.073 -5.604 L 32.284 -4.623 L 32.246 -4.797 L 32.599 -6.21 L 33.197 -8.784 L 35.139 -8.784 C 35.317 -8.777 35.427 -8.624 35.471 -8.449 M 81.266 -8.12 C 81.266 -8.116 81.266 -8.112 81.267 -8.109 L 81.267 -4.709 L 79.453 -4.709 L 79.453 -7.169 L 79.217 -7.169 C 77.962 -7.169 77.328 -6.076 77.328 -4.324 C 77.328 -2.634 77.9 -1.603 79.03 -1.603 C 79.603 -1.603 79.923 -1.667 80.483 -1.855 C 80.647 -1.896 80.819 -1.806 80.879 -1.643 C 80.88 -1.641 80.881 -1.64 80.882 -1.638 L 81.192 -0.473 C 80.546 -0.15 79.95 0.099 79.03 0.099 C 76.881 0.099 75.415 -1.765 75.415 -4.448 C 75.415 -7.293 76.645 -8.909 79.055 -8.909 C 79.765 -8.909 80.312 -8.782 80.936 -8.513 C 81.105 -8.428 81.266 -8.369 81.266 -8.12 M 74.252 -8.784 C 74.253 -8.784 74.253 -8.784 74.255 -8.784 C 74.436 -8.784 74.583 -8.641 74.59 -8.462 L 74.59 0 L 73.06 0 C 73.057 -0.001 73.055 -0.001 73.052 -0.001 C 72.866 -0.001 72.715 -0.152 72.715 -0.338 C 72.715 -0.341 72.715 -0.343 72.714 -0.345 L 72.714 -3.516 L 72.739 -5.057 L 70.59 0 L 68.91 0 C 68.907 -0.001 68.905 -0.001 68.902 -0.001 C 68.716 -0.001 68.565 -0.152 68.565 -0.338 C 68.565 -0.34 68.565 -0.341 68.565 -0.343 L 68.565 -8.784 L 70.103 -8.784 C 70.104 -8.784 70.104 -8.784 70.106 -8.784 C 70.282 -8.784 70.426 -8.649 70.441 -8.477 L 70.441 -5.082 L 70.416 -3.541 L 72.739 -8.784 Z M 83.278 -1.868 L 83.278 -1.268 L 83.288 -1.084 L 83.281 -1.084 L 83.083 -1.868 L 82.919 -1.868 L 82.733 -1.085 L 82.727 -1.085 L 82.739 -1.282 L 82.739 -1.868 L 82.59 -1.868 L 82.59 -0.815 L 82.791 -0.815 L 83.003 -1.701 L 83.007 -1.701 L 83.235 -0.815 L 83.427 -0.815 L 83.427 -1.868 Z M 82.243 -0.949 L 82.243 -1.868 L 82.094 -1.868 L 82.094 -0.949 L 81.845 -0.949 L 81.845 -0.815 L 82.492 -0.815 L 82.492 -0.949 Z" fill="#090b2e" fill-opacity="1"></path></g></g><g transform=""><path d="M 174.047 171.289 L 320.128 171.289 L 320.128 372.756 L 174.047 372.756 Z" fill="none"></path></g><g clip-path="url(#clippath2)"><g transform="translate(263.1001 212.9864)"><path d="M 0 0 L -1.228 0 L -3.378 -9.704 L -3.65 -11.207 L -3.727 -11.207 L -4.075 -9.801 L -6.298 -0.427 L -6.3 -0.423 C -6.351 -0.181 -6.564 -0.002 -6.818 -0.002 C -6.822 -0.002 -6.826 -0.001 -6.83 0 L -8.355 0 L -7.465 -3.448 L -9.267 -9.743 L -9.693 -11.207 L -9.77 -11.207 L -10.022 -9.743 L -11.652 -0.421 C -11.702 -0.181 -11.915 -0.002 -12.17 -0.002 C -12.175 -0.002 -12.178 -0.001 -12.182 0 L -13.702 0 L -11.087 -13.694 L -9.093 -13.694 C -9.091 -13.694 -9.091 -13.693 -9.089 -13.693 C -8.844 -13.693 -8.635 -13.527 -8.576 -13.299 L -7 -7.594 L -6.671 -6.443 L -6.613 -6.443 L -6.342 -7.632 L -4.889 -13.694 L -2.93 -13.694 C -2.929 -13.694 -2.928 -13.693 -2.927 -13.693 C -2.692 -13.693 -2.491 -13.542 -2.423 -13.329 L 0.528 -0.531 C 0.528 -0.531 0.528 -0.529 0.529 -0.528 C 0.594 -0.237 0.292 0 0 0 M 17.744 -4.339 C 17.744 -2.595 17.162 -1.723 15.884 -1.723 L 14.566 -1.723 L 14.566 -6.876 L 15.554 -6.876 C 16.93 -6.876 17.744 -6.062 17.744 -4.339 M 21.436 -12.373 L 20.869 -13.911 C 19.782 -13.776 18.535 -13.05 17.744 -11.467 L 16.233 -8.445 C 16 -8.504 15.651 -8.504 15.303 -8.504 L 14.566 -8.504 L 14.566 -13.154 C 14.566 -13.157 14.566 -13.162 14.566 -13.165 C 14.566 -13.457 14.329 -13.693 14.038 -13.693 C 14.037 -13.693 14.036 -13.694 14.035 -13.694 L 12.629 -13.694 L 12.629 -0.523 C 12.633 -0.234 12.868 0 13.157 0 L 16.175 0 C 18.285 0 19.757 -1.356 19.757 -4.242 C 19.757 -5.753 19.158 -7.129 17.996 -7.844 L 19.37 -10.343 C 19.814 -11.136 20.376 -11.813 21.436 -12.373 M 24.443 -11.932 L 24.443 0 L 23.033 0 C 22.745 0 22.51 -0.232 22.505 -0.52 L 22.505 -13.694 L 28.013 -13.694 L 28.665 -11.932 Z M 36.567 -7.011 C 36.567 -3.506 35.115 -1.723 32.751 -1.723 L 31.628 -1.723 L 31.628 -11.97 L 33.023 -11.97 C 35.289 -11.97 36.567 -10.227 36.567 -7.011 M 38.504 -6.799 C 38.504 -11.545 36.335 -13.694 32.868 -13.694 L 30.237 -13.694 C 29.947 -13.693 29.712 -13.459 29.71 -13.17 L 29.71 -0.528 C 29.71 -0.237 29.947 0 30.239 0 L 32.79 0 C 36.121 0 38.504 -2.285 38.504 -6.799 M 9.163 -6.838 C 9.163 -9.936 8.214 -12.222 5.948 -12.222 C 3.836 -12.222 2.733 -9.859 2.733 -6.799 C 2.733 -3.758 3.759 -1.472 5.91 -1.472 C 8.001 -1.472 9.163 -3.641 9.163 -6.838 M 11.158 -6.857 C 11.158 -2.828 9.551 0.194 6.103 0.194 C 2.849 0.194 0.776 -2.441 0.776 -6.818 C 0.776 -11.157 2.52 -13.927 5.832 -13.927 C 9.221 -13.927 11.158 -11.177 11.158 -6.857 M -20.039 -7.011 C -20.039 -3.506 -21.491 -1.723 -23.854 -1.723 L -24.978 -1.723 L -24.978 -11.97 L -23.584 -11.97 C -21.318 -11.97 -20.039 -10.227 -20.039 -7.011 M -18.102 -6.799 C -18.102 -11.545 -20.271 -13.694 -23.738 -13.694 L -26.37 -13.694 C -26.659 -13.693 -26.894 -13.459 -26.896 -13.17 L -26.896 -0.528 C -26.896 -0.237 -26.659 0 -26.368 0 L -23.816 0 C -20.485 0 -18.102 -2.285 -18.102 -6.799 M -28.277 -11.972 L -28.277 -11.97 L -32.809 -11.97 L -32.809 -7.632 L -29.479 -7.632 L -28.878 -6.004 L -32.809 -6.004 L -32.809 -1.704 L -29.221 -1.704 L -28.59 0 L -34.746 0 L -34.746 -13.694 L -28.913 -13.694 Z M -39.735 -13.694 C -39.469 -13.668 -39.261 -13.446 -39.259 -13.173 L -39.259 -1.744 L -36.53 -1.744 C -36.249 -1.73 -36.025 -1.5 -36.025 -1.216 C -36.025 -1.212 -36.025 -1.209 -36.024 -1.205 L -36.024 0 L -43.791 0 L -44.43 -1.73 L -44.43 -1.744 L -41.196 -1.744 L -41.196 -13.694 Z M -61.303 0 C -61.589 -0.006 -61.82 -0.24 -61.821 -0.527 L -61.821 -8.426 C -61.821 -11.292 -62.887 -12.222 -64.203 -12.222 C -65.501 -12.222 -66.567 -11.409 -66.567 -8.872 L -66.567 0 L -68.013 0 C -68.295 -0.01 -68.522 -0.242 -68.522 -0.528 L -68.523 -0.53 L -68.523 -8.814 C -68.523 -12.938 -66.314 -13.946 -64.203 -13.946 C -62.208 -13.946 -59.942 -12.822 -59.942 -8.329 L -59.942 0 Z M -50.145 -13.693 C -49.857 -13.693 -49.623 -13.464 -49.616 -13.178 L -49.616 0 L -51.002 0 C -51.003 0 -51.004 -0.001 -51.005 -0.001 C -51.297 -0.001 -51.533 -0.237 -51.533 -0.528 C -51.533 -0.533 -51.533 -0.538 -51.535 -0.543 L -51.535 -7.825 L -51.418 -10.149 L -51.495 -10.149 L -55.912 0 L -57.551 0 C -57.553 0 -57.554 -0.001 -57.555 -0.001 C -57.837 -0.001 -58.067 -0.223 -58.081 -0.501 L -58.081 -13.694 L -56.675 -13.694 C -56.674 -13.694 -56.673 -13.693 -56.672 -13.693 C -56.381 -13.693 -56.145 -13.458 -56.144 -13.167 L -56.144 -5.83 L -56.28 -3.584 L -56.203 -3.584 L -51.728 -13.694 L -50.147 -13.694 C -50.146 -13.694 -50.146 -13.693 -50.145 -13.693 M -46.16 -13.693 C -45.887 -13.693 -45.662 -13.487 -45.634 -13.22 L -45.634 0 L -47.046 0 C -47.335 -0.002 -47.568 -0.234 -47.571 -0.523 L -47.571 -13.694 L -46.163 -13.694 C -46.162 -13.694 -46.161 -13.693 -46.16 -13.693 M -28.626 -37.133 L -28.626 -37.102 L -35.736 -37.102 L -35.736 -32.046 L -31.459 -32.046 L -30.011 -28.127 L -35.736 -28.127 L -35.736 -23.165 L -30.404 -23.165 L -28.85 -18.962 L -39.634 -18.962 C -39.641 -18.963 -39.647 -18.965 -39.656 -18.965 C -40.101 -18.965 -40.466 -19.304 -40.508 -19.738 L -40.508 -41.304 L -30.167 -41.304 Z M -49.318 -26.547 C -49.318 -24.619 -49.792 -23.197 -51.5 -23.197 L -52.858 -23.197 L -52.858 -29.834 L -52.036 -29.834 C -50.014 -29.834 -49.318 -28.317 -49.318 -26.547 M -42.774 -41.698 C -45.993 -41.407 -48.312 -39.089 -49.729 -36.502 L -51.31 -33.594 L -52.858 -33.594 L -52.858 -40.431 C -52.858 -40.437 -52.859 -40.441 -52.859 -40.449 C -52.859 -40.921 -53.243 -41.304 -53.715 -41.304 C -53.718 -41.304 -53.721 -41.304 -53.724 -41.304 L -57.662 -41.304 L -57.662 -19.818 C -57.66 -19.347 -57.277 -18.965 -56.805 -18.965 C -56.797 -18.965 -56.79 -18.963 -56.782 -18.962 L -51.025 -18.962 C -47.201 -18.962 -44.388 -21.364 -44.388 -26.421 C -44.388 -28.791 -45.526 -30.909 -47.075 -32.077 L -45.305 -34.448 C -44.487 -35.549 -43.45 -36.68 -41.385 -37.937 Z M -14.051 -18.962 L -15.604 -23.165 L -10.931 -23.165 L -10.931 -41.304 L -6.995 -41.304 C -6.992 -41.304 -6.99 -41.304 -6.987 -41.304 C -6.514 -41.304 -6.131 -40.921 -6.131 -40.449 C -6.131 -40.434 -6.129 -40.421 -6.127 -40.409 L -6.127 -23.165 L -2.064 -23.165 C -2.052 -23.163 -2.039 -23.163 -2.023 -23.163 C -1.55 -23.163 -1.167 -22.778 -1.167 -22.305 C -1.167 -22.3 -1.167 -22.294 -1.166 -22.287 L -1.166 -18.962 Z M 12.022 -37.071 L 4.975 -37.071 L 4.975 -18.962 L 1.081 -18.962 C 1.074 -18.963 1.068 -18.965 1.059 -18.965 C 0.587 -18.965 0.205 -19.347 0.204 -19.818 L 0.204 -41.304 L 10.457 -41.304 Z M 17.359 -41.304 C 17.83 -41.304 18.213 -40.923 18.215 -40.453 L 18.215 -18.962 L 14.317 -18.962 C 14.309 -18.963 14.303 -18.965 14.294 -18.965 C 13.848 -18.965 13.48 -19.308 13.442 -19.746 L 13.442 -41.304 L 17.351 -41.304 C 17.354 -41.304 17.356 -41.304 17.359 -41.304 M -23.14 -25.04 C -23.14 -24.092 -22.665 -22.954 -21.211 -22.954 C -19.925 -22.954 -19.207 -23.114 -17.978 -23.49 C -17.564 -23.59 -17.132 -23.368 -16.978 -22.961 L -15.902 -20.11 C -18.336 -18.846 -19.663 -18.688 -21.559 -18.688 C -24.15 -18.688 -27.88 -20.711 -27.88 -24.945 C -27.88 -31.772 -20.137 -31.487 -20.137 -34.616 C -20.137 -35.532 -20.675 -37.144 -22.507 -37.144 C -23.895 -37.144 -24.854 -36.942 -26.222 -36.365 C -26.228 -36.363 -26.234 -36.362 -26.242 -36.359 C -26.686 -36.198 -27.177 -36.427 -27.339 -36.871 C -27.345 -36.888 -27.352 -36.901 -27.359 -36.911 L -28.385 -39.704 C -26.805 -40.841 -25.131 -41.569 -22.444 -41.569 C -19.22 -41.569 -15.27 -39.451 -15.27 -34.552 C -15.27 -28.296 -23.14 -27.569 -23.14 -25.04 M -63.273 -40.452 C -63.272 -40.449 -63.272 -40.447 -63.271 -40.446 L -59.039 -19.809 C -59.044 -19.341 -59.424 -18.962 -59.894 -18.962 L -63.448 -18.962 L -65.818 -32.552 L -66.353 -36.091 L -66.327 -35.926 L -66.923 -32.868 L -69.796 -19.838 C -69.798 -19.832 -69.801 -19.826 -69.803 -19.818 C -69.908 -19.358 -70.186 -18.962 -70.659 -18.962 L -74.793 -18.962 L -73.276 -24.619 L -76.309 -35.926 L -76.72 -32.773 L -78.375 -19.863 C -78.379 -19.849 -78.38 -19.836 -78.38 -19.818 L -78.381 -19.812 L -78.407 -19.613 C -78.499 -19.24 -78.835 -18.962 -79.237 -18.962 L -83.23 -18.962 L -79.659 -41.304 L -74.571 -41.304 C -74.118 -41.285 -73.838 -40.898 -73.726 -40.452 L -73.725 -40.449 L -71.917 -33.216 L -71.38 -30.721 L -71.475 -31.164 L -70.578 -34.758 L -69.057 -41.304 L -64.118 -41.304 C -63.666 -41.285 -63.385 -40.898 -63.273 -40.452 M 53.209 -39.615 C 53.209 -39.604 53.211 -39.595 53.212 -39.586 L 53.212 -30.94 L 48.598 -30.94 L 48.598 -37.198 L 47.998 -37.198 C 44.806 -37.198 43.194 -34.416 43.194 -29.961 C 43.194 -25.662 44.648 -23.039 47.523 -23.039 C 48.98 -23.039 49.793 -23.201 51.218 -23.681 C 51.637 -23.783 52.074 -23.556 52.225 -23.142 C 52.227 -23.136 52.23 -23.132 52.233 -23.127 L 53.022 -20.163 C 51.379 -19.341 49.862 -18.71 47.523 -18.71 C 42.056 -18.71 38.327 -23.449 38.327 -30.276 C 38.327 -37.512 41.456 -41.621 47.587 -41.621 C 49.392 -41.621 50.784 -41.298 52.37 -40.616 C 52.801 -40.397 53.209 -40.249 53.209 -39.615 M 31.522 -41.304 L 25.612 -27.969 L 25.674 -31.888 L 25.674 -40.523 C 25.637 -40.961 25.27 -41.304 24.823 -41.304 C 24.819 -41.304 24.817 -41.304 24.815 -41.304 L 20.903 -41.304 L 20.903 -19.834 C 20.904 -19.829 20.904 -19.826 20.904 -19.82 C 20.904 -19.348 21.288 -18.965 21.76 -18.965 C 21.769 -18.965 21.775 -18.963 21.782 -18.962 L 26.054 -18.962 L 31.522 -31.825 L 31.459 -27.907 L 31.459 -19.84 C 31.459 -19.833 31.46 -19.828 31.46 -19.82 C 31.46 -19.348 31.843 -18.965 32.316 -18.965 C 32.324 -18.965 32.33 -18.963 32.338 -18.962 L 36.23 -18.962 L 36.23 -40.484 C 36.211 -40.94 35.837 -41.304 35.376 -41.304 C 35.373 -41.304 35.371 -41.304 35.368 -41.304 Z" fill="#090b2e" fill-opacity="1"></path></g></g><g clip-path="url(#clippath2)"><g transform="translate(174.0473 299.7156)"><path d="M 0 0 C 0 -40.34 32.701 -73.041 73.041 -73.041 C 113.38 -73.041 146.081 -40.34 146.081 0 C 146.081 40.34 113.38 73.04 73.041 73.04 C 32.701 73.04 0 40.34 0 0" fill="#ff7d24" fill-opacity="1"></path></g></g><g clip-path="url(#clippath2)"><g transform="translate(190.5924 299.7156)"><path d="M 0 0 C 0 -31.202 25.294 -56.496 56.496 -56.496 C 87.698 -56.496 112.991 -31.202 112.991 0 C 112.991 31.201 87.698 56.495 56.496 56.495 C 25.294 56.495 0 31.201 0 0" fill="#090b2e" fill-opacity="1"></path></g></g><g clip-path="url(#clippath2)"><g transform="translate(214.1978 288.1418)"><path d="M 0 0 C 0.05 -2.556 -9.907 -3.88 -10.441 -11.67 C -10.489 -12.383 -4.739 -6.725 1.94 -6.861 C 3.937 -6.9 4.572 -9.184 3.971 -10.259 C 3.06 -11.893 -1.925 -10.735 -3.001 -13.445 C -3.873 -15.643 -0.955 -17.342 1.116 -16.963 C 3.917 -16.45 3.683 -14.495 11.208 -11.358 C 16.937 -8.969 19.304 -0.902 17.355 6.609 C 17.355 6.609 7.012 7.086 1.368 13.098 C -4.3 19.136 -15.701 18.13 -15.701 18.13 C -8.75 14.659 -2.548 10.736 -1.988 8.905 C -1.031 5.777 -4.466 7.755 -8.006 7.053 C -12.403 6.18 -11.254 1.089 -8.283 0.811 C -5.566 0.556 -0.094 4.762 0 0 M 9.979 -31.962 C 17.572 -22.568 21.525 -22.142 22.143 -22.611 C 23.845 -23.905 22.375 -26.049 22.007 -26.798 C 21.02 -28.806 21.424 -31.378 24.06 -31.721 C 26.012 -31.978 27.426 -29.442 26.863 -26.956 C 25.887 -22.646 30.129 -22.511 29.836 -24.651 C 29.034 -30.475 32.799 -35.241 36.122 -37.534 C 34.119 -32.967 33.445 -25.09 37.094 -23.768 C 40.59 -22.501 38.075 -29.251 39.371 -30.916 C 39.939 -31.645 41.703 -32.171 42.91 -31.406 C 45.529 -29.748 41.181 -22.56 43.149 -22.065 C 46.71 -21.344 44.355 -28.648 52.808 -33.415 C 51.205 -28.58 48.7 -21.168 50.912 -19.654 C 52.663 -18.821 53.015 -22.281 54.818 -23.776 C 57.646 -26.12 61.651 -22.223 59.175 -20.599 C 56.457 -18.815 54.409 -16.504 54.916 -15.383 C 56.38 -12.146 61.743 -15.498 66.482 -24.33 C 68.34 -16.318 63.014 -11.076 57.31 -8.416 C 53.396 -6.591 49.492 -1.845 48.653 -0.974 C 45.364 2.439 44.058 1.016 38.116 4.644 C 36.949 5.924 35.985 11.962 37.709 14.217 C 41.093 10.316 53.624 9.258 52.955 10.966 C 51.47 14.752 57.83 15.149 59.836 12.428 C 61.88 9.653 60.526 6.441 55.54 6.935 C 52.336 7.253 52.329 5.497 52.401 4.69 C 52.72 1.019 57.324 -2.542 60.287 -4.101 C 66.484 -7.36 74.518 -6.397 78.967 -5.38 C 75.854 -4.323 72.93 -3.523 70.042 -1.71 C 64.537 1.743 65.368 3.407 66.134 4.532 C 66.894 5.659 69.581 5.74 72.737 4.552 C 78.371 2.433 80.288 12.838 74.183 10.771 C 71.471 9.852 67.782 9.35 67.394 12.349 C 67.471 17.73 78.125 15.193 79.986 24.438 C 75.453 20.199 67.158 19.62 65.345 21.939 C 64.05 23.601 66.289 24.912 69.113 24.842 C 74.898 24.706 73.674 32.837 68.434 30.935 C 65.132 29.736 63.714 26.323 62.569 26.86 C 60.534 27.814 61.453 37.011 70.38 43.246 C 61.044 44.716 58.231 33.522 55.552 35.823 C 53.125 37.911 54.8 42.348 57.177 44.51 C 60.268 47.319 55.069 52.597 51.871 47.349 C 49.979 44.242 51.967 39.838 49.178 40.01 C 45.526 40.235 52.482 54.099 42.933 59.662 C 45.694 53.543 44.811 43.1 39.64 44.716 C 36.237 45.781 38.188 48.332 38.96 51.426 C 40.218 56.497 33.036 56.309 33.355 52.446 C 33.669 48.58 34.215 45.625 32.142 45.481 C 29.018 45.261 26.851 53.135 31.479 60.534 C 22.779 57.207 23.29 45.433 26.938 42.57 C 32.226 38.419 37.017 30.27 35.919 22.482 C 33.423 18.762 27.58 16.931 27.58 16.931 C 27.394 19.686 22.301 30.605 8.57 31.688 C -2.956 32.596 -5.302 42.382 -5.302 42.382 C -5.858 39.657 -6.885 33.659 1.619 30.147 C 3.347 29.433 0.945 27.1 -1.744 29.397 C -6.733 33.66 -10.41 27.492 -6.008 25.773 C -4.494 25.182 1.012 23.824 2.856 21.285 C 7.157 15.363 12.372 10.706 25.452 14.781 C 31.11 16.544 35.827 19.814 35.827 19.814 C 35.827 19.814 40.039 25.243 43.618 21.902 C 44.723 20.87 45.017 18.128 42.987 16.188 C 40.957 14.248 38.37 14.875 37.604 16.224 C 37.412 16.562 36.187 16.095 35.476 13.645 C 34.765 11.194 33.761 5.248 40.574 -0.246 C 41.527 -1.015 31.892 0.302 30.166 9.49 C 28.469 8.236 24.888 7.194 22.387 6.891 C 24.619 1.585 25.227 -9.86 18.217 -16.372 C 12.454 -21.727 11.252 -27.445 9.979 -31.962 M 30.727 23.211 C 28.51 28.9 19.601 35.265 13.56 36.52 C 0.742 39.184 2.033 49.925 2.033 49.925 C 5.008 43.179 12.094 39.975 12.8 42.168 C 12.984 42.739 10.164 45.491 9.912 47.264 C 9.659 49.046 11.781 50.662 13.24 50.113 C 17.273 48.597 14.418 42.609 19.364 40.094 C 25.947 37.104 31.738 29.565 30.727 23.211" fill="#ff7d24" fill-opacity="1"></path></g></g><g clip-path="url(#clippath2)"><g transform="translate(266.5983 292.8321)"><path d="M 0 0 C -0.071 0.807 -0.065 2.562 3.14 2.245 C 8.126 1.751 9.479 4.962 7.435 7.738 C 5.429 10.459 -0.931 10.061 0.554 6.276 C 1.224 4.567 -11.307 5.626 -14.691 9.527 C -16.415 7.272 -15.451 1.233 -14.284 -0.046 C -8.343 -3.674 -7.036 -2.251 -3.748 -5.664 C -2.908 -6.535 0.995 -11.281 4.91 -13.107 C 6.016 -11.757 7.013 -10.314 7.886 -8.791 C 4.924 -7.233 0.319 -3.671 0 0 M -41.193 -16.048 C -39.105 -18.022 -36.748 -19.713 -34.183 -21.063 C -27.174 -14.55 -27.781 -3.105 -30.013 2.201 C -27.512 2.504 -23.932 3.546 -22.234 4.799 C -20.509 -4.388 -10.874 -5.705 -11.827 -4.936 C -18.639 0.558 -17.636 6.504 -16.924 8.955 C -16.213 11.405 -14.989 11.872 -14.796 11.535 C -14.031 10.185 -11.444 9.558 -9.413 11.498 C -7.383 13.438 -7.677 16.18 -8.783 17.212 C -12.361 20.553 -16.574 15.124 -16.574 15.124 C -16.574 15.124 -21.291 11.854 -26.949 10.091 C -40.028 6.015 -45.243 10.672 -49.545 16.595 C -50.384 13.997 -50.897 11.252 -51.032 8.408 C -45.388 2.396 -35.046 1.918 -35.046 1.918 C -33.096 -5.592 -35.463 -13.659 -41.192 -16.048 Z M -16.481 17.792 C -18.978 14.072 -24.82 12.24 -24.82 12.24 C -25.007 14.996 -30.1 25.915 -43.83 26.997 C -42.35 28.785 -40.675 30.406 -38.84 31.83 C -32.799 30.574 -23.89 24.21 -21.673 18.521 C -20.662 24.874 -26.454 32.414 -33.037 35.404 C -30.661 36.532 -28.121 37.372 -25.462 37.88 C -20.174 33.729 -15.384 25.58 -16.481 17.792" fill="#ffffff" fill-opacity="1"></path></g></g><g clip-path="url(#clippath2)"><g transform="translate(290.0847 271.7997)"><path d="M 0 0 L 0 2.085 L 0.036 2.725 L 0.011 2.725 L -0.677 0 L -1.245 0 L -1.891 2.718 L -1.914 2.718 L -1.872 2.038 L -1.872 0 L -2.389 0 L -2.389 3.656 L -1.692 3.656 L -0.957 0.579 L -0.942 0.579 L -0.148 3.656 L 0.517 3.656 L 0.517 0 Z M -3.593 3.192 L -3.593 0 L -4.111 0 L -4.111 3.192 L -4.976 3.192 L -4.976 3.656 L -2.73 3.656 L -2.73 3.192 Z" fill="#ffffff" fill-opacity="1"></path></g></g><g transform=""><path d="M 0 0 L 841.89 0 L 841.89 595.276 L 0 595.276 Z" fill="none"></path></g><g clip-path="url(#clippath3)"><g transform="translate(454.2256 232.9409)"><path d="M 0 0 C 9.117 0 16.508 7.391 16.508 16.508 C 16.508 25.625 9.117 33.016 0 33.016 C -9.117 33.016 -16.508 25.625 -16.508 16.508 C -16.508 7.391 -9.117 0 0 0" fill="#090b2e" fill-opacity="1"></path></g></g><g clip-path="url(#clippath3)"><g transform="translate(454.2256 232.9409)"></g></g><g clip-path="url(#clippath3)"><g transform="translate(454.2256 343.4921)"><path d="M 0 0 C 9.117 0 16.508 7.391 16.508 16.508 C 16.508 25.625 9.117 33.016 0 33.016 C -9.117 33.016 -16.508 25.625 -16.508 16.508 C -16.508 7.391 -9.117 0 0 0" fill="#ff7d24" fill-opacity="1"></path></g></g><g clip-path="url(#clippath3)"><g transform="translate(454.2256 343.4921)"></g></g><g transform="translate(259.9527 249.4487)"></g><g transform=""><path d="M 0 0 L 841.89 0 L 841.89 595.276 L 0 595.276 Z" fill="none"></path></g><g clip-path="url(#clippath4)"><g transform="translate(259.9527 247.4487)"></g></g><g transform="translate(249.0879 360)"></g><g transform=""><path d="M 0 0 L 841.89 0 L 841.89 595.276 L 0 595.276 Z" fill="none"></path></g><g clip-path="url(#clippath5)"><g transform="translate(249.0879 358)"></g></g></g></svg>