<svg xmlns:svg="http://www.w3.org/2000/svg" version="1.1" width="565px" height="595px" preserveAspectRatio="none" viewBox="75 202 113 119"><defs><clipPath id="clippath0" transform=""><rect x="0" y="0" width="841.89" height="595.276" clip-rule="nonzero"></rect></clipPath><clipPath id="clippath1" transform="" clip-path="url(#clippath0)"><path d="M 678.537 548.212 L 805.89 548.212 L 805.89 557.276 L 678.537 557.276 Z" fill="none" clip-rule="nonzero"></path></clipPath><clipPath id="clippath2" transform=""><path d="M 36 211.996 L 182.081 211.996 L 182.081 383.279 L 36 383.279 Z" fill="none" clip-rule="nonzero"></path></clipPath><clipPath id="clippath3" transform=""><path d="M 36 367.741 C 36 359.161 42.955 352.205 51.537 352.205 L 51.537 352.205 C 60.118 352.205 67.074 359.161 67.074 367.741 L 67.074 367.741 C 67.074 376.322 60.118 383.279 51.537 383.279 L 51.537 383.279 C 42.955 383.279 36 376.322 36 367.741" fill="none" clip-rule="nonzero"></path></clipPath><linearGradient id="shading0" gradientUnits="userSpaceOnUse" x1="0" y1="0" x2="1" y2="0"><stop offset="0" stop-color="#00b9f2"></stop><stop offset="0.1" stop-color="#00a7e4"></stop><stop offset="0.2" stop-color="#0094d7"></stop><stop offset="0.3" stop-color="#0082ca"></stop><stop offset="0.4" stop-color="#006ebd"></stop><stop offset="0.5" stop-color="#005ab1"></stop><stop offset="0.6" stop-color="#0155ae"></stop><stop offset="0.7" stop-color="#0155ae"></stop><stop offset="0.8" stop-color="#0155ae"></stop><stop offset="0.9" stop-color="#0155ae"></stop><stop offset="1" stop-color="#0155ae"></stop></linearGradient><clipPath id="clippath4" transform=""><path d="M 36 211.996 L 182.081 211.996 L 182.081 383.279 L 36 383.279 Z" fill="none" clip-rule="nonzero"></path></clipPath><clipPath id="clippath5" transform=""><path d="M 57.786 321.132 C 57.786 286.807 85.61 258.983 119.934 258.983 L 119.934 258.983 C 154.257 258.983 182.081 286.807 182.081 321.132 L 182.081 321.132 C 182.081 355.455 154.257 383.279 119.934 383.279 L 119.934 383.279 C 85.61 383.279 57.786 355.455 57.786 321.132" fill="none" clip-rule="nonzero"></path></clipPath><radialGradient id="shading1" gradientUnits="userSpaceOnUse" cx="0" cy="0" r="1" fx="0" fy="0" fr="0"><stop offset="0" stop-color="#0e195b"></stop><stop offset="0.1" stop-color="#0e195b"></stop><stop offset="0.2" stop-color="#0e195b"></stop><stop offset="0.3" stop-color="#0e195b"></stop><stop offset="0.4" stop-color="#0e195b"></stop><stop offset="0.5" stop-color="#0e195b"></stop><stop offset="0.6" stop-color="#092a6e"></stop><stop offset="0.7" stop-color="#034086"></stop><stop offset="0.8" stop-color="#00599e"></stop><stop offset="0.9" stop-color="#0073b8"></stop><stop offset="1" stop-color="#0090d3"></stop></radialGradient><clipPath id="clippath6" transform=""><path d="M 36 211.996 L 182.081 211.996 L 182.081 383.279 L 36 383.279 Z" fill="none" clip-rule="nonzero"></path></clipPath><clipPath id="clippath7" transform=""><path d="M 120.57 349.982 C 118.805 350.104 119.271 352.618 119.538 355.908 L 119.538 355.908 C 119.809 359.194 113.698 359.355 114.768 355.041 L 114.768 355.041 C 115.425 352.409 117.086 350.237 114.19 349.331 L 114.19 349.331 C 109.791 347.956 109.04 356.842 111.389 362.048 L 111.389 362.048 C 103.263 357.314 109.182 345.519 106.074 345.327 L 106.074 345.327 C 103.702 345.181 105.393 348.928 103.784 351.572 L 103.784 351.572 C 101.062 356.036 96.638 351.546 99.268 349.156 L 99.268 349.156 C 101.29 347.315 102.717 343.541 100.651 341.765 L 100.651 341.765 C 99.475 340.754 98.269 342.8 96.286 344.846 L 96.286 344.846 C 94.425 346.766 91.88 348.686 88.034 348.08 L 88.034 348.08 C 95.63 342.775 96.413 334.95 94.681 334.138 L 94.681 334.138 C 93.706 333.681 92.5 336.586 89.69 337.606 L 89.69 337.606 C 87.246 338.493 85.829 336.814 85.858 335.135 L 85.858 335.135 C 85.883 333.751 86.889 332.369 89.113 332.421 L 89.113 332.421 C 91.515 332.481 93.421 331.366 92.318 329.951 L 92.318 329.951 C 90.776 327.978 83.718 328.471 79.861 332.077 L 79.861 332.077 C 81.445 324.211 91.148 325.719 91.379 323.495 L 91.379 323.495 C 91.049 320.943 87.417 320.301 84.799 320.448 L 84.799 320.448 C 82.277 320.59 81.447 319.141 81.696 317.691 L 81.696 317.691 C 81.986 315.993 83.759 314.293 86.028 315.158 L 86.028 315.158 C 88.71 316.178 91.001 316.099 91.648 315.139 L 91.648 315.139 C 92.299 314.183 93.006 312.767 88.322 309.829 L 88.322 309.829 C 85.865 308.287 83.377 307.606 80.728 306.706 L 80.728 306.706 C 84.514 305.841 91.35 305.022 96.622 307.795 L 96.622 307.795 C 99.144 309.121 103.062 312.151 103.333 315.275 L 103.333 315.275 C 103.393 315.961 103.387 317.455 100.661 317.184 L 100.661 317.184 C 96.419 316.764 95.267 319.496 97.007 321.859 L 97.007 321.859 C 98.713 324.174 104.125 323.835 102.861 320.614 L 102.861 320.614 C 102.291 319.161 112.954 320.062 115.833 323.381 L 115.833 323.381 C 117.3 321.462 116.48 316.324 115.487 315.235 L 115.487 315.235 C 110.431 312.149 109.319 313.359 106.521 310.456 L 106.521 310.456 C 105.808 309.714 102.486 305.676 99.155 304.123 L 99.155 304.123 C 94.302 301.859 89.77 297.4 91.352 290.582 L 91.352 290.582 C 95.384 298.096 99.947 300.949 101.192 298.195 L 101.192 298.195 C 101.624 297.242 99.881 295.275 97.568 293.757 L 97.568 293.757 C 95.462 292.376 98.869 289.059 101.275 291.054 L 101.275 291.054 C 102.81 292.326 103.109 295.269 104.599 294.561 L 104.599 294.561 C 106.482 293.273 104.351 286.966 102.986 282.852 L 102.986 282.852 C 110.178 286.908 108.253 293.702 111.282 293.089 L 111.282 293.089 C 112.957 292.667 110.163 288.991 112.39 287.581 L 112.39 287.581 C 113.417 286.93 114.642 287.456 115.125 288.076 L 115.125 288.076 C 116.229 289.493 114.996 293.346 116.382 292.4 L 116.382 292.4 C 119.579 290.219 118.888 283.234 117.184 279.347 L 117.184 279.347 C 120.01 281.299 123.091 286.592 122.409 291.549 L 122.409 291.549 C 122.159 293.368 124.814 293.52 124.188 290.907 L 124.188 290.907 C 123.684 288.798 125.248 286.944 126.909 287.162 L 126.909 287.162 C 129.531 287.504 129.721 289.606 128.699 292.306 L 128.699 292.306 C 127.548 295.348 133.636 290.479 139.427 284.089 L 139.427 284.089 C 138.345 287.932 137.322 292.797 132.418 297.354 L 132.418 297.354 C 126.454 302.894 126.971 312.633 128.87 317.147 L 128.87 317.147 C 126.743 317.406 123.695 318.291 122.251 319.358 L 122.251 319.358 C 120.783 311.541 112.585 310.42 113.396 311.075 L 113.396 311.075 C 119.191 315.75 118.338 320.809 117.733 322.894 L 117.733 322.894 C 117.128 324.978 116.087 325.376 115.923 325.089 L 115.923 325.089 C 115.271 323.941 113.07 323.407 111.343 325.057 L 111.343 325.057 C 109.615 326.709 109.865 329.042 110.805 329.919 L 110.805 329.919 C 113.851 332.762 117.435 328.143 117.435 328.143 L 117.435 328.143 C 117.435 328.143 121.449 325.361 126.263 323.861 L 126.263 323.861 C 137.391 320.393 141.828 324.355 145.489 329.395 L 145.489 329.395 C 147.057 331.555 151.742 332.71 153.031 333.213 L 153.031 333.213 C 156.775 334.676 153.648 339.924 149.403 336.297 L 149.403 336.297 C 147.115 334.343 145.071 336.328 146.541 336.935 L 146.541 336.935 C 153.776 339.923 152.903 345.027 152.429 347.345 L 152.429 347.345 C 152.429 347.345 150.433 339.019 140.627 338.246 L 140.627 338.246 C 128.944 337.325 124.61 328.034 124.452 325.689 L 124.452 325.689 C 124.452 325.689 119.48 327.248 117.355 330.413 L 117.355 330.413 C 116.422 337.04 120.498 343.974 124.998 347.505 L 124.998 347.505 C 128.102 349.942 128.537 359.96 121.134 362.791 L 121.134 362.791 C 125.072 356.495 123.229 349.795 120.57 349.982 M 136.653 353.924 C 133.222 352.633 135.651 347.539 131.442 345.398 L 131.442 345.398 C 125.842 342.855 120.913 336.44 121.774 331.033 L 121.774 331.033 C 123.66 335.874 131.241 341.29 136.381 342.358 L 136.381 342.358 C 147.287 344.624 146.189 353.764 146.189 353.764 L 146.189 353.764 C 143.657 348.023 137.628 345.298 137.027 347.163 L 137.027 347.163 C 136.871 347.649 139.27 349.991 139.485 351.499 L 139.485 351.499 C 139.671 352.811 138.345 354.017 137.181 354.017 L 137.181 354.017 C 136.999 354.017 136.821 353.987 136.653 353.924 M 146.754 322.429 C 141.952 317.313 133.152 316.907 133.152 316.907 L 133.152 316.907 C 131.494 310.516 133.507 303.653 138.382 301.621 L 138.382 301.621 C 144.785 298.951 145.069 297.418 146.711 297.154 L 146.711 297.154 C 148.48 296.869 150.197 298.308 150.214 299.913 L 150.214 299.913 C 150.233 301.576 145.988 302.285 144.977 303.513 L 144.977 303.513 C 144.642 303.92 144.569 305.412 146.268 305.447 L 146.268 305.447 C 148.974 305.501 151.501 304.438 153.401 303.375 L 153.401 303.375 C 155.491 302.206 156.823 301.036 156.802 301.354 L 156.802 301.354 C 156.347 307.983 147.649 309.125 147.919 311.284 L 147.919 311.284 C 148.174 313.335 150.203 312.856 152.211 312.377 L 152.211 312.377 C 153.208 312.14 154.199 311.902 154.966 311.974 L 154.966 311.974 C 157.494 312.211 158.829 317.805 155.019 317.64 L 155.019 317.64 C 150.729 317.453 149.254 317.464 149.61 318.861 L 149.61 318.861 C 150.012 320.44 155.363 323.756 161.278 326.71 L 161.278 326.71 C 161.278 326.71 160.673 326.763 159.688 326.763 L 159.688 326.763 C 156.734 326.763 150.372 326.281 146.754 322.429" fill="none" clip-rule="nonzero"></path></clipPath><radialGradient id="shading2" gradientUnits="userSpaceOnUse" cx="0" cy="0" r="1" fx="0" fy="0" fr="0"><stop offset="0" stop-color="#101e6f"></stop><stop offset="0.1" stop-color="#101e6f"></stop><stop offset="0.2" stop-color="#101e6f"></stop><stop offset="0.3" stop-color="#101e6f"></stop><stop offset="0.4" stop-color="#101e6f"></stop><stop offset="0.5" stop-color="#101e6f"></stop><stop offset="0.6" stop-color="#101e6f"></stop><stop offset="0.7" stop-color="#00579e"></stop><stop offset="0.8" stop-color="#0097d4"></stop><stop offset="0.9" stop-color="#00b9f2"></stop><stop offset="1" stop-color="#00b9f2"></stop></radialGradient><clipPath id="clippath8" transform=""><path d="M 93.082 321.132 C 93.082 306.3 105.104 294.279 119.934 294.279 L 119.934 294.279 C 134.766 294.279 146.786 306.3 146.786 321.132 L 146.786 321.132 C 146.786 335.962 134.766 347.984 119.934 347.984 L 119.934 347.984 C 105.104 347.984 93.082 335.962 93.082 321.132" fill="none" clip-rule="nonzero"></path></clipPath><radialGradient id="shading3" gradientUnits="userSpaceOnUse" cx="0" cy="0" r="1" fx="0" fy="0" fr="0"><stop offset="0" stop-color="#00b9f2"></stop><stop offset="0.1" stop-color="#00b9f2"></stop><stop offset="0.2" stop-color="#00a6e4"></stop><stop offset="0.3" stop-color="#0092d5"></stop><stop offset="0.4" stop-color="#007cc6"></stop><stop offset="0.5" stop-color="#0066b8"></stop><stop offset="0.6" stop-color="#0060b4"></stop><stop offset="0.7" stop-color="#005bb1"></stop><stop offset="0.8" stop-color="#0056ae"></stop><stop offset="0.9" stop-color="#0087cd"></stop><stop offset="1" stop-color="#00b9f2"></stop></radialGradient><clipPath id="clippath9" transform=""><path d="M 117.355 330.413 C 119.48 327.248 124.452 325.689 124.452 325.689 L 124.452 325.689 C 124.61 328.034 128.944 337.325 140.627 338.246 L 140.627 338.246 C 139.367 339.767 137.942 341.147 136.381 342.358 L 136.381 342.358 C 131.241 341.29 123.66 335.874 121.774 331.033 L 121.774 331.033 C 120.913 336.44 125.842 342.855 131.442 345.398 L 131.442 345.398 C 129.421 346.359 127.26 347.073 124.998 347.505 L 124.998 347.505 C 120.498 343.974 116.422 337.04 117.355 330.413 M 110.805 329.919 C 109.865 329.042 109.615 326.709 111.343 325.057 L 111.343 325.057 C 113.07 323.407 115.271 323.941 115.923 325.089 L 115.923 325.089 C 116.087 325.376 117.128 324.978 117.733 322.894 L 117.733 322.894 C 118.338 320.809 119.191 315.75 113.396 311.075 L 113.396 311.075 C 112.585 310.42 120.783 311.541 122.251 319.358 L 122.251 319.358 C 123.695 318.291 126.743 317.406 128.87 317.147 L 128.87 317.147 C 126.971 312.633 126.454 302.894 132.418 297.354 L 132.418 297.354 C 134.6 298.501 136.606 299.94 138.382 301.621 L 138.382 301.621 C 133.507 303.653 131.494 310.516 133.152 316.907 L 133.152 316.907 C 133.152 316.907 141.952 317.313 146.754 322.429 L 146.754 322.429 C 146.639 324.849 146.203 327.184 145.489 329.395 L 145.489 329.395 C 141.828 324.355 137.391 320.393 126.263 323.861 L 126.263 323.861 C 121.449 325.361 117.435 328.143 117.435 328.143 L 117.435 328.143 C 117.435 328.143 115.339 330.844 112.991 330.844 L 112.991 330.844 C 112.268 330.844 111.523 330.589 110.805 329.919 M 102.861 320.614 C 104.125 323.835 98.713 324.174 97.007 321.859 L 97.007 321.859 C 95.267 319.496 96.419 316.764 100.661 317.184 L 100.661 317.184 C 103.387 317.455 103.393 315.961 103.333 315.275 L 103.333 315.275 C 103.062 312.151 99.144 309.121 96.622 307.795 L 96.622 307.795 C 97.366 306.499 98.213 305.271 99.155 304.123 L 99.155 304.123 C 102.486 305.676 105.808 309.714 106.521 310.456 L 106.521 310.456 C 109.319 313.359 110.431 312.149 115.487 315.235 L 115.487 315.235 C 116.48 316.324 117.3 321.462 115.833 323.381 L 115.833 323.381 C 112.954 320.062 102.291 319.161 102.861 320.614" fill="none" clip-rule="nonzero"></path></clipPath><radialGradient id="shading4" gradientUnits="userSpaceOnUse" cx="0" cy="0" r="1" fx="0" fy="0" fr="0"><stop offset="0" stop-color="#ffffff"></stop><stop offset="0.1" stop-color="#ffffff"></stop><stop offset="0.2" stop-color="#ffffff"></stop><stop offset="0.3" stop-color="#ffffff"></stop><stop offset="0.4" stop-color="#ffffff"></stop><stop offset="0.5" stop-color="#f9f8f5"></stop><stop offset="0.6" stop-color="#e8e5da"></stop><stop offset="0.7" stop-color="#dedacb"></stop><stop offset="0.8" stop-color="#dedacb"></stop><stop offset="0.9" stop-color="#eae8dd"></stop><stop offset="1" stop-color="#ffffff"></stop></radialGradient><clipPath id="clippath10" transform=""><path d="M 0 0 L 841.89 0 L 841.89 595.276 L 0 595.276 Z" fill="none" clip-rule="nonzero"></path></clipPath></defs><g transform="matrix(1 0 0 -1 0 595.276)"><g transform=""><text transform="matrix(10 0 0 10 745.4095 37.6882) scale(1, -1)" xml:space="preserve"><tspan font-family="g_d0_f1" font-size="1px" y="0" x="0 0.386 0.778 1.156 1.51 1.916 2.096 2.592 3.134 3.349 3.875 4.281" fill="#2c2e35">оҒ“оҒ”оҒҷоҒҢоҒ…оҖ оҒҮоҒ•оҒүоҒ„оҒ…оҖ </tspan><tspan y="0" x="4.461 4.641 4.821 5.001 5.181 5.361" font-family="g_d0_f2" font-size="1px" fill="#2c2e35">оҖ оҖ оҖ оҖ оҖ оҖ№</tspan></text></g><g clip-path="url(#clippath0)"><g transform=""><path d="M 678.537 548.212 L 805.89 548.212 L 805.89 557.276 L 678.537 557.276 Z" fill="none"></path></g></g><g clip-path="url(#clippath1)"><g transform="translate(722.4628 557.1514)"><path d="M 0 0 L -0.788 0 L -2.166 -6.22 L -2.34 -7.183 L -2.389 -7.183 L -2.613 -6.283 L -4.038 -0.274 C -4.038 -0.272 -4.039 -0.271 -4.039 -0.27 C -4.071 -0.116 -4.208 0 -4.371 0 C -4.373 0 -4.376 0 -4.378 0 L -5.357 0 L -4.786 -2.21 L -5.94 -6.245 L -6.214 -7.183 L -6.263 -7.183 L -6.425 -6.245 L -7.47 -0.27 C -7.502 -0.116 -7.638 0 -7.802 0 C -7.804 0 -7.807 0 -7.809 0 L -8.784 0 L -7.108 -8.778 L -5.829 -8.778 C -5.828 -8.778 -5.828 -8.778 -5.827 -8.778 C -5.669 -8.778 -5.536 -8.671 -5.498 -8.525 L -4.488 -4.867 L -4.277 -4.13 L -4.239 -4.13 L -4.066 -4.892 L -3.134 -8.778 L -1.878 -8.778 C -1.878 -8.778 -1.877 -8.778 -1.877 -8.778 C -1.726 -8.778 -1.597 -8.68 -1.553 -8.544 L 0.338 -0.34 C 0.339 -0.339 0.339 -0.339 0.339 -0.339 C 0.381 -0.152 0.187 0 0 0 M 9.971 -4.408 L 9.337 -4.408 L 9.337 -1.105 L 10.182 -1.105 C 11.001 -1.105 11.374 -1.664 11.374 -2.781 C 11.374 -3.886 10.852 -4.408 9.971 -4.408 M 12.417 -6.63 L 11.535 -5.029 C 12.28 -4.569 12.665 -3.688 12.665 -2.719 C 12.665 -0.869 11.721 0 10.368 0 L 8.434 0 C 8.248 0 8.098 -0.15 8.096 -0.335 L 8.096 -8.778 L 8.997 -8.778 C 8.997 -8.778 8.998 -8.778 8.999 -8.778 C 9.185 -8.778 9.337 -8.627 9.337 -8.44 C 9.337 -8.437 9.337 -8.434 9.337 -8.432 L 9.337 -5.451 L 9.809 -5.451 C 10.033 -5.451 10.256 -5.451 10.405 -5.414 L 11.374 -7.35 C 11.881 -8.366 12.681 -8.831 13.377 -8.917 L 13.741 -7.932 C 13.061 -7.572 12.702 -7.138 12.417 -6.63 M 15.668 -7.648 L 15.668 0 L 14.765 0 C 14.58 0 14.43 -0.148 14.426 -0.333 L 14.426 -8.778 L 17.957 -8.778 L 18.374 -7.648 Z M 21.168 -7.673 L 20.274 -7.673 L 20.274 -1.105 L 20.995 -1.105 C 22.509 -1.105 23.44 -2.247 23.44 -4.495 C 23.44 -6.556 22.621 -7.673 21.168 -7.673 M 21.019 0 L 19.384 0 C 19.197 0 19.045 -0.152 19.045 -0.339 L 19.045 -8.442 C 19.046 -8.628 19.197 -8.778 19.382 -8.778 L 21.069 -8.778 C 23.292 -8.778 24.682 -7.4 24.682 -4.358 C 24.682 -1.465 23.155 0 21.019 0 M 3.788 -0.944 C 2.409 -0.944 1.751 -2.409 1.751 -4.358 C 1.751 -6.32 2.459 -7.835 3.813 -7.835 C 5.265 -7.835 5.874 -6.37 5.874 -4.383 C 5.874 -2.334 5.129 -0.944 3.788 -0.944 M 3.738 -8.927 C 1.615 -8.927 0.497 -7.152 0.497 -4.371 C 0.497 -1.564 1.826 0.124 3.912 0.124 C 6.122 0.124 7.153 -1.813 7.153 -4.395 C 7.153 -7.164 5.911 -8.927 3.738 -8.927 M -15.118 -7.673 L -16.012 -7.673 L -16.012 -1.105 L -15.292 -1.105 C -13.777 -1.105 -12.846 -2.247 -12.846 -4.495 C -12.846 -6.556 -13.666 -7.673 -15.118 -7.673 M -15.267 0 L -16.903 0 C -17.09 0 -17.241 -0.152 -17.241 -0.339 L -17.241 -8.442 C -17.24 -8.628 -17.09 -8.778 -16.904 -8.778 L -15.218 -8.778 C -12.995 -8.778 -11.604 -7.4 -11.604 -4.358 C -11.604 -1.465 -13.132 0 -15.267 0 M -18.126 -7.674 L -18.126 -7.673 L -21.032 -7.673 L -21.032 -4.892 L -18.897 -4.892 L -18.512 -3.849 L -21.032 -3.849 L -21.032 -1.093 L -18.732 -1.093 L -18.328 0 L -22.274 0 L -22.274 -8.778 L -18.534 -8.778 Z M -25.472 -8.778 C -25.301 -8.762 -25.168 -8.619 -25.167 -8.444 L -25.167 -1.117 L -23.417 -1.117 C -23.237 -1.11 -23.093 -0.962 -23.093 -0.78 C -23.093 -0.777 -23.093 -0.775 -23.093 -0.773 L -23.093 0 L -28.072 0 L -28.482 -1.11 L -28.482 -1.117 L -26.408 -1.117 L -26.408 -8.778 Z M -39.298 0 C -39.481 -0.004 -39.629 -0.153 -39.63 -0.338 L -39.63 -5.401 C -39.63 -7.239 -40.313 -7.835 -41.157 -7.835 C -41.989 -7.835 -42.672 -7.313 -42.672 -5.687 L -42.672 0 L -43.599 0 C -43.78 -0.006 -43.926 -0.155 -43.926 -0.338 C -43.926 -0.338 -43.926 -0.339 -43.926 -0.339 L -43.926 -5.649 C -43.926 -8.294 -42.51 -8.94 -41.157 -8.94 C -39.878 -8.94 -38.425 -8.22 -38.425 -5.339 L -38.425 0 Z M -32.145 -8.778 C -31.96 -8.778 -31.811 -8.631 -31.806 -8.448 L -31.806 0 L -32.694 0 L -32.697 0 C -32.883 0 -33.035 -0.152 -33.035 -0.339 C -33.035 -0.342 -33.035 -0.345 -33.036 -0.348 L -33.036 -5.016 L -33.011 -6.506 L -35.842 0 L -36.893 0 L -36.895 0 C -37.076 0 -37.223 -0.142 -37.232 -0.321 L -37.232 -8.778 L -36.331 -8.778 C -36.331 -8.778 -36.33 -8.778 -36.329 -8.778 C -36.143 -8.778 -35.991 -8.627 -35.991 -8.44 L -35.991 -3.737 L -36.028 -2.297 L -33.16 -8.778 L -32.147 -8.778 C -32.146 -8.778 -32.145 -8.778 -32.145 -8.778 M -29.591 -8.778 C -29.415 -8.778 -29.271 -8.645 -29.254 -8.474 L -29.254 0 L -30.158 0 C -30.344 -0.001 -30.494 -0.15 -30.496 -0.335 L -30.496 -8.778 L -29.592 -8.778 C -29.592 -8.778 -29.591 -8.778 -29.591 -8.778 M 49.093 -7.144 L 49.093 -7.132 L 46.297 -7.132 L 46.297 -5.144 L 47.978 -5.144 L 48.548 -3.604 L 46.297 -3.604 L 46.297 -1.653 L 48.394 -1.653 L 49.004 0 L 44.765 0 C 44.762 -0.001 44.759 -0.001 44.756 -0.001 C 44.581 -0.001 44.438 -0.135 44.421 -0.305 L 44.421 -8.784 L 48.486 -8.784 Z M 39.889 -4.274 L 39.566 -4.274 L 39.566 -1.665 L 40.1 -1.665 C 40.771 -1.665 40.957 -2.224 40.957 -2.982 C 40.957 -3.678 40.684 -4.274 39.889 -4.274 M 44.076 -7.46 C 43.264 -6.966 42.857 -6.521 42.535 -6.088 L 41.839 -5.157 C 42.448 -4.697 42.896 -3.864 42.896 -2.933 C 42.896 -0.945 41.79 0 40.286 0 L 38.023 0 C 38.02 -0.001 38.017 -0.001 38.014 -0.001 C 37.828 -0.001 37.678 -0.151 37.677 -0.337 L 37.677 -8.784 L 39.226 -8.784 C 39.227 -8.784 39.227 -8.784 39.229 -8.784 C 39.414 -8.784 39.565 -8.634 39.565 -8.448 C 39.565 -8.445 39.566 -8.443 39.566 -8.441 L 39.566 -5.753 L 40.175 -5.753 L 40.796 -6.896 C 41.353 -7.913 42.264 -8.824 43.53 -8.939 Z M 54.823 0 L 54.212 -1.653 L 56.049 -1.653 L 56.049 -8.784 L 57.597 -8.784 C 57.598 -8.784 57.599 -8.784 57.6 -8.784 C 57.786 -8.784 57.936 -8.634 57.936 -8.448 C 57.936 -8.442 57.937 -8.437 57.938 -8.432 L 57.938 -1.653 L 59.535 -1.653 C 59.54 -1.652 59.545 -1.651 59.551 -1.651 C 59.737 -1.651 59.888 -1.501 59.888 -1.315 C 59.888 -1.312 59.888 -1.31 59.888 -1.307 L 59.888 0 Z M 65.073 -7.12 L 62.303 -7.12 L 62.303 0 L 60.772 0 C 60.769 -0.001 60.766 -0.001 60.763 -0.001 C 60.577 -0.001 60.427 -0.151 60.427 -0.337 L 60.427 -8.784 L 64.458 -8.784 Z M 67.171 -8.784 C 67.357 -8.784 67.507 -8.634 67.508 -8.449 L 67.508 0 L 65.975 0 C 65.972 -0.001 65.97 -0.001 65.967 -0.001 C 65.791 -0.001 65.647 -0.136 65.632 -0.308 L 65.632 -8.784 L 67.168 -8.784 C 67.169 -8.784 67.17 -8.784 67.171 -8.784 M 51.25 -2.39 C 51.25 -2.017 51.436 -1.57 52.007 -1.57 C 52.513 -1.57 52.795 -1.632 53.279 -1.78 C 53.442 -1.82 53.611 -1.732 53.672 -1.573 L 54.095 -0.452 C 53.138 0.045 52.616 0.107 51.871 0.107 C 50.852 0.107 49.386 -0.688 49.386 -2.353 C 49.386 -5.036 52.43 -4.925 52.43 -6.155 C 52.43 -6.515 52.219 -7.149 51.498 -7.149 C 50.953 -7.149 50.575 -7.069 50.038 -6.842 C 50.035 -6.841 50.033 -6.841 50.03 -6.84 C 49.855 -6.776 49.662 -6.867 49.599 -7.041 C 49.596 -7.048 49.593 -7.053 49.591 -7.057 L 49.187 -8.155 C 49.808 -8.602 50.467 -8.888 51.523 -8.888 C 52.79 -8.888 54.343 -8.055 54.343 -6.13 C 54.343 -3.67 51.25 -3.384 51.25 -2.39 M 35.471 -8.449 C 35.471 -8.448 35.471 -8.447 35.472 -8.446 L 37.136 -0.333 C 37.134 -0.149 36.984 0 36.799 0 L 35.402 0 L 34.471 -5.343 L 34.26 -6.734 L 34.27 -6.67 L 34.036 -5.467 L 32.906 -0.345 C 32.906 -0.342 32.904 -0.34 32.904 -0.337 C 32.863 -0.156 32.753 0 32.567 0 L 30.942 0 L 31.539 -2.224 L 30.346 -6.67 L 30.184 -5.43 L 29.534 -0.354 C 29.532 -0.349 29.531 -0.344 29.531 -0.337 C 29.531 -0.336 29.531 -0.335 29.531 -0.335 L 29.521 -0.256 C 29.485 -0.109 29.353 0 29.195 0 L 27.625 0 L 29.029 -8.784 L 31.03 -8.784 C 31.207 -8.777 31.317 -8.624 31.361 -8.449 C 31.361 -8.448 31.362 -8.448 31.362 -8.448 L 32.073 -5.604 L 32.284 -4.623 L 32.246 -4.797 L 32.599 -6.21 L 33.197 -8.784 L 35.139 -8.784 C 35.317 -8.777 35.427 -8.624 35.471 -8.449 M 81.266 -8.12 C 81.266 -8.116 81.266 -8.112 81.267 -8.109 L 81.267 -4.709 L 79.453 -4.709 L 79.453 -7.169 L 79.217 -7.169 C 77.962 -7.169 77.328 -6.076 77.328 -4.324 C 77.328 -2.634 77.9 -1.603 79.03 -1.603 C 79.603 -1.603 79.923 -1.667 80.483 -1.855 C 80.647 -1.896 80.819 -1.806 80.879 -1.643 C 80.88 -1.641 80.881 -1.64 80.882 -1.638 L 81.192 -0.473 C 80.546 -0.15 79.95 0.099 79.03 0.099 C 76.881 0.099 75.415 -1.765 75.415 -4.448 C 75.415 -7.293 76.645 -8.909 79.055 -8.909 C 79.765 -8.909 80.312 -8.782 80.936 -8.513 C 81.105 -8.428 81.266 -8.369 81.266 -8.12 M 74.252 -8.784 C 74.253 -8.784 74.253 -8.784 74.255 -8.784 C 74.436 -8.784 74.583 -8.641 74.59 -8.462 L 74.59 0 L 73.06 0 C 73.057 -0.001 73.055 -0.001 73.052 -0.001 C 72.866 -0.001 72.715 -0.152 72.715 -0.338 C 72.715 -0.341 72.715 -0.343 72.714 -0.345 L 72.714 -3.516 L 72.739 -5.057 L 70.59 0 L 68.91 0 C 68.907 -0.001 68.905 -0.001 68.902 -0.001 C 68.716 -0.001 68.565 -0.152 68.565 -0.338 C 68.565 -0.34 68.565 -0.341 68.565 -0.343 L 68.565 -8.784 L 70.103 -8.784 C 70.104 -8.784 70.104 -8.784 70.106 -8.784 C 70.282 -8.784 70.426 -8.649 70.441 -8.477 L 70.441 -5.082 L 70.416 -3.541 L 72.739 -8.784 Z M 83.278 -1.868 L 83.278 -1.268 L 83.288 -1.084 L 83.281 -1.084 L 83.083 -1.868 L 82.919 -1.868 L 82.733 -1.085 L 82.727 -1.085 L 82.739 -1.282 L 82.739 -1.868 L 82.59 -1.868 L 82.59 -0.815 L 82.791 -0.815 L 83.003 -1.701 L 83.007 -1.701 L 83.235 -0.815 L 83.427 -0.815 L 83.427 -1.868 Z M 82.243 -0.949 L 82.243 -1.868 L 82.094 -1.868 L 82.094 -0.949 L 81.845 -0.949 L 81.845 -0.815 L 82.492 -0.815 L 82.492 -0.949 Z" fill="#090b2e" fill-opacity="1"></path></g></g><g transform=""><path d="M 36 211.996 L 182.081 211.996 L 182.081 383.279 L 36 383.279 Z" fill="none"></path></g><g clip-path="url(#clippath2)"><g transform="translate(154.9724 237.6709)"><path d="M 0 0 C 0 3.742 -1.312 6.137 -4.257 6.137 L -5.381 6.137 L -5.381 -5.734 L -3.856 -5.734 C -1.071 -5.734 0 -3.446 0 0 M 4.096 0.269 C 4.096 -6.272 0.991 -9.314 -4.069 -9.314 L -8.706 -9.314 C -9.087 -9.293 -9.389 -8.98 -9.396 -8.595 L -9.396 8.981 C -9.396 9.386 -9.069 9.716 -8.666 9.716 C -8.656 9.716 -8.649 9.717 -8.642 9.718 L -4.176 9.718 C 0.669 9.718 4.096 6.865 4.096 0.269 M -42.162 0.215 C -42.162 -3.446 -42.912 -6.083 -45.535 -6.083 C -47.865 -6.083 -49.203 -3.5 -49.203 0.269 C -49.203 3.823 -48.239 6.569 -45.776 6.569 C -43.394 6.569 -42.162 4.172 -42.162 0.215 M -38.04 0.189 C -38.04 6.03 -40.235 10.014 -45.428 10.014 C -50.274 10.014 -53.245 6.595 -53.245 0.242 C -53.245 -6.004 -50.837 -9.637 -45.803 -9.637 C -40.743 -9.637 -38.04 -6.218 -38.04 0.189 M -28.879 3.253 C -28.879 4.898 -29.282 6.112 -30.729 6.112 L -31.883 6.112 L -31.883 0.449 L -31.185 0.449 C -29.469 0.449 -28.879 1.743 -28.879 3.253 M -23.326 -9.675 C -26.057 -9.427 -28.025 -7.45 -29.228 -5.242 L -30.569 -2.76 L -31.883 -2.76 L -31.883 -8.594 C -31.883 -8.599 -31.884 -8.604 -31.884 -8.609 C -31.884 -9.012 -32.209 -9.34 -32.61 -9.34 L -32.617 -9.34 L -35.959 -9.34 L -35.959 8.995 C -35.958 9.397 -35.633 9.723 -35.233 9.723 C -35.225 9.723 -35.22 9.724 -35.213 9.725 L -30.327 9.725 C -27.082 9.725 -24.695 7.676 -24.695 3.361 C -24.695 1.339 -25.661 -0.468 -26.975 -1.466 L -25.473 -3.488 C -24.779 -4.428 -23.899 -5.394 -22.147 -6.466 Z M -10.747 -5.726 L -16.726 -5.726 L -16.726 9.725 L -20.03 9.725 C -20.037 9.725 -20.042 9.723 -20.049 9.723 C -20.45 9.723 -20.775 9.397 -20.776 8.994 L -20.776 -9.34 L -12.075 -9.34 Z M -57.238 -8.611 C -57.237 -8.61 -57.237 -8.608 -57.236 -8.606 L -53.644 9.002 C -53.649 9.402 -53.972 9.725 -54.37 9.725 L -57.385 9.725 L -59.397 -1.871 L -59.851 -4.891 L -59.83 -4.749 L -60.336 -2.14 L -62.773 8.978 C -62.775 8.983 -62.778 8.989 -62.779 8.994 C -62.868 9.388 -63.105 9.725 -63.505 9.725 L -67.013 9.725 L -65.726 4.898 L -68.3 -4.749 L -68.649 -2.059 L -70.053 8.958 C -70.056 8.968 -70.058 8.98 -70.058 8.994 L -70.058 9 L -70.08 9.17 C -70.158 9.489 -70.444 9.725 -70.784 9.725 L -74.173 9.725 L -71.143 -9.34 L -66.824 -9.34 C -66.441 -9.324 -66.203 -8.993 -66.108 -8.611 C -66.108 -8.61 -66.108 -8.61 -66.107 -8.609 L -64.573 -2.437 L -64.117 -0.309 L -64.198 -0.686 L -63.436 -3.753 L -62.146 -9.34 L -57.954 -9.34 C -57.571 -9.324 -57.333 -8.993 -57.238 -8.611 M -73.378 -24.131 L -73.378 -24.13 C -73.443 -23.962 -73.606 -23.841 -73.797 -23.841 C -73.828 -23.841 -73.858 -23.844 -73.887 -23.85 C -74.4 -23.99 -74.937 -24.071 -75.491 -24.071 C -77.267 -24.071 -78.567 -22.599 -78.567 -19.54 C -78.567 -16.58 -77.333 -15.175 -75.738 -15.175 C -75.088 -15.175 -74.592 -15.278 -73.966 -15.5 C -73.921 -15.516 -73.875 -15.524 -73.826 -15.524 C -73.642 -15.524 -73.485 -15.413 -73.415 -15.255 L -73.085 -14.356 L -73.074 -14.315 C -73.765 -13.885 -74.505 -13.67 -75.689 -13.67 C -78.452 -13.67 -80.244 -16.067 -80.244 -19.705 C -80.244 -23.243 -78.666 -25.642 -75.705 -25.642 C -74.373 -25.642 -73.682 -25.394 -73.041 -25.063 L -73.049 -25.026 Z M -13.249 -16.712 C -13.249 -15.786 -12.771 -15.191 -11.884 -15.191 C -11.383 -15.191 -10.992 -15.262 -10.515 -15.427 C -10.512 -15.427 -10.508 -15.428 -10.505 -15.43 C -10.457 -15.447 -10.404 -15.457 -10.35 -15.457 C -10.167 -15.457 -10.009 -15.349 -9.938 -15.192 L -9.918 -15.14 L -9.918 -15.139 L -9.598 -14.315 C -10.421 -13.868 -11.078 -13.703 -11.967 -13.703 C -13.414 -13.703 -14.893 -14.777 -14.893 -16.712 C -14.893 -20.102 -10.881 -20.185 -10.881 -22.367 C -10.881 -23.459 -11.555 -24.12 -12.575 -24.12 C -13.166 -24.12 -13.653 -23.993 -14.219 -23.714 L -14.219 -23.714 C -14.279 -23.684 -14.347 -23.667 -14.418 -23.667 C -14.61 -23.667 -14.773 -23.789 -14.838 -23.958 L -15.156 -24.826 C -14.457 -25.334 -13.714 -25.626 -12.558 -25.626 C -10.914 -25.626 -9.203 -24.584 -9.203 -22.285 C -9.203 -19.077 -13.249 -18.729 -13.249 -16.712 M 8.456 -17.704 C 8.456 -16.183 7.847 -15.257 6.779 -15.257 L 5.76 -15.257 L 5.76 -20.052 L 6.516 -20.052 C 7.667 -20.052 8.456 -19.209 8.456 -17.704 M 10.167 -17.654 C 10.167 -19.805 8.884 -21.524 6.433 -21.524 L 5.76 -21.524 L 5.76 -25.026 C 5.759 -25.275 5.558 -25.476 5.311 -25.476 C 5.309 -25.476 5.308 -25.476 5.306 -25.476 L 4.115 -25.476 L 4.115 -14.205 C 4.131 -13.971 4.325 -13.786 4.562 -13.786 C 4.565 -13.786 4.569 -13.786 4.573 -13.785 L 6.944 -13.785 C 8.917 -13.785 10.167 -15.208 10.167 -17.654 M -1.043 -25.476 C -1.04 -25.476 -1.036 -25.476 -1.032 -25.476 C -0.784 -25.476 -0.583 -25.273 -0.583 -25.025 L -0.583 -25.021 L -0.583 -13.785 L -1.768 -13.785 C -1.771 -13.786 -1.775 -13.786 -1.779 -13.786 C -2.027 -13.786 -2.227 -13.988 -2.227 -14.237 L -2.228 -14.242 L -2.228 -18.878 L -6.076 -18.878 L -6.076 -13.785 L -7.26 -13.785 C -7.264 -13.786 -7.267 -13.786 -7.271 -13.786 C -7.519 -13.786 -7.72 -13.988 -7.72 -14.237 L -7.72 -14.24 L -7.72 -25.476 L -6.535 -25.476 C -6.531 -25.476 -6.528 -25.476 -6.524 -25.476 C -6.282 -25.476 -6.086 -25.284 -6.076 -25.044 L -6.076 -20.333 L -2.228 -20.333 L -2.228 -25.476 Z M -47.17 -25.476 L -45.975 -25.476 L -45.974 -25.476 C -45.728 -25.476 -45.528 -25.276 -45.525 -25.029 L -45.525 -13.785 L -47.299 -13.785 L -47.3 -13.785 C -47.498 -13.785 -47.666 -13.914 -47.725 -14.094 L -50.163 -23.624 L -50.212 -23.624 L -52.548 -13.785 L -54.317 -13.785 L -54.318 -13.785 C -54.566 -13.785 -54.767 -13.988 -54.767 -14.236 C -54.767 -14.236 -54.767 -14.239 -54.768 -14.241 L -54.768 -25.476 L -53.573 -25.476 L -53.571 -25.476 C -53.326 -25.476 -53.126 -25.278 -53.123 -25.032 L -53.123 -18.962 L -53.125 -17.055 L -51.133 -25.476 L -49.67 -25.476 C -49.463 -25.475 -49.288 -25.332 -49.238 -25.139 L -47.164 -17.055 L -47.17 -18.812 Z M -58.694 -19.986 L -59.467 -16.58 L -59.681 -15.714 L -59.78 -15.714 L -59.993 -16.58 L -60.865 -19.986 Z M -57.463 -25.134 L -58.381 -21.375 L -61.227 -21.375 L -62.256 -25.151 C -62.31 -25.338 -62.482 -25.475 -62.685 -25.476 L -63.99 -25.476 L -60.795 -14.119 C -60.745 -13.932 -60.576 -13.793 -60.376 -13.785 L -58.612 -13.785 L -55.651 -25.476 L -57.029 -25.476 C -57.238 -25.475 -57.414 -25.33 -57.463 -25.134 M -26.571 -19.623 C -26.571 -22.268 -27.376 -24.22 -29.3 -24.22 C -31.093 -24.22 -32.03 -22.203 -32.03 -19.59 C -32.03 -16.993 -31.159 -15.042 -29.333 -15.042 C -27.557 -15.042 -26.571 -16.894 -26.571 -19.623 M -24.877 -19.639 C -24.877 -16.199 -26.242 -13.62 -29.169 -13.62 C -31.932 -13.62 -33.691 -15.869 -33.691 -19.606 C -33.691 -23.31 -32.211 -25.675 -29.399 -25.675 C -26.521 -25.675 -24.877 -23.327 -24.877 -19.639 M -16.739 -25.489 C -16.495 -25.489 -16.296 -25.292 -16.291 -25.048 L -16.291 -13.779 L -17.468 -13.779 L -17.471 -13.779 C -17.719 -13.779 -17.921 -13.982 -17.921 -14.231 C -17.921 -14.235 -17.921 -14.239 -17.921 -14.243 L -17.921 -20.47 L -17.888 -22.459 L -21.644 -13.779 L -23.038 -13.779 L -23.04 -13.779 C -23.281 -13.779 -23.476 -13.969 -23.488 -14.208 L -23.488 -25.489 L -22.293 -25.489 C -22.292 -25.489 -22.291 -25.489 -22.291 -25.489 C -22.043 -25.489 -21.842 -25.287 -21.841 -25.038 L -21.841 -18.765 L -21.891 -16.843 L -18.086 -25.489 L -16.741 -25.489 C -16.74 -25.489 -16.74 -25.489 -16.739 -25.489 M -35.477 -25.489 C -35.244 -25.489 -35.053 -25.311 -35.03 -25.084 L -35.03 -13.779 L -36.23 -13.779 C -36.475 -13.78 -36.674 -13.979 -36.677 -14.226 L -36.677 -25.489 L -35.479 -25.489 C -35.478 -25.489 -35.477 -25.489 -35.477 -25.489 M 2.183 -25.489 C 2.416 -25.489 2.607 -25.311 2.63 -25.084 L 2.63 -13.779 L 1.43 -13.779 C 1.184 -13.78 0.986 -13.979 0.983 -14.226 L 0.983 -25.489 L 2.181 -25.489 C 2.182 -25.489 2.182 -25.489 2.183 -25.489 M -39.636 -17.704 C -39.636 -16.183 -40.244 -15.257 -41.313 -15.257 L -42.333 -15.257 L -42.333 -20.052 L -41.576 -20.052 C -40.425 -20.052 -39.636 -19.209 -39.636 -17.704 M -37.925 -17.654 C -37.925 -19.805 -39.209 -21.524 -41.659 -21.524 L -42.333 -21.524 L -42.333 -25.026 C -42.334 -25.275 -42.534 -25.476 -42.782 -25.476 C -42.783 -25.476 -42.784 -25.476 -42.786 -25.476 L -43.977 -25.476 L -43.977 -14.205 C -43.961 -13.971 -43.767 -13.786 -43.53 -13.786 C -43.527 -13.786 -43.523 -13.786 -43.519 -13.785 L -41.149 -13.785 C -39.175 -13.785 -37.925 -15.208 -37.925 -17.654 M -66.519 -25.476 L -66.519 -20.333 L -70.367 -20.333 L -70.367 -25.044 C -70.377 -25.284 -70.573 -25.476 -70.814 -25.476 C -70.818 -25.476 -70.822 -25.476 -70.825 -25.476 L -72.011 -25.476 L -72.011 -14.24 L -72.011 -14.237 C -72.011 -13.988 -71.81 -13.786 -71.562 -13.786 C -71.558 -13.786 -71.554 -13.786 -71.551 -13.785 L -70.367 -13.785 L -70.367 -18.878 L -66.519 -18.878 L -66.519 -14.242 C -66.518 -14.241 -66.518 -14.237 -66.518 -14.237 C -66.518 -13.988 -66.317 -13.786 -66.069 -13.786 C -66.066 -13.786 -66.062 -13.786 -66.058 -13.785 L -64.874 -13.785 L -64.874 -25.021 L -64.874 -25.025 C -64.874 -25.273 -65.075 -25.476 -65.323 -25.476 C -65.326 -25.476 -65.33 -25.476 -65.334 -25.476 Z" fill="#090b2e" fill-opacity="1"></path></g></g><g transform=""><path d="M 36 367.741 C 36 359.161 42.955 352.205 51.537 352.205 L 51.537 352.205 C 60.118 352.205 67.074 359.161 67.074 367.741 L 67.074 367.741 C 67.074 376.322 60.118 383.279 51.537 383.279 L 51.537 383.279 C 42.955 383.279 36 376.322 36 367.741" fill="none"></path></g><g clip-path="url(#clippath3)"><g transform="matrix(31.0740177 0 0 -31.0740177 36.000053 367.7421691)"><rect x="-1.1585258574400568" y="-7.3223177349223185" width="27.09305272745597" height="19.15671175021568" fill="url(#shading0)"></rect></g></g><g transform=""><path d="M 36 211.996 L 182.081 211.996 L 182.081 383.279 L 36 383.279 Z" fill="none"></path></g><g clip-path="url(#clippath4)"><g transform="translate(60.3432 364.7394)"><path d="M 0 0 L 0 -0.001 C -0.034 -0.133 -0.117 -0.249 -0.251 -0.254 L -1.704 -0.254 L -2.157 1.691 L -2.437 2.758 L -2.409 2.889 L -2.569 2.149 L -3.105 -0.001 L -3.106 -0.001 C -3.138 -0.133 -3.222 -0.249 -3.356 -0.254 L -4.869 -0.254 L -5.93 6.382 L -4.744 6.382 C -4.624 6.382 -4.524 6.301 -4.497 6.191 L -4.488 6.131 L -4.488 6.129 C -4.488 6.124 -4.488 6.119 -4.487 6.115 L -3.996 2.279 L -3.873 1.343 L -2.972 4.702 L -3.423 6.382 L -2.194 6.382 C -2.054 6.382 -1.971 6.265 -1.939 6.126 L -1.938 6.124 L -1.084 2.252 L -0.908 1.343 L -0.757 2.346 L -0.051 6.382 L 1.004 6.382 C 1.144 6.382 1.256 6.27 1.258 6.132 Z M -7.436 0 L -7.436 -0.001 C -7.468 -0.133 -7.551 -0.249 -7.687 -0.254 L -9.14 -0.254 L -9.591 1.691 L -9.872 2.755 L -10.003 2.149 L -10.54 -0.001 L -10.541 -0.001 C -10.574 -0.133 -10.657 -0.249 -10.793 -0.254 L -12.305 -0.254 L -13.365 6.382 L -12.179 6.382 C -12.059 6.382 -11.959 6.301 -11.932 6.191 L -11.924 6.131 L -11.924 6.129 C -11.924 6.124 -11.924 6.119 -11.923 6.115 L -11.431 2.279 L -11.308 1.343 L -10.406 4.702 L -10.858 6.382 L -9.63 6.382 C -9.49 6.382 -9.406 6.265 -9.374 6.126 C -9.374 6.126 -9.374 6.124 -9.373 6.124 L -8.52 2.252 L -8.343 1.346 L -8.191 2.346 L -7.487 6.382 L -6.432 6.382 C -6.292 6.382 -6.179 6.27 -6.177 6.132 Z M -13.712 2.506 C -13.712 0.187 -14.904 -0.377 -16.021 -0.377 C -17.166 -0.377 -18.359 0.131 -18.359 2.29 L -18.359 6.132 C -18.356 6.268 -18.25 6.376 -18.117 6.382 L -16.933 6.382 L -16.933 2.234 C -16.933 1.331 -16.66 0.862 -16.021 0.862 C -15.42 0.862 -15.12 1.341 -15.12 2.421 L -15.12 6.144 C -15.112 6.273 -15.008 6.376 -14.879 6.382 L -13.712 6.382 Z" fill="#ffffff" fill-opacity="1"></path></g></g><g transform=""><path d="M 57.786 321.132 C 57.786 286.807 85.61 258.983 119.934 258.983 L 119.934 258.983 C 154.257 258.983 182.081 286.807 182.081 321.132 L 182.081 321.132 C 182.081 355.455 154.257 383.279 119.934 383.279 L 119.934 383.279 C 85.61 383.279 57.786 355.455 57.786 321.132" fill="none"></path></g><g clip-path="url(#clippath5)"><g transform="matrix(62.1508263 0 0 -62.1446454 119.9335371 321.1316279)"><rect x="-1.9297174991863302" y="-4.4113916868532" width="13.545918053224659" height="9.578878375899462" fill="url(#shading1)"></rect></g></g><g transform=""><path d="M 36 211.996 L 182.081 211.996 L 182.081 383.279 L 36 383.279 Z" fill="none"></path></g><g clip-path="url(#clippath6)"><g transform="translate(168.0037 321.1317)"><path d="M 0 0 C 0 -26.549 -21.522 -48.07 -48.07 -48.07 C -74.619 -48.07 -96.14 -26.549 -96.14 0 C -96.14 26.548 -74.619 48.069 -48.07 48.069 C -21.522 48.069 0 26.548 0 0" fill="#090b2e" fill-opacity="1"></path></g></g><g transform=""><path d="M 120.57 349.982 C 118.805 350.104 119.271 352.618 119.538 355.908 L 119.538 355.908 C 119.809 359.194 113.698 359.355 114.768 355.041 L 114.768 355.041 C 115.425 352.409 117.086 350.237 114.19 349.331 L 114.19 349.331 C 109.791 347.956 109.04 356.842 111.389 362.048 L 111.389 362.048 C 103.263 357.314 109.182 345.519 106.074 345.327 L 106.074 345.327 C 103.702 345.181 105.393 348.928 103.784 351.572 L 103.784 351.572 C 101.062 356.036 96.638 351.546 99.268 349.156 L 99.268 349.156 C 101.29 347.315 102.717 343.541 100.651 341.765 L 100.651 341.765 C 99.475 340.754 98.269 342.8 96.286 344.846 L 96.286 344.846 C 94.425 346.766 91.88 348.686 88.034 348.08 L 88.034 348.08 C 95.63 342.775 96.413 334.95 94.681 334.138 L 94.681 334.138 C 93.706 333.681 92.5 336.586 89.69 337.606 L 89.69 337.606 C 87.246 338.493 85.829 336.814 85.858 335.135 L 85.858 335.135 C 85.883 333.751 86.889 332.369 89.113 332.421 L 89.113 332.421 C 91.515 332.481 93.421 331.366 92.318 329.951 L 92.318 329.951 C 90.776 327.978 83.718 328.471 79.861 332.077 L 79.861 332.077 C 81.445 324.211 91.148 325.719 91.379 323.495 L 91.379 323.495 C 91.049 320.943 87.417 320.301 84.799 320.448 L 84.799 320.448 C 82.277 320.59 81.447 319.141 81.696 317.691 L 81.696 317.691 C 81.986 315.993 83.759 314.293 86.028 315.158 L 86.028 315.158 C 88.71 316.178 91.001 316.099 91.648 315.139 L 91.648 315.139 C 92.299 314.183 93.006 312.767 88.322 309.829 L 88.322 309.829 C 85.865 308.287 83.377 307.606 80.728 306.706 L 80.728 306.706 C 84.514 305.841 91.35 305.022 96.622 307.795 L 96.622 307.795 C 99.144 309.121 103.062 312.151 103.333 315.275 L 103.333 315.275 C 103.393 315.961 103.387 317.455 100.661 317.184 L 100.661 317.184 C 96.419 316.764 95.267 319.496 97.007 321.859 L 97.007 321.859 C 98.713 324.174 104.125 323.835 102.861 320.614 L 102.861 320.614 C 102.291 319.161 112.954 320.062 115.833 323.381 L 115.833 323.381 C 117.3 321.462 116.48 316.324 115.487 315.235 L 115.487 315.235 C 110.431 312.149 109.319 313.359 106.521 310.456 L 106.521 310.456 C 105.808 309.714 102.486 305.676 99.155 304.123 L 99.155 304.123 C 94.302 301.859 89.77 297.4 91.352 290.582 L 91.352 290.582 C 95.384 298.096 99.947 300.949 101.192 298.195 L 101.192 298.195 C 101.624 297.242 99.881 295.275 97.568 293.757 L 97.568 293.757 C 95.462 292.376 98.869 289.059 101.275 291.054 L 101.275 291.054 C 102.81 292.326 103.109 295.269 104.599 294.561 L 104.599 294.561 C 106.482 293.273 104.351 286.966 102.986 282.852 L 102.986 282.852 C 110.178 286.908 108.253 293.702 111.282 293.089 L 111.282 293.089 C 112.957 292.667 110.163 288.991 112.39 287.581 L 112.39 287.581 C 113.417 286.93 114.642 287.456 115.125 288.076 L 115.125 288.076 C 116.229 289.493 114.996 293.346 116.382 292.4 L 116.382 292.4 C 119.579 290.219 118.888 283.234 117.184 279.347 L 117.184 279.347 C 120.01 281.299 123.091 286.592 122.409 291.549 L 122.409 291.549 C 122.159 293.368 124.814 293.52 124.188 290.907 L 124.188 290.907 C 123.684 288.798 125.248 286.944 126.909 287.162 L 126.909 287.162 C 129.531 287.504 129.721 289.606 128.699 292.306 L 128.699 292.306 C 127.548 295.348 133.636 290.479 139.427 284.089 L 139.427 284.089 C 138.345 287.932 137.322 292.797 132.418 297.354 L 132.418 297.354 C 126.454 302.894 126.971 312.633 128.87 317.147 L 128.87 317.147 C 126.743 317.406 123.695 318.291 122.251 319.358 L 122.251 319.358 C 120.783 311.541 112.585 310.42 113.396 311.075 L 113.396 311.075 C 119.191 315.75 118.338 320.809 117.733 322.894 L 117.733 322.894 C 117.128 324.978 116.087 325.376 115.923 325.089 L 115.923 325.089 C 115.271 323.941 113.07 323.407 111.343 325.057 L 111.343 325.057 C 109.615 326.709 109.865 329.042 110.805 329.919 L 110.805 329.919 C 113.851 332.762 117.435 328.143 117.435 328.143 L 117.435 328.143 C 117.435 328.143 121.449 325.361 126.263 323.861 L 126.263 323.861 C 137.391 320.393 141.828 324.355 145.489 329.395 L 145.489 329.395 C 147.057 331.555 151.742 332.71 153.031 333.213 L 153.031 333.213 C 156.775 334.676 153.648 339.924 149.403 336.297 L 149.403 336.297 C 147.115 334.343 145.071 336.328 146.541 336.935 L 146.541 336.935 C 153.776 339.923 152.903 345.027 152.429 347.345 L 152.429 347.345 C 152.429 347.345 150.433 339.019 140.627 338.246 L 140.627 338.246 C 128.944 337.325 124.61 328.034 124.452 325.689 L 124.452 325.689 C 124.452 325.689 119.48 327.248 117.355 330.413 L 117.355 330.413 C 116.422 337.04 120.498 343.974 124.998 347.505 L 124.998 347.505 C 128.102 349.942 128.537 359.96 121.134 362.791 L 121.134 362.791 C 125.072 356.495 123.229 349.795 120.57 349.982 M 136.653 353.924 C 133.222 352.633 135.651 347.539 131.442 345.398 L 131.442 345.398 C 125.842 342.855 120.913 336.44 121.774 331.033 L 121.774 331.033 C 123.66 335.874 131.241 341.29 136.381 342.358 L 136.381 342.358 C 147.287 344.624 146.189 353.764 146.189 353.764 L 146.189 353.764 C 143.657 348.023 137.628 345.298 137.027 347.163 L 137.027 347.163 C 136.871 347.649 139.27 349.991 139.485 351.499 L 139.485 351.499 C 139.671 352.811 138.345 354.017 137.181 354.017 L 137.181 354.017 C 136.999 354.017 136.821 353.987 136.653 353.924 M 146.754 322.429 C 141.952 317.313 133.152 316.907 133.152 316.907 L 133.152 316.907 C 131.494 310.516 133.507 303.653 138.382 301.621 L 138.382 301.621 C 144.785 298.951 145.069 297.418 146.711 297.154 L 146.711 297.154 C 148.48 296.869 150.197 298.308 150.214 299.913 L 150.214 299.913 C 150.233 301.576 145.988 302.285 144.977 303.513 L 144.977 303.513 C 144.642 303.92 144.569 305.412 146.268 305.447 L 146.268 305.447 C 148.974 305.501 151.501 304.438 153.401 303.375 L 153.401 303.375 C 155.491 302.206 156.823 301.036 156.802 301.354 L 156.802 301.354 C 156.347 307.983 147.649 309.125 147.919 311.284 L 147.919 311.284 C 148.174 313.335 150.203 312.856 152.211 312.377 L 152.211 312.377 C 153.208 312.14 154.199 311.902 154.966 311.974 L 154.966 311.974 C 157.494 312.211 158.829 317.805 155.019 317.64 L 155.019 317.64 C 150.729 317.453 149.254 317.464 149.61 318.861 L 149.61 318.861 C 150.012 320.44 155.363 323.756 161.278 326.71 L 161.278 326.71 C 161.278 326.71 160.673 326.763 159.688 326.763 L 159.688 326.763 C 156.734 326.763 150.372 326.281 146.754 322.429" fill="none"></path></g><g clip-path="url(#clippath7)"><g transform="matrix(41.2180743 0 0 -41.2180743 120.5699208 321.0690149)"><rect x="-2.925171125716565" y="-6.652590878075059" width="20.425262807583422" height="14.442110896966383" fill="url(#shading2)"></rect></g></g><g transform=""><path d="M 93.082 321.132 C 93.082 306.3 105.104 294.279 119.934 294.279 L 119.934 294.279 C 134.766 294.279 146.786 306.3 146.786 321.132 L 146.786 321.132 C 146.786 335.962 134.766 347.984 119.934 347.984 L 119.934 347.984 C 105.104 347.984 93.082 335.962 93.082 321.132" fill="none"></path></g><g clip-path="url(#clippath8)"><g transform="matrix(39.1658862 0 0 -39.1619919 130.3136477 329.2550608)"><rect x="-3.3272232634940346" y="-6.792834743423761" width="21.49549216634347" height="15.200350419356477" fill="url(#shading3)"></rect></g></g><g transform=""><path d="M 117.355 330.413 C 119.48 327.248 124.452 325.689 124.452 325.689 L 124.452 325.689 C 124.61 328.034 128.944 337.325 140.627 338.246 L 140.627 338.246 C 139.367 339.767 137.942 341.147 136.381 342.358 L 136.381 342.358 C 131.241 341.29 123.66 335.874 121.774 331.033 L 121.774 331.033 C 120.913 336.44 125.842 342.855 131.442 345.398 L 131.442 345.398 C 129.421 346.359 127.26 347.073 124.998 347.505 L 124.998 347.505 C 120.498 343.974 116.422 337.04 117.355 330.413 M 110.805 329.919 C 109.865 329.042 109.615 326.709 111.343 325.057 L 111.343 325.057 C 113.07 323.407 115.271 323.941 115.923 325.089 L 115.923 325.089 C 116.087 325.376 117.128 324.978 117.733 322.894 L 117.733 322.894 C 118.338 320.809 119.191 315.75 113.396 311.075 L 113.396 311.075 C 112.585 310.42 120.783 311.541 122.251 319.358 L 122.251 319.358 C 123.695 318.291 126.743 317.406 128.87 317.147 L 128.87 317.147 C 126.971 312.633 126.454 302.894 132.418 297.354 L 132.418 297.354 C 134.6 298.501 136.606 299.94 138.382 301.621 L 138.382 301.621 C 133.507 303.653 131.494 310.516 133.152 316.907 L 133.152 316.907 C 133.152 316.907 141.952 317.313 146.754 322.429 L 146.754 322.429 C 146.639 324.849 146.203 327.184 145.489 329.395 L 145.489 329.395 C 141.828 324.355 137.391 320.393 126.263 323.861 L 126.263 323.861 C 121.449 325.361 117.435 328.143 117.435 328.143 L 117.435 328.143 C 117.435 328.143 115.339 330.844 112.991 330.844 L 112.991 330.844 C 112.268 330.844 111.523 330.589 110.805 329.919 M 102.861 320.614 C 104.125 323.835 98.713 324.174 97.007 321.859 L 97.007 321.859 C 95.267 319.496 96.419 316.764 100.661 317.184 L 100.661 317.184 C 103.387 317.455 103.393 315.961 103.333 315.275 L 103.333 315.275 C 103.062 312.151 99.144 309.121 96.622 307.795 L 96.622 307.795 C 97.366 306.499 98.213 305.271 99.155 304.123 L 99.155 304.123 C 102.486 305.676 105.808 309.714 106.521 310.456 L 106.521 310.456 C 109.319 313.359 110.431 312.149 115.487 315.235 L 115.487 315.235 C 116.48 316.324 117.3 321.462 115.833 323.381 L 115.833 323.381 C 112.954 320.062 102.291 319.161 102.861 320.614" fill="none"></path></g><g clip-path="url(#clippath9)"><g transform="matrix(39.1658862 0 0 -39.1619919 130.3136477 329.2550608)"><rect x="-3.3272232634940346" y="-6.792834743423761" width="21.49549216634347" height="15.200350419356477" fill="url(#shading4)"></rect></g></g><g transform="translate(153.6414 291.4832)"><path d="M 0 0 L 0 1.774 L 0.031 2.319 L 0.009 2.319 L -0.573 0 L -1.053 0 L -1.6 2.313 L -1.62 2.313 L -1.584 1.734 L -1.584 0 L -2.021 0 L -2.021 3.111 L -1.432 3.111 L -0.809 0.492 L -0.797 0.492 L -0.125 3.111 L 0.438 3.111 L 0.438 0 Z M -3.04 2.716 L -3.04 0 L -3.478 0 L -3.478 2.716 L -4.21 2.716 L -4.21 3.111 L -2.31 3.111 L -2.31 2.716 Z" fill="#ffffff" fill-opacity="1"></path></g><g transform=""><text transform="matrix(10 0 0 10 36.0499 551.4756) scale(1, -1)" xml:space="preserve"><tspan font-family="g_d0_f3" font-size="1px" y="0" x="0 0.266" fill="#2c2e35">оҖҹоҖ®</tspan><tspan font-family="g_d0_f3" font-size="1px" y="0" x="0.491 0.649 1.059 1.618 2.037 2.217 2.554 3.144 3.652 4.242 4.422 4.889 5.479 5.8159 6.4059 6.9599 7.4659 7.6459 8.0459 8.4569 8.8569 9.2669 9.6859" fill="#2c2e35">оҖ оҒ”оҒҲоҒ…оҖ оҒҢоҒҸоҒҮоҒҸоҖ оҒғоҒҸоҒҢоҒҸоҒ•оҒ’оҖ оҒ“оҒҷоҒ“оҒ”оҒ…оҒҚ</tspan></text><text transform="matrix(18 0 0 18 36 493.0781) scale(1, -1)" xml:space="preserve"><tspan font-family="g_d0_f2" font-size="1px" y="0" x="0 0.772 1.402 1.966 2.404 2.993 3.173 3.69 4.287 4.85 5.58 6.068 6.331 6.961 7.558 8.013 8.61 8.873" fill="#2c2e35">оҒ—оҒҸоҒ’оҒҢоҒ„оҖ оҒғоҒҲоҒҒоҒҚоҒҗоҒүоҒҸоҒҺоҒ“оҒҲоҒүоҒҗ</tspan><tspan y="0" x="9.361" font-family="g_d0_f1" font-size="1px" fill="#2c2e35">оҖ </tspan><tspan font-family="g_d0_f1" font-size="1px" y="1.2" x="0 0.392 0.941 1.347 1.527 1.981 2.56 2.879 3.458 4" fill="#2c2e35">оҒ”оҒҲоҒ…оҖ оҒғоҒҸоҒҢоҒҸоҒ•оҒ’</tspan><tspan font-family="g_d0_f1" font-size="1px" y="2.4" x="0 0.353 0.819 1.173 1.579 1.943 2.335" fill="#2c2e35">оҒҗоҒҒоҒҢоҒ…оҒ”оҒ”оҒ…</tspan></text><path d="M 0 0 L 841.89 0 L 841.89 595.276 L 0 595.276 Z" fill="none"></path></g><g clip-path="url(#clippath10)"><g transform="translate(683.3845 309.7532)"><path d="M 0 0 C 13.129 0 23.771 10.643 23.771 23.771 C 23.771 36.9 13.129 47.543 0 47.543 C -13.129 47.543 -23.771 36.9 -23.771 23.771 C -23.771 10.643 -13.129 0 0 0" fill="#0e195b" fill-opacity="1"></path></g></g><g clip-path="url(#clippath10)"><g transform="translate(683.3845 309.7532)"><path d="M 0 0 C 13.129 0 23.771 10.643 23.771 23.771 C 23.771 36.9 13.129 47.543 0 47.543 C -13.129 47.543 -23.771 36.9 -23.771 23.771 C -23.771 10.643 -13.129 0 0 0 Z" fill="none" stroke="#d8d9da" stroke-opacity="1" stroke-miterlimit="4" stroke-linecap="" stroke-linejoin="" stroke-width="1.44px" stroke-dasharray="" stroke-dashoffset="0px"></path></g></g><g clip-path="url(#clippath10)"><g transform="translate(754.4598 309.7532)"><path d="M 0 0 C 13.129 0 23.771 10.643 23.771 23.771 C 23.771 36.9 13.129 47.543 0 47.543 C -13.129 47.543 -23.771 36.9 -23.771 23.771 C -23.771 10.643 -13.129 0 0 0" fill="#090b2e" fill-opacity="1"></path></g></g><g clip-path="url(#clippath10)"><g transform="translate(754.4598 309.7532)"><path d="M 0 0 C 13.129 0 23.771 10.643 23.771 23.771 C 23.771 36.9 13.129 47.543 0 47.543 C -13.129 47.543 -23.771 36.9 -23.771 23.771 C -23.771 10.643 -13.129 0 0 0 Z" fill="none" stroke="#d8d9da" stroke-opacity="1" stroke-miterlimit="4" stroke-linecap="" stroke-linejoin="" stroke-width="1.44px" stroke-dasharray="" stroke-dashoffset="0px"></path></g></g><g clip-path="url(#clippath10)"><g transform="translate(256.9323 309.7532)"><path d="M 0 0 C 13.129 0 23.771 10.643 23.771 23.771 C 23.771 36.9 13.129 47.543 0 47.543 C -13.129 47.543 -23.771 36.9 -23.771 23.771 C -23.771 10.643 -13.129 0 0 0" fill="#dedacb" fill-opacity="1"></path></g></g><g clip-path="url(#clippath10)"><g transform="translate(256.9323 309.7532)"><path d="M 0 0 C 13.129 0 23.771 10.643 23.771 23.771 C 23.771 36.9 13.129 47.543 0 47.543 C -13.129 47.543 -23.771 36.9 -23.771 23.771 C -23.771 10.643 -13.129 0 0 0 Z" fill="none" stroke="#d8d9da" stroke-opacity="1" stroke-miterlimit="4" stroke-linecap="" stroke-linejoin="" stroke-width="1.44px" stroke-dasharray="" stroke-dashoffset="0px"></path></g></g><g clip-path="url(#clippath10)"><g transform="translate(328.0077 309.7532)"><path d="M 0 0 C 13.129 0 23.771 10.643 23.771 23.771 C 23.771 36.9 13.129 47.543 0 47.543 C -13.129 47.543 -23.771 36.9 -23.771 23.771 C -23.771 10.643 -13.129 0 0 0" fill="#00b9f2" fill-opacity="1"></path></g></g><g clip-path="url(#clippath10)"><g transform="translate(328.0077 309.7532)"><path d="M 0 0 C 13.129 0 23.771 10.643 23.771 23.771 C 23.771 36.9 13.129 47.543 0 47.543 C -13.129 47.543 -23.771 36.9 -23.771 23.771 C -23.771 10.643 -13.129 0 0 0 Z" fill="none" stroke="#d8d9da" stroke-opacity="1" stroke-miterlimit="4" stroke-linecap="" stroke-linejoin="" stroke-width="1.44px" stroke-dasharray="" stroke-dashoffset="0px"></path></g></g><g clip-path="url(#clippath10)"><g transform="translate(399.083 309.7532)"><path d="M 0 0 C 13.129 0 23.771 10.643 23.771 23.771 C 23.771 36.9 13.129 47.543 0 47.543 C -13.129 47.543 -23.771 36.9 -23.771 23.771 C -23.771 10.643 -13.129 0 0 0" fill="#0090d3" fill-opacity="1"></path></g></g><g clip-path="url(#clippath10)"><g transform="translate(399.083 309.7532)"><path d="M 0 0 C 13.129 0 23.771 10.643 23.771 23.771 C 23.771 36.9 13.129 47.543 0 47.543 C -13.129 47.543 -23.771 36.9 -23.771 23.771 C -23.771 10.643 -13.129 0 0 0 Z" fill="none" stroke="#d8d9da" stroke-opacity="1" stroke-miterlimit="4" stroke-linecap="" stroke-linejoin="" stroke-width="1.44px" stroke-dasharray="" stroke-dashoffset="0px"></path></g></g><g clip-path="url(#clippath10)"><g transform="translate(470.1584 309.7532)"><path d="M 0 0 C 13.129 0 23.771 10.643 23.771 23.771 C 23.771 36.9 13.129 47.543 0 47.543 C -13.129 47.543 -23.771 36.9 -23.771 23.771 C -23.771 10.643 -13.129 0 0 0" fill="#0065b7" fill-opacity="1"></path></g></g><g clip-path="url(#clippath10)"><g transform="translate(470.1584 309.7532)"><path d="M 0 0 C 13.129 0 23.771 10.643 23.771 23.771 C 23.771 36.9 13.129 47.543 0 47.543 C -13.129 47.543 -23.771 36.9 -23.771 23.771 C -23.771 10.643 -13.129 0 0 0 Z" fill="none" stroke="#d8d9da" stroke-opacity="1" stroke-miterlimit="4" stroke-linecap="" stroke-linejoin="" stroke-width="1.44px" stroke-dasharray="" stroke-dashoffset="0px"></path></g></g><g clip-path="url(#clippath10)"><g transform="translate(541.2338 309.7532)"><path d="M 0 0 C 13.129 0 23.771 10.643 23.771 23.771 C 23.771 36.9 13.129 47.543 0 47.543 C -13.129 47.543 -23.771 36.9 -23.771 23.771 C -23.771 10.643 -13.129 0 0 0" fill="#0155ae" fill-opacity="1"></path></g></g><g clip-path="url(#clippath10)"><g transform="translate(541.2338 309.7532)"><path d="M 0 0 C 13.129 0 23.771 10.643 23.771 23.771 C 23.771 36.9 13.129 47.543 0 47.543 C -13.129 47.543 -23.771 36.9 -23.771 23.771 C -23.771 10.643 -13.129 0 0 0 Z" fill="none" stroke="#d8d9da" stroke-opacity="1" stroke-miterlimit="4" stroke-linecap="" stroke-linejoin="" stroke-width="1.44px" stroke-dasharray="" stroke-dashoffset="0px"></path></g></g><g clip-path="url(#clippath10)"><g transform="translate(612.3091 309.7532)"><path d="M 0 0 C 13.129 0 23.771 10.643 23.771 23.771 C 23.771 36.9 13.129 47.543 0 47.543 C -13.129 47.543 -23.771 36.9 -23.771 23.771 C -23.771 10.643 -13.129 0 0 0" fill="#101e6f" fill-opacity="1"></path></g></g><g clip-path="url(#clippath10)"><g transform="translate(612.3091 309.7532)"><path d="M 0 0 C 13.129 0 23.771 10.643 23.771 23.771 C 23.771 36.9 13.129 47.543 0 47.543 C -13.129 47.543 -23.771 36.9 -23.771 23.771 C -23.771 10.643 -13.129 0 0 0 Z" fill="none" stroke="#d8d9da" stroke-opacity="1" stroke-miterlimit="4" stroke-linecap="" stroke-linejoin="" stroke-width="1.44px" stroke-dasharray="" stroke-dashoffset="0px"></path></g></g><g transform=""><text transform="matrix(10 0 0 10 450.8193 284.452) scale(1, -1)" xml:space="preserve"><tspan font-family="g_d0_f2" font-size="1px" y="0" x="0 0.527 1.267 1.81 2.365" fill="#2c2e35">оҒғоҒҚоҒҷоҒӢоҖ </tspan><tspan font-family="g_d0_f2" font-size="1px" y="1.2" x="0 0.343 0.868 1.393 1.652 1.837 2.327 2.852 3.111 3.296 3.821 4.08 4.265" fill="#2c2e35">оҖҹоҖһоҖһоҖ¬оҖ оҖқоҖһоҖ¬оҖ оҖһоҖ¬оҖ оҖһ</tspan><tspan font-family="g_d0_f2" font-size="1px" y="3.6" x="0 0.555 1.117 1.635" fill="#2c2e35">оҒ’оҒҮоҒӮоҖ </tspan><tspan font-family="g_d0_f2" font-size="1px" y="4.8" x="0 0.525 0.784 0.969 1.312 1.837 2.27 2.529 2.714 3.057 3.449" fill="#2c2e35">оҖһоҖ¬оҖ оҖҹоҖһоҖңоҖ¬оҖ оҖҹоҖ–оҖ—</tspan><tspan font-family="g_d0_f2" font-size="1px" y="0" x="7.108 7.635 8.375 8.918 9.473" fill="#2c2e35">оҒғоҒҚоҒҷоҒӢоҖ </tspan><tspan font-family="g_d0_f2" font-size="1px" y="1.2" x="7.108 7.451 7.976 8.501 8.76 8.945 9.337 9.862 10.121 10.306 10.831 11.09 11.275" fill="#2c2e35">оҖҹоҖһоҖһоҖ¬оҖ оҖ–оҖһоҖ¬оҖ оҖһоҖ¬оҖ оҖһ</tspan><tspan font-family="g_d0_f2" font-size="1px" y="3.6" x="7.108 7.663 8.225 8.743" fill="#2c2e35">оҒ’оҒҮоҒӮоҖ </tspan><tspan font-family="g_d0_f2" font-size="1px" y="4.8" x="7.108 7.633 7.892 8.077 8.562 8.886 9.145 9.33 9.673 10.065" fill="#2c2e35">оҖһоҖ¬оҖ оҖ—оҖҹоҖ¬оҖ оҖҹоҖ–оҖһ</tspan><tspan font-family="g_d0_f2" font-size="1px" y="0" x="14.216 14.743 15.483 16.026 16.581" fill="#2c2e35">оҒғоҒҚоҒҷоҒӢоҖ </tspan><tspan font-family="g_d0_f2" font-size="1px" y="1.2" x="14.216 14.559 15.084 15.609 15.868 16.053 16.396 16.921 17.446 17.705 17.89 18.415 18.674 18.859 19.292" fill="#2c2e35">оҖҹоҖһоҖһоҖ¬оҖ оҖҹоҖһоҖһоҖ¬оҖ оҖһоҖ¬оҖ оҖңоҖ–</tspan><tspan font-family="g_d0_f2" font-size="1px" y="3.6" x="14.216 14.771 15.333 15.851" fill="#2c2e35">оҒ’оҒҮоҒӮоҖ </tspan><tspan font-family="g_d0_f2" font-size="1px" y="4.8" x="14.216 14.635 15.108 15.367 15.552 15.971 16.295 16.554 16.739 17.082 17.425" fill="#2c2e35">оҖҷоҖӣоҖ¬оҖ оҖҷоҖҹоҖ¬оҖ оҖҹоҖҹоҖҡ</tspan><tspan font-family="g_d0_f2" font-size="1px" y="0" x="21.324 21.851 22.591 23.134 23.689" fill="#2c2e35">оҒғоҒҚоҒҷоҒӢоҖ </tspan><tspan font-family="g_d0_f2" font-size="1px" y="1.2" x="21.324 21.667 22.192 22.717 22.976 23.161 23.504 24.029 24.554 24.813 24.998 25.523 25.782 25.967 26.44" fill="#2c2e35">оҖҹоҖһоҖһоҖ¬оҖ оҖҹоҖһоҖһоҖ¬оҖ оҖһоҖ¬оҖ оҖӣоҖҹ</tspan><tspan font-family="g_d0_f2" font-size="1px" y="3.6" x="21.324 21.879 22.441 22.959" fill="#2c2e35">оҒ’оҒҮоҒӮоҖ </tspan><tspan font-family="g_d0_f2" font-size="1px" y="4.8" x="21.324 21.757 22.098 22.357 22.542 22.885 23.37 23.629 23.814 24.299" fill="#2c2e35">оҖңоҖ–оҖ¬оҖ оҖҹоҖ—оҖ¬оҖ оҖ—оҖ—</tspan><tspan font-family="g_d0_f2" font-size="1px" y="0" x="28.432 28.959 29.699 30.242 30.797" fill="#2c2e35">оҒғоҒҚоҒҷоҒӢоҖ </tspan><tspan font-family="g_d0_f2" font-size="1px" y="1.2" x="28.432 28.775 29.3 29.825 30.084 30.269 30.612 31.137 31.662 31.921 32.106 32.631 32.89 33.075 33.467" fill="#2c2e35">оҖҹоҖһоҖһоҖ¬оҖ оҖҹоҖһоҖһоҖ¬оҖ оҖһоҖ¬оҖ оҖ–оҖһ</tspan><tspan font-family="g_d0_f2" font-size="1px" y="3.6" x="28.432 28.987 29.549 30.067" fill="#2c2e35">оҒ’оҒҮоҒӮоҖ </tspan><tspan font-family="g_d0_f2" font-size="1px" y="4.8" x="28.432 28.905 29.164 29.349 29.874 30.133 30.318 30.808" fill="#2c2e35">оҖӣоҖ¬оҖ оҖһоҖ¬оҖ оҖқоҖҷ</tspan><tspan font-family="g_d0_f2" font-size="1px" y="0" x="-7.106 -6.579 -5.839 -5.296 -4.741" fill="#2c2e35">оҒғоҒҚоҒҷоҒӢоҖ </tspan><tspan font-family="g_d0_f2" font-size="1px" y="1.2" x="-7.106 -6.763 -6.238 -5.713 -5.454 -5.269 -4.85 -4.325 -4.066 -3.881 -3.356 -3.097 -2.912" fill="#2c2e35">оҖҹоҖһоҖһоҖ¬оҖ оҖҷоҖһоҖ¬оҖ оҖһоҖ¬оҖ оҖһ</tspan><tspan font-family="g_d0_f2" font-size="1px" y="3.6" x="-7.106 -6.551 -5.989 -5.471" fill="#2c2e35">оҒ’оҒҮоҒӮоҖ </tspan><tspan font-family="g_d0_f2" font-size="1px" y="4.8" x="-7.106 -6.581 -6.322 -6.137 -5.794 -5.375 -5.034 -4.775 -4.59 -4.157 -3.632" fill="#2c2e35">оҖһоҖ¬оҖ оҖҹоҖҷоҖ–оҖ¬оҖ оҖңоҖһоҖ–</tspan><tspan font-family="g_d0_f2" font-size="1px" y="0" x="-14.214 -13.687 -12.947 -12.404 -11.849" fill="#2c2e35">оҒғоҒҚоҒҷоҒӢоҖ </tspan><tspan font-family="g_d0_f2" font-size="1px" y="1.2" x="-14.214 -13.871 -13.346 -12.821 -12.562 -12.377 -11.852 -11.593 -11.408 -10.883 -10.624 -10.439" fill="#2c2e35">оҖҹоҖһоҖһоҖ¬оҖ оҖһоҖ¬оҖ оҖһоҖ¬оҖ оҖһ</tspan><tspan font-family="g_d0_f2" font-size="1px" y="3.6" x="-14.214 -13.659 -13.097 -12.579" fill="#2c2e35">оҒ’оҒҮоҒӮоҖ </tspan><tspan font-family="g_d0_f2" font-size="1px" y="4.8" x="-14.214 -13.689 -13.43 -13.245 -12.902 -12.542 -12.069 -11.81 -11.625 -11.192 -10.773" fill="#2c2e35">оҖһоҖ¬оҖ оҖҹоҖ–оҖӣоҖ¬оҖ оҖңоҖҷоҖ—</tspan><tspan font-family="g_d0_f2" font-size="1px" y="0" x="-21.322 -20.795 -20.055 -19.512 -18.957" fill="#2c2e35">оҒғоҒҚоҒҷоҒӢоҖ </tspan><tspan font-family="g_d0_f2" font-size="1px" y="1.2" x="-21.322 -20.797 -20.538 -20.353 -19.828 -19.569 -19.384 -19.041 -18.717 -18.458 -18.273 -17.93" fill="#2c2e35">оҖһоҖ¬оҖ оҖһоҖ¬оҖ оҖҹоҖҹоҖ¬оҖ оҖҹоҖҳ</tspan><tspan font-family="g_d0_f2" font-size="1px" y="3.6" x="-21.322 -20.767 -20.205 -19.687" fill="#2c2e35">оҒ’оҒҮоҒӮоҖ </tspan><tspan font-family="g_d0_f2" font-size="1px" y="4.8" x="-21.322 -20.889 -20.546 -20.089 -19.83 -19.645 -19.212 -18.869 -18.396 -18.137 -17.952 -17.609 -17.124" fill="#2c2e35">оҖңоҖҹоҖҡоҖ¬оҖ оҖңоҖҹоҖӣоҖ¬оҖ оҖҹоҖ—оҖқ</tspan></text></g></g></svg>